<?xml version="1.0" encoding="utf-8" standalone="no"?>
<!DOCTYPE svg PUBLIC "-//W3C//DTD SVG 1.1//EN"
  "http://www.w3.org/Graphics/SVG/1.1/DTD/svg11.dtd">
<svg xmlns:xlink="http://www.w3.org/1999/xlink" width="720pt" height="288pt" viewBox="0 0 720 288" xmlns="http://www.w3.org/2000/svg" version="1.1">
 <metadata>
  <rdf:RDF xmlns:dc="http://purl.org/dc/elements/1.1/" xmlns:cc="http://creativecommons.org/ns#" xmlns:rdf="http://www.w3.org/1999/02/22-rdf-syntax-ns#">
   <cc:Work>
    <dc:type rdf:resource="http://purl.org/dc/dcmitype/StillImage"/>
    <dc:date>2025-06-02T16:10:36.291018</dc:date>
    <dc:format>image/svg+xml</dc:format>
    <dc:creator>
     <cc:Agent>
      <dc:title>Matplotlib v3.5.1, https://matplotlib.org/</dc:title>
     </cc:Agent>
    </dc:creator>
   </cc:Work>
  </rdf:RDF>
 </metadata>
 <defs>
  <style type="text/css">*{stroke-linejoin: round; stroke-linecap: butt}</style>
 </defs>
 <g id="figure_1">
  <g id="patch_1">
   <path d="M 0 288 
L 720 288 
L 720 0 
L 0 0 
z
" style="fill: #ffffff"/>
  </g>
  <g id="axes_1">
   <g id="patch_2">
    <path d="M 54.2 246.04 
L 709.2 246.04 
L 709.2 25.44 
L 54.2 25.44 
z
" style="fill: #ffffff"/>
   </g>
   <g id="matplotlib.axis_1">
    <g id="xtick_1">
     <g id="line2d_1">
      <path d="M 83.972727 246.04 
L 83.972727 25.44 
" clip-path="url(#p26d4166c27)" style="fill: none; stroke: #b0b0b0; stroke-width: 0.8; stroke-linecap: square"/>
     </g>
     <g id="line2d_2">
      <defs>
       <path id="m65ba78c19a" d="M 0 0 
L 0 3.5 
" style="stroke: #000000; stroke-width: 0.8"/>
      </defs>
      <g>
       <use xlink:href="#m65ba78c19a" x="83.972727" y="246.04" style="stroke: #000000; stroke-width: 0.8"/>
      </g>
     </g>
     <g id="text_1">
      <!-- 0 -->
      <g transform="translate(80.791477 260.638438)scale(0.1 -0.1)">
       <defs>
        <path id="DejaVuSans-30" d="M 2034 4250 
Q 1547 4250 1301 3770 
Q 1056 3291 1056 2328 
Q 1056 1369 1301 889 
Q 1547 409 2034 409 
Q 2525 409 2770 889 
Q 3016 1369 3016 2328 
Q 3016 3291 2770 3770 
Q 2525 4250 2034 4250 
z
M 2034 4750 
Q 2819 4750 3233 4129 
Q 3647 3509 3647 2328 
Q 3647 1150 3233 529 
Q 2819 -91 2034 -91 
Q 1250 -91 836 529 
Q 422 1150 422 2328 
Q 422 3509 836 4129 
Q 1250 4750 2034 4750 
z
" transform="scale(0.015625)"/>
       </defs>
       <use xlink:href="#DejaVuSans-30"/>
      </g>
     </g>
    </g>
    <g id="xtick_2">
     <g id="line2d_3">
      <path d="M 204.266575 246.04 
L 204.266575 25.44 
" clip-path="url(#p26d4166c27)" style="fill: none; stroke: #b0b0b0; stroke-width: 0.8; stroke-linecap: square"/>
     </g>
     <g id="line2d_4">
      <g>
       <use xlink:href="#m65ba78c19a" x="204.266575" y="246.04" style="stroke: #000000; stroke-width: 0.8"/>
      </g>
     </g>
     <g id="text_2">
      <!-- 20 -->
      <g transform="translate(197.904075 260.638438)scale(0.1 -0.1)">
       <defs>
        <path id="DejaVuSans-32" d="M 1228 531 
L 3431 531 
L 3431 0 
L 469 0 
L 469 531 
Q 828 903 1448 1529 
Q 2069 2156 2228 2338 
Q 2531 2678 2651 2914 
Q 2772 3150 2772 3378 
Q 2772 3750 2511 3984 
Q 2250 4219 1831 4219 
Q 1534 4219 1204 4116 
Q 875 4013 500 3803 
L 500 4441 
Q 881 4594 1212 4672 
Q 1544 4750 1819 4750 
Q 2544 4750 2975 4387 
Q 3406 4025 3406 3419 
Q 3406 3131 3298 2873 
Q 3191 2616 2906 2266 
Q 2828 2175 2409 1742 
Q 1991 1309 1228 531 
z
" transform="scale(0.015625)"/>
       </defs>
       <use xlink:href="#DejaVuSans-32"/>
       <use xlink:href="#DejaVuSans-30" x="63.623047"/>
      </g>
     </g>
    </g>
    <g id="xtick_3">
     <g id="line2d_5">
      <path d="M 324.560422 246.04 
L 324.560422 25.44 
" clip-path="url(#p26d4166c27)" style="fill: none; stroke: #b0b0b0; stroke-width: 0.8; stroke-linecap: square"/>
     </g>
     <g id="line2d_6">
      <g>
       <use xlink:href="#m65ba78c19a" x="324.560422" y="246.04" style="stroke: #000000; stroke-width: 0.8"/>
      </g>
     </g>
     <g id="text_3">
      <!-- 40 -->
      <g transform="translate(318.197922 260.638438)scale(0.1 -0.1)">
       <defs>
        <path id="DejaVuSans-34" d="M 2419 4116 
L 825 1625 
L 2419 1625 
L 2419 4116 
z
M 2253 4666 
L 3047 4666 
L 3047 1625 
L 3713 1625 
L 3713 1100 
L 3047 1100 
L 3047 0 
L 2419 0 
L 2419 1100 
L 313 1100 
L 313 1709 
L 2253 4666 
z
" transform="scale(0.015625)"/>
       </defs>
       <use xlink:href="#DejaVuSans-34"/>
       <use xlink:href="#DejaVuSans-30" x="63.623047"/>
      </g>
     </g>
    </g>
    <g id="xtick_4">
     <g id="line2d_7">
      <path d="M 444.85427 246.04 
L 444.85427 25.44 
" clip-path="url(#p26d4166c27)" style="fill: none; stroke: #b0b0b0; stroke-width: 0.8; stroke-linecap: square"/>
     </g>
     <g id="line2d_8">
      <g>
       <use xlink:href="#m65ba78c19a" x="444.85427" y="246.04" style="stroke: #000000; stroke-width: 0.8"/>
      </g>
     </g>
     <g id="text_4">
      <!-- 60 -->
      <g transform="translate(438.49177 260.638438)scale(0.1 -0.1)">
       <defs>
        <path id="DejaVuSans-36" d="M 2113 2584 
Q 1688 2584 1439 2293 
Q 1191 2003 1191 1497 
Q 1191 994 1439 701 
Q 1688 409 2113 409 
Q 2538 409 2786 701 
Q 3034 994 3034 1497 
Q 3034 2003 2786 2293 
Q 2538 2584 2113 2584 
z
M 3366 4563 
L 3366 3988 
Q 3128 4100 2886 4159 
Q 2644 4219 2406 4219 
Q 1781 4219 1451 3797 
Q 1122 3375 1075 2522 
Q 1259 2794 1537 2939 
Q 1816 3084 2150 3084 
Q 2853 3084 3261 2657 
Q 3669 2231 3669 1497 
Q 3669 778 3244 343 
Q 2819 -91 2113 -91 
Q 1303 -91 875 529 
Q 447 1150 447 2328 
Q 447 3434 972 4092 
Q 1497 4750 2381 4750 
Q 2619 4750 2861 4703 
Q 3103 4656 3366 4563 
z
" transform="scale(0.015625)"/>
       </defs>
       <use xlink:href="#DejaVuSans-36"/>
       <use xlink:href="#DejaVuSans-30" x="63.623047"/>
      </g>
     </g>
    </g>
    <g id="xtick_5">
     <g id="line2d_9">
      <path d="M 565.148118 246.04 
L 565.148118 25.44 
" clip-path="url(#p26d4166c27)" style="fill: none; stroke: #b0b0b0; stroke-width: 0.8; stroke-linecap: square"/>
     </g>
     <g id="line2d_10">
      <g>
       <use xlink:href="#m65ba78c19a" x="565.148118" y="246.04" style="stroke: #000000; stroke-width: 0.8"/>
      </g>
     </g>
     <g id="text_5">
      <!-- 80 -->
      <g transform="translate(558.785618 260.638438)scale(0.1 -0.1)">
       <defs>
        <path id="DejaVuSans-38" d="M 2034 2216 
Q 1584 2216 1326 1975 
Q 1069 1734 1069 1313 
Q 1069 891 1326 650 
Q 1584 409 2034 409 
Q 2484 409 2743 651 
Q 3003 894 3003 1313 
Q 3003 1734 2745 1975 
Q 2488 2216 2034 2216 
z
M 1403 2484 
Q 997 2584 770 2862 
Q 544 3141 544 3541 
Q 544 4100 942 4425 
Q 1341 4750 2034 4750 
Q 2731 4750 3128 4425 
Q 3525 4100 3525 3541 
Q 3525 3141 3298 2862 
Q 3072 2584 2669 2484 
Q 3125 2378 3379 2068 
Q 3634 1759 3634 1313 
Q 3634 634 3220 271 
Q 2806 -91 2034 -91 
Q 1263 -91 848 271 
Q 434 634 434 1313 
Q 434 1759 690 2068 
Q 947 2378 1403 2484 
z
M 1172 3481 
Q 1172 3119 1398 2916 
Q 1625 2713 2034 2713 
Q 2441 2713 2670 2916 
Q 2900 3119 2900 3481 
Q 2900 3844 2670 4047 
Q 2441 4250 2034 4250 
Q 1625 4250 1398 4047 
Q 1172 3844 1172 3481 
z
" transform="scale(0.015625)"/>
       </defs>
       <use xlink:href="#DejaVuSans-38"/>
       <use xlink:href="#DejaVuSans-30" x="63.623047"/>
      </g>
     </g>
    </g>
    <g id="xtick_6">
     <g id="line2d_11">
      <path d="M 685.441965 246.04 
L 685.441965 25.44 
" clip-path="url(#p26d4166c27)" style="fill: none; stroke: #b0b0b0; stroke-width: 0.8; stroke-linecap: square"/>
     </g>
     <g id="line2d_12">
      <g>
       <use xlink:href="#m65ba78c19a" x="685.441965" y="246.04" style="stroke: #000000; stroke-width: 0.8"/>
      </g>
     </g>
     <g id="text_6">
      <!-- 100 -->
      <g transform="translate(675.898215 260.638438)scale(0.1 -0.1)">
       <defs>
        <path id="DejaVuSans-31" d="M 794 531 
L 1825 531 
L 1825 4091 
L 703 3866 
L 703 4441 
L 1819 4666 
L 2450 4666 
L 2450 531 
L 3481 531 
L 3481 0 
L 794 0 
L 794 531 
z
" transform="scale(0.015625)"/>
       </defs>
       <use xlink:href="#DejaVuSans-31"/>
       <use xlink:href="#DejaVuSans-30" x="63.623047"/>
       <use xlink:href="#DejaVuSans-30" x="127.246094"/>
      </g>
     </g>
    </g>
    <g id="text_7">
     <!-- Ãndice -->
     <g transform="translate(366.667188 274.316562)scale(0.1 -0.1)">
      <defs>
       <path id="DejaVuSans-cd" d="M 628 4666 
L 1259 4666 
L 1259 0 
L 628 0 
L 628 4666 
z
M 1119 5935 
L 1697 5935 
L 984 5110 
L 506 5110 
L 1119 5935 
z
" transform="scale(0.015625)"/>
       <path id="DejaVuSans-6e" d="M 3513 2113 
L 3513 0 
L 2938 0 
L 2938 2094 
Q 2938 2591 2744 2837 
Q 2550 3084 2163 3084 
Q 1697 3084 1428 2787 
Q 1159 2491 1159 1978 
L 1159 0 
L 581 0 
L 581 3500 
L 1159 3500 
L 1159 2956 
Q 1366 3272 1645 3428 
Q 1925 3584 2291 3584 
Q 2894 3584 3203 3211 
Q 3513 2838 3513 2113 
z
" transform="scale(0.015625)"/>
       <path id="DejaVuSans-64" d="M 2906 2969 
L 2906 4863 
L 3481 4863 
L 3481 0 
L 2906 0 
L 2906 525 
Q 2725 213 2448 61 
Q 2172 -91 1784 -91 
Q 1150 -91 751 415 
Q 353 922 353 1747 
Q 353 2572 751 3078 
Q 1150 3584 1784 3584 
Q 2172 3584 2448 3432 
Q 2725 3281 2906 2969 
z
M 947 1747 
Q 947 1113 1208 752 
Q 1469 391 1925 391 
Q 2381 391 2643 752 
Q 2906 1113 2906 1747 
Q 2906 2381 2643 2742 
Q 2381 3103 1925 3103 
Q 1469 3103 1208 2742 
Q 947 2381 947 1747 
z
" transform="scale(0.015625)"/>
       <path id="DejaVuSans-69" d="M 603 3500 
L 1178 3500 
L 1178 0 
L 603 0 
L 603 3500 
z
M 603 4863 
L 1178 4863 
L 1178 4134 
L 603 4134 
L 603 4863 
z
" transform="scale(0.015625)"/>
       <path id="DejaVuSans-63" d="M 3122 3366 
L 3122 2828 
Q 2878 2963 2633 3030 
Q 2388 3097 2138 3097 
Q 1578 3097 1268 2742 
Q 959 2388 959 1747 
Q 959 1106 1268 751 
Q 1578 397 2138 397 
Q 2388 397 2633 464 
Q 2878 531 3122 666 
L 3122 134 
Q 2881 22 2623 -34 
Q 2366 -91 2075 -91 
Q 1284 -91 818 406 
Q 353 903 353 1747 
Q 353 2603 823 3093 
Q 1294 3584 2113 3584 
Q 2378 3584 2631 3529 
Q 2884 3475 3122 3366 
z
" transform="scale(0.015625)"/>
       <path id="DejaVuSans-65" d="M 3597 1894 
L 3597 1613 
L 953 1613 
Q 991 1019 1311 708 
Q 1631 397 2203 397 
Q 2534 397 2845 478 
Q 3156 559 3463 722 
L 3463 178 
Q 3153 47 2828 -22 
Q 2503 -91 2169 -91 
Q 1331 -91 842 396 
Q 353 884 353 1716 
Q 353 2575 817 3079 
Q 1281 3584 2069 3584 
Q 2775 3584 3186 3129 
Q 3597 2675 3597 1894 
z
M 3022 2063 
Q 3016 2534 2758 2815 
Q 2500 3097 2075 3097 
Q 1594 3097 1305 2825 
Q 1016 2553 972 2059 
L 3022 2063 
z
" transform="scale(0.015625)"/>
      </defs>
      <use xlink:href="#DejaVuSans-cd"/>
      <use xlink:href="#DejaVuSans-6e" x="29.492188"/>
      <use xlink:href="#DejaVuSans-64" x="92.871094"/>
      <use xlink:href="#DejaVuSans-69" x="156.347656"/>
      <use xlink:href="#DejaVuSans-63" x="184.130859"/>
      <use xlink:href="#DejaVuSans-65" x="239.111328"/>
     </g>
    </g>
   </g>
   <g id="matplotlib.axis_2">
    <g id="ytick_1">
     <g id="line2d_13">
      <path d="M 54.2 239.241117 
L 709.2 239.241117 
" clip-path="url(#p26d4166c27)" style="fill: none; stroke: #b0b0b0; stroke-width: 0.8; stroke-linecap: square"/>
     </g>
     <g id="line2d_14">
      <defs>
       <path id="m3cd288b15a" d="M 0 0 
L -3.5 0 
" style="stroke: #000000; stroke-width: 0.8"/>
      </defs>
      <g>
       <use xlink:href="#m3cd288b15a" x="54.2" y="239.241117" style="stroke: #000000; stroke-width: 0.8"/>
      </g>
     </g>
     <g id="text_8">
      <!-- 0.00 -->
      <g transform="translate(24.934375 243.040336)scale(0.1 -0.1)">
       <defs>
        <path id="DejaVuSans-2e" d="M 684 794 
L 1344 794 
L 1344 0 
L 684 0 
L 684 794 
z
" transform="scale(0.015625)"/>
       </defs>
       <use xlink:href="#DejaVuSans-30"/>
       <use xlink:href="#DejaVuSans-2e" x="63.623047"/>
       <use xlink:href="#DejaVuSans-30" x="95.410156"/>
       <use xlink:href="#DejaVuSans-30" x="159.033203"/>
      </g>
     </g>
    </g>
    <g id="ytick_2">
     <g id="line2d_15">
      <path d="M 54.2 209.202177 
L 709.2 209.202177 
" clip-path="url(#p26d4166c27)" style="fill: none; stroke: #b0b0b0; stroke-width: 0.8; stroke-linecap: square"/>
     </g>
     <g id="line2d_16">
      <g>
       <use xlink:href="#m3cd288b15a" x="54.2" y="209.202177" style="stroke: #000000; stroke-width: 0.8"/>
      </g>
     </g>
     <g id="text_9">
      <!-- 0.25 -->
      <g transform="translate(24.934375 213.001395)scale(0.1 -0.1)">
       <defs>
        <path id="DejaVuSans-35" d="M 691 4666 
L 3169 4666 
L 3169 4134 
L 1269 4134 
L 1269 2991 
Q 1406 3038 1543 3061 
Q 1681 3084 1819 3084 
Q 2600 3084 3056 2656 
Q 3513 2228 3513 1497 
Q 3513 744 3044 326 
Q 2575 -91 1722 -91 
Q 1428 -91 1123 -41 
Q 819 9 494 109 
L 494 744 
Q 775 591 1075 516 
Q 1375 441 1709 441 
Q 2250 441 2565 725 
Q 2881 1009 2881 1497 
Q 2881 1984 2565 2268 
Q 2250 2553 1709 2553 
Q 1456 2553 1204 2497 
Q 953 2441 691 2322 
L 691 4666 
z
" transform="scale(0.015625)"/>
       </defs>
       <use xlink:href="#DejaVuSans-30"/>
       <use xlink:href="#DejaVuSans-2e" x="63.623047"/>
       <use xlink:href="#DejaVuSans-32" x="95.410156"/>
       <use xlink:href="#DejaVuSans-35" x="159.033203"/>
      </g>
     </g>
    </g>
    <g id="ytick_3">
     <g id="line2d_17">
      <path d="M 54.2 179.163236 
L 709.2 179.163236 
" clip-path="url(#p26d4166c27)" style="fill: none; stroke: #b0b0b0; stroke-width: 0.8; stroke-linecap: square"/>
     </g>
     <g id="line2d_18">
      <g>
       <use xlink:href="#m3cd288b15a" x="54.2" y="179.163236" style="stroke: #000000; stroke-width: 0.8"/>
      </g>
     </g>
     <g id="text_10">
      <!-- 0.50 -->
      <g transform="translate(24.934375 182.962455)scale(0.1 -0.1)">
       <use xlink:href="#DejaVuSans-30"/>
       <use xlink:href="#DejaVuSans-2e" x="63.623047"/>
       <use xlink:href="#DejaVuSans-35" x="95.410156"/>
       <use xlink:href="#DejaVuSans-30" x="159.033203"/>
      </g>
     </g>
    </g>
    <g id="ytick_4">
     <g id="line2d_19">
      <path d="M 54.2 149.124295 
L 709.2 149.124295 
" clip-path="url(#p26d4166c27)" style="fill: none; stroke: #b0b0b0; stroke-width: 0.8; stroke-linecap: square"/>
     </g>
     <g id="line2d_20">
      <g>
       <use xlink:href="#m3cd288b15a" x="54.2" y="149.124295" style="stroke: #000000; stroke-width: 0.8"/>
      </g>
     </g>
     <g id="text_11">
      <!-- 0.75 -->
      <g transform="translate(24.934375 152.923514)scale(0.1 -0.1)">
       <defs>
        <path id="DejaVuSans-37" d="M 525 4666 
L 3525 4666 
L 3525 4397 
L 1831 0 
L 1172 0 
L 2766 4134 
L 525 4134 
L 525 4666 
z
" transform="scale(0.015625)"/>
       </defs>
       <use xlink:href="#DejaVuSans-30"/>
       <use xlink:href="#DejaVuSans-2e" x="63.623047"/>
       <use xlink:href="#DejaVuSans-37" x="95.410156"/>
       <use xlink:href="#DejaVuSans-35" x="159.033203"/>
      </g>
     </g>
    </g>
    <g id="ytick_5">
     <g id="line2d_21">
      <path d="M 54.2 119.085354 
L 709.2 119.085354 
" clip-path="url(#p26d4166c27)" style="fill: none; stroke: #b0b0b0; stroke-width: 0.8; stroke-linecap: square"/>
     </g>
     <g id="line2d_22">
      <g>
       <use xlink:href="#m3cd288b15a" x="54.2" y="119.085354" style="stroke: #000000; stroke-width: 0.8"/>
      </g>
     </g>
     <g id="text_12">
      <!-- 1.00 -->
      <g transform="translate(24.934375 122.884573)scale(0.1 -0.1)">
       <use xlink:href="#DejaVuSans-31"/>
       <use xlink:href="#DejaVuSans-2e" x="63.623047"/>
       <use xlink:href="#DejaVuSans-30" x="95.410156"/>
       <use xlink:href="#DejaVuSans-30" x="159.033203"/>
      </g>
     </g>
    </g>
    <g id="ytick_6">
     <g id="line2d_23">
      <path d="M 54.2 89.046413 
L 709.2 89.046413 
" clip-path="url(#p26d4166c27)" style="fill: none; stroke: #b0b0b0; stroke-width: 0.8; stroke-linecap: square"/>
     </g>
     <g id="line2d_24">
      <g>
       <use xlink:href="#m3cd288b15a" x="54.2" y="89.046413" style="stroke: #000000; stroke-width: 0.8"/>
      </g>
     </g>
     <g id="text_13">
      <!-- 1.25 -->
      <g transform="translate(24.934375 92.845632)scale(0.1 -0.1)">
       <use xlink:href="#DejaVuSans-31"/>
       <use xlink:href="#DejaVuSans-2e" x="63.623047"/>
       <use xlink:href="#DejaVuSans-32" x="95.410156"/>
       <use xlink:href="#DejaVuSans-35" x="159.033203"/>
      </g>
     </g>
    </g>
    <g id="ytick_7">
     <g id="line2d_25">
      <path d="M 54.2 59.007473 
L 709.2 59.007473 
" clip-path="url(#p26d4166c27)" style="fill: none; stroke: #b0b0b0; stroke-width: 0.8; stroke-linecap: square"/>
     </g>
     <g id="line2d_26">
      <g>
       <use xlink:href="#m3cd288b15a" x="54.2" y="59.007473" style="stroke: #000000; stroke-width: 0.8"/>
      </g>
     </g>
     <g id="text_14">
      <!-- 1.50 -->
      <g transform="translate(24.934375 62.806691)scale(0.1 -0.1)">
       <use xlink:href="#DejaVuSans-31"/>
       <use xlink:href="#DejaVuSans-2e" x="63.623047"/>
       <use xlink:href="#DejaVuSans-35" x="95.410156"/>
       <use xlink:href="#DejaVuSans-30" x="159.033203"/>
      </g>
     </g>
    </g>
    <g id="ytick_8">
     <g id="line2d_27">
      <path d="M 54.2 28.968532 
L 709.2 28.968532 
" clip-path="url(#p26d4166c27)" style="fill: none; stroke: #b0b0b0; stroke-width: 0.8; stroke-linecap: square"/>
     </g>
     <g id="line2d_28">
      <g>
       <use xlink:href="#m3cd288b15a" x="54.2" y="28.968532" style="stroke: #000000; stroke-width: 0.8"/>
      </g>
     </g>
     <g id="text_15">
      <!-- 1.75 -->
      <g transform="translate(24.934375 32.76775)scale(0.1 -0.1)">
       <use xlink:href="#DejaVuSans-31"/>
       <use xlink:href="#DejaVuSans-2e" x="63.623047"/>
       <use xlink:href="#DejaVuSans-37" x="95.410156"/>
       <use xlink:href="#DejaVuSans-35" x="159.033203"/>
      </g>
     </g>
    </g>
    <g id="text_16">
     <!-- Magnitude -->
     <g transform="translate(18.854688 162.229844)rotate(-90)scale(0.1 -0.1)">
      <defs>
       <path id="DejaVuSans-4d" d="M 628 4666 
L 1569 4666 
L 2759 1491 
L 3956 4666 
L 4897 4666 
L 4897 0 
L 4281 0 
L 4281 4097 
L 3078 897 
L 2444 897 
L 1241 4097 
L 1241 0 
L 628 0 
L 628 4666 
z
" transform="scale(0.015625)"/>
       <path id="DejaVuSans-61" d="M 2194 1759 
Q 1497 1759 1228 1600 
Q 959 1441 959 1056 
Q 959 750 1161 570 
Q 1363 391 1709 391 
Q 2188 391 2477 730 
Q 2766 1069 2766 1631 
L 2766 1759 
L 2194 1759 
z
M 3341 1997 
L 3341 0 
L 2766 0 
L 2766 531 
Q 2569 213 2275 61 
Q 1981 -91 1556 -91 
Q 1019 -91 701 211 
Q 384 513 384 1019 
Q 384 1609 779 1909 
Q 1175 2209 1959 2209 
L 2766 2209 
L 2766 2266 
Q 2766 2663 2505 2880 
Q 2244 3097 1772 3097 
Q 1472 3097 1187 3025 
Q 903 2953 641 2809 
L 641 3341 
Q 956 3463 1253 3523 
Q 1550 3584 1831 3584 
Q 2591 3584 2966 3190 
Q 3341 2797 3341 1997 
z
" transform="scale(0.015625)"/>
       <path id="DejaVuSans-67" d="M 2906 1791 
Q 2906 2416 2648 2759 
Q 2391 3103 1925 3103 
Q 1463 3103 1205 2759 
Q 947 2416 947 1791 
Q 947 1169 1205 825 
Q 1463 481 1925 481 
Q 2391 481 2648 825 
Q 2906 1169 2906 1791 
z
M 3481 434 
Q 3481 -459 3084 -895 
Q 2688 -1331 1869 -1331 
Q 1566 -1331 1297 -1286 
Q 1028 -1241 775 -1147 
L 775 -588 
Q 1028 -725 1275 -790 
Q 1522 -856 1778 -856 
Q 2344 -856 2625 -561 
Q 2906 -266 2906 331 
L 2906 616 
Q 2728 306 2450 153 
Q 2172 0 1784 0 
Q 1141 0 747 490 
Q 353 981 353 1791 
Q 353 2603 747 3093 
Q 1141 3584 1784 3584 
Q 2172 3584 2450 3431 
Q 2728 3278 2906 2969 
L 2906 3500 
L 3481 3500 
L 3481 434 
z
" transform="scale(0.015625)"/>
       <path id="DejaVuSans-74" d="M 1172 4494 
L 1172 3500 
L 2356 3500 
L 2356 3053 
L 1172 3053 
L 1172 1153 
Q 1172 725 1289 603 
Q 1406 481 1766 481 
L 2356 481 
L 2356 0 
L 1766 0 
Q 1100 0 847 248 
Q 594 497 594 1153 
L 594 3053 
L 172 3053 
L 172 3500 
L 594 3500 
L 594 4494 
L 1172 4494 
z
" transform="scale(0.015625)"/>
       <path id="DejaVuSans-75" d="M 544 1381 
L 544 3500 
L 1119 3500 
L 1119 1403 
Q 1119 906 1312 657 
Q 1506 409 1894 409 
Q 2359 409 2629 706 
Q 2900 1003 2900 1516 
L 2900 3500 
L 3475 3500 
L 3475 0 
L 2900 0 
L 2900 538 
Q 2691 219 2414 64 
Q 2138 -91 1772 -91 
Q 1169 -91 856 284 
Q 544 659 544 1381 
z
M 1991 3584 
L 1991 3584 
z
" transform="scale(0.015625)"/>
      </defs>
      <use xlink:href="#DejaVuSans-4d"/>
      <use xlink:href="#DejaVuSans-61" x="86.279297"/>
      <use xlink:href="#DejaVuSans-67" x="147.558594"/>
      <use xlink:href="#DejaVuSans-6e" x="211.035156"/>
      <use xlink:href="#DejaVuSans-69" x="274.414062"/>
      <use xlink:href="#DejaVuSans-74" x="302.197266"/>
      <use xlink:href="#DejaVuSans-75" x="341.40625"/>
      <use xlink:href="#DejaVuSans-64" x="404.785156"/>
      <use xlink:href="#DejaVuSans-65" x="468.261719"/>
     </g>
    </g>
   </g>
   <g id="line2d_29">
    <path d="M 83.972727 124.703454 
L 89.98742 209.685853 
L 96.002112 136.979595 
L 102.016804 120.827472 
L 108.031497 119.083721 
L 114.046189 154.391049 
L 120.060882 193.45642 
L 126.075574 189.842695 
L 132.090266 142.383806 
L 138.104959 114.715299 
L 144.119651 111.661647 
L 150.134343 97.667323 
L 156.149036 119.132415 
L 162.163728 98.422166 
L 168.178421 190.442323 
L 174.193113 137.672045 
L 180.207805 188.394749 
L 186.222498 148.546886 
L 192.23719 131.65796 
L 198.251882 71.863078 
L 204.266575 108.994291 
L 210.281267 124.013947 
L 216.29596 91.081637 
L 222.310652 159.495737 
L 228.325344 162.096488 
L 234.340037 142.962246 
L 240.354729 165.88887 
L 246.369421 141.734556 
L 252.384114 151.437018 
L 258.398806 215.671919 
L 264.413499 152.754869 
L 270.428191 201.627154 
L 276.442883 179.055486 
L 282.457576 178.981261 
L 288.472268 106.009421 
L 294.486961 161.46871 
L 300.501653 142.182594 
L 306.516345 148.280322 
L 312.531038 230.44557 
L 318.54573 126.909208 
L 324.560422 156.05748 
L 330.575115 124.287737 
L 336.589807 126.662647 
L 342.6045 129.45126 
L 348.619192 110.312256 
L 354.633884 112.08411 
L 360.648577 138.059937 
L 366.663269 114.682956 
L 372.677961 143.155093 
L 378.692654 107.590298 
L 384.707346 163.27237 
L 390.722039 209.953121 
L 396.736731 156.345759 
L 402.751423 161.289191 
L 408.766116 99.634365 
L 414.780808 167.695989 
L 420.7955 174.724606 
L 426.810193 186.136374 
L 432.824885 134.192271 
L 438.839578 88.063236 
L 444.85427 137.211997 
L 450.868962 116.009286 
L 456.883655 136.220798 
L 462.898347 106.826616 
L 468.913039 141.181261 
L 474.927732 138.68488 
L 480.942424 192.45113 
L 486.957117 108.446696 
L 492.971809 140.362613 
L 498.986501 145.535675 
L 505.001194 197.903616 
L 511.015886 137.603176 
L 517.030579 170.028221 
L 523.045271 153.624954 
L 529.059963 153.699544 
L 535.074656 141.248962 
L 541.089348 141.043546 
L 547.10404 206.214629 
L 553.118733 178.889789 
L 559.133425 185.004863 
L 565.148118 132.132339 
L 571.16281 169.833082 
L 577.177502 143.144379 
L 583.192195 197.654803 
L 589.206887 147.281374 
L 595.221579 95.335842 
L 601.236272 194.226934 
L 607.250964 187.167124 
L 613.265657 137.436406 
L 619.280349 173.774115 
L 625.295041 119.167013 
L 631.309734 132.678816 
L 637.324426 178.189956 
L 643.339118 88.970039 
L 649.353811 161.453821 
L 655.368503 157.677682 
L 661.383196 192.442701 
L 667.397888 121.550016 
L 673.41258 123.819632 
L 679.427273 108.714778 
" clip-path="url(#p26d4166c27)" style="fill: none; stroke: #1f77b4; stroke-width: 1.5; stroke-linecap: square"/>
   </g>
   <g id="line2d_30">
    <path d="M 83.972727 98.81114 
L 89.98742 215.619136 
L 96.002112 139.547165 
L 102.016804 125.464858 
L 108.031497 133.819533 
L 114.046189 120.934792 
L 120.060882 203.401862 
L 126.075574 198.151706 
L 132.090266 184.297972 
L 138.104959 118.392303 
L 144.119651 95.691671 
L 150.134343 116.136781 
L 156.149036 85.216461 
L 162.163728 117.22382 
L 168.178421 212.129189 
L 174.193113 76.252872 
L 180.207805 184.553048 
L 186.222498 176.483382 
L 192.23719 128.884179 
L 198.251882 35.467273 
L 204.266575 122.642662 
L 210.281267 134.175598 
L 216.29596 94.380711 
L 222.310652 182.860365 
L 228.325344 155.933996 
L 234.340037 160.541624 
L 240.354729 157.180335 
L 246.369421 140.800437 
L 252.384114 153.278127 
L 258.398806 188.808697 
L 264.413499 159.429562 
L 270.428191 236.012727 
L 276.442883 217.697381 
L 282.457576 185.109602 
L 288.472268 122.744224 
L 294.486961 168.828849 
L 300.501653 134.967726 
L 306.516345 140.508306 
L 312.531038 201.048255 
L 318.54573 113.898218 
L 324.560422 140.615433 
L 330.575115 135.724203 
L 336.589807 159.972107 
L 342.6045 169.179586 
L 348.619192 98.498411 
L 354.633884 103.645928 
L 360.648577 145.082123 
L 366.663269 142.582175 
L 372.677961 150.616372 
L 378.692654 87.324764 
L 384.707346 163.626766 
L 390.722039 210.831308 
L 396.736731 165.756089 
L 402.751423 147.59242 
L 408.766116 71.904875 
L 414.780808 146.557971 
L 420.7955 196.876697 
L 426.810193 206.177806 
L 432.824885 122.421376 
L 438.839578 130.582437 
L 444.85427 146.631559 
L 450.868962 133.916468 
L 456.883655 157.820518 
L 462.898347 119.20505 
L 468.913039 183.803106 
L 474.927732 157.00515 
L 480.942424 176.485831 
L 486.957117 136.238201 
L 492.971809 118.870069 
L 498.986501 149.804706 
L 505.001194 149.163878 
L 511.015886 129.134277 
L 517.030579 159.292033 
L 523.045271 202.034022 
L 529.059963 167.168254 
L 535.074656 140.161429 
L 541.089348 184.702011 
L 547.10404 233.039813 
L 553.118733 153.398697 
L 559.133425 112.780269 
L 565.148118 164.343502 
L 571.16281 197.146731 
L 577.177502 164.573046 
L 583.192195 190.752012 
L 589.206887 123.881231 
L 595.221579 80.779371 
L 601.236272 219.368588 
L 607.250964 192.386652 
L 613.265657 165.280557 
L 619.280349 160.769607 
L 625.295041 97.253411 
L 631.309734 104.488819 
L 637.324426 217.907162 
L 643.339118 109.07532 
L 649.353811 202.721036 
L 655.368503 145.239103 
L 661.383196 206.570168 
L 667.397888 130.447981 
L 673.41258 141.667314 
L 679.427273 136.766724 
" clip-path="url(#p26d4166c27)" style="fill: none; stroke: #ff7f0e; stroke-width: 1.5; stroke-linecap: square"/>
   </g>
   <g id="patch_3">
    <path d="M 54.2 246.04 
L 54.2 25.44 
" style="fill: none; stroke: #000000; stroke-width: 0.8; stroke-linejoin: miter; stroke-linecap: square"/>
   </g>
   <g id="patch_4">
    <path d="M 709.2 246.04 
L 709.2 25.44 
" style="fill: none; stroke: #000000; stroke-width: 0.8; stroke-linejoin: miter; stroke-linecap: square"/>
   </g>
   <g id="patch_5">
    <path d="M 54.2 246.04 
L 709.2 246.04 
" style="fill: none; stroke: #000000; stroke-width: 0.8; stroke-linejoin: miter; stroke-linecap: square"/>
   </g>
   <g id="patch_6">
    <path d="M 54.2 25.44 
L 709.2 25.44 
" style="fill: none; stroke: #000000; stroke-width: 0.8; stroke-linejoin: miter; stroke-linecap: square"/>
   </g>
   <g id="text_17">
    <!-- Magnitudes - amostras do meio -->
    <g transform="translate(286.700312 19.44)scale(0.12 -0.12)">
     <defs>
      <path id="DejaVuSans-73" d="M 2834 3397 
L 2834 2853 
Q 2591 2978 2328 3040 
Q 2066 3103 1784 3103 
Q 1356 3103 1142 2972 
Q 928 2841 928 2578 
Q 928 2378 1081 2264 
Q 1234 2150 1697 2047 
L 1894 2003 
Q 2506 1872 2764 1633 
Q 3022 1394 3022 966 
Q 3022 478 2636 193 
Q 2250 -91 1575 -91 
Q 1294 -91 989 -36 
Q 684 19 347 128 
L 347 722 
Q 666 556 975 473 
Q 1284 391 1588 391 
Q 1994 391 2212 530 
Q 2431 669 2431 922 
Q 2431 1156 2273 1281 
Q 2116 1406 1581 1522 
L 1381 1569 
Q 847 1681 609 1914 
Q 372 2147 372 2553 
Q 372 3047 722 3315 
Q 1072 3584 1716 3584 
Q 2034 3584 2315 3537 
Q 2597 3491 2834 3397 
z
" transform="scale(0.015625)"/>
      <path id="DejaVuSans-20" transform="scale(0.015625)"/>
      <path id="DejaVuSans-2d" d="M 313 2009 
L 1997 2009 
L 1997 1497 
L 313 1497 
L 313 2009 
z
" transform="scale(0.015625)"/>
      <path id="DejaVuSans-6d" d="M 3328 2828 
Q 3544 3216 3844 3400 
Q 4144 3584 4550 3584 
Q 5097 3584 5394 3201 
Q 5691 2819 5691 2113 
L 5691 0 
L 5113 0 
L 5113 2094 
Q 5113 2597 4934 2840 
Q 4756 3084 4391 3084 
Q 3944 3084 3684 2787 
Q 3425 2491 3425 1978 
L 3425 0 
L 2847 0 
L 2847 2094 
Q 2847 2600 2669 2842 
Q 2491 3084 2119 3084 
Q 1678 3084 1418 2786 
Q 1159 2488 1159 1978 
L 1159 0 
L 581 0 
L 581 3500 
L 1159 3500 
L 1159 2956 
Q 1356 3278 1631 3431 
Q 1906 3584 2284 3584 
Q 2666 3584 2933 3390 
Q 3200 3197 3328 2828 
z
" transform="scale(0.015625)"/>
      <path id="DejaVuSans-6f" d="M 1959 3097 
Q 1497 3097 1228 2736 
Q 959 2375 959 1747 
Q 959 1119 1226 758 
Q 1494 397 1959 397 
Q 2419 397 2687 759 
Q 2956 1122 2956 1747 
Q 2956 2369 2687 2733 
Q 2419 3097 1959 3097 
z
M 1959 3584 
Q 2709 3584 3137 3096 
Q 3566 2609 3566 1747 
Q 3566 888 3137 398 
Q 2709 -91 1959 -91 
Q 1206 -91 779 398 
Q 353 888 353 1747 
Q 353 2609 779 3096 
Q 1206 3584 1959 3584 
z
" transform="scale(0.015625)"/>
      <path id="DejaVuSans-72" d="M 2631 2963 
Q 2534 3019 2420 3045 
Q 2306 3072 2169 3072 
Q 1681 3072 1420 2755 
Q 1159 2438 1159 1844 
L 1159 0 
L 581 0 
L 581 3500 
L 1159 3500 
L 1159 2956 
Q 1341 3275 1631 3429 
Q 1922 3584 2338 3584 
Q 2397 3584 2469 3576 
Q 2541 3569 2628 3553 
L 2631 2963 
z
" transform="scale(0.015625)"/>
     </defs>
     <use xlink:href="#DejaVuSans-4d"/>
     <use xlink:href="#DejaVuSans-61" x="86.279297"/>
     <use xlink:href="#DejaVuSans-67" x="147.558594"/>
     <use xlink:href="#DejaVuSans-6e" x="211.035156"/>
     <use xlink:href="#DejaVuSans-69" x="274.414062"/>
     <use xlink:href="#DejaVuSans-74" x="302.197266"/>
     <use xlink:href="#DejaVuSans-75" x="341.40625"/>
     <use xlink:href="#DejaVuSans-64" x="404.785156"/>
     <use xlink:href="#DejaVuSans-65" x="468.261719"/>
     <use xlink:href="#DejaVuSans-73" x="529.785156"/>
     <use xlink:href="#DejaVuSans-20" x="581.884766"/>
     <use xlink:href="#DejaVuSans-2d" x="613.671875"/>
     <use xlink:href="#DejaVuSans-20" x="649.755859"/>
     <use xlink:href="#DejaVuSans-61" x="681.542969"/>
     <use xlink:href="#DejaVuSans-6d" x="742.822266"/>
     <use xlink:href="#DejaVuSans-6f" x="840.234375"/>
     <use xlink:href="#DejaVuSans-73" x="901.416016"/>
     <use xlink:href="#DejaVuSans-74" x="953.515625"/>
     <use xlink:href="#DejaVuSans-72" x="992.724609"/>
     <use xlink:href="#DejaVuSans-61" x="1033.837891"/>
     <use xlink:href="#DejaVuSans-73" x="1095.117188"/>
     <use xlink:href="#DejaVuSans-20" x="1147.216797"/>
     <use xlink:href="#DejaVuSans-64" x="1179.003906"/>
     <use xlink:href="#DejaVuSans-6f" x="1242.480469"/>
     <use xlink:href="#DejaVuSans-20" x="1303.662109"/>
     <use xlink:href="#DejaVuSans-6d" x="1335.449219"/>
     <use xlink:href="#DejaVuSans-65" x="1432.861328"/>
     <use xlink:href="#DejaVuSans-69" x="1494.384766"/>
     <use xlink:href="#DejaVuSans-6f" x="1522.167969"/>
    </g>
   </g>
   <g id="legend_1">
    <g id="patch_7">
     <path d="M 535.99375 62.79625 
L 702.2 62.79625 
Q 704.2 62.79625 704.2 60.79625 
L 704.2 32.44 
Q 704.2 30.44 702.2 30.44 
L 535.99375 30.44 
Q 533.99375 30.44 533.99375 32.44 
L 533.99375 60.79625 
Q 533.99375 62.79625 535.99375 62.79625 
z
" style="fill: #ffffff; opacity: 0.8; stroke: #cccccc; stroke-linejoin: miter"/>
    </g>
    <g id="line2d_31">
     <path d="M 537.99375 38.538438 
L 547.99375 38.538438 
L 557.99375 38.538438 
" style="fill: none; stroke: #1f77b4; stroke-width: 1.5; stroke-linecap: square"/>
    </g>
    <g id="text_18">
     <!-- Magnitude - meio -->
     <g transform="translate(565.99375 42.038438)scale(0.1 -0.1)">
      <use xlink:href="#DejaVuSans-4d"/>
      <use xlink:href="#DejaVuSans-61" x="86.279297"/>
      <use xlink:href="#DejaVuSans-67" x="147.558594"/>
      <use xlink:href="#DejaVuSans-6e" x="211.035156"/>
      <use xlink:href="#DejaVuSans-69" x="274.414062"/>
      <use xlink:href="#DejaVuSans-74" x="302.197266"/>
      <use xlink:href="#DejaVuSans-75" x="341.40625"/>
      <use xlink:href="#DejaVuSans-64" x="404.785156"/>
      <use xlink:href="#DejaVuSans-65" x="468.261719"/>
      <use xlink:href="#DejaVuSans-20" x="529.785156"/>
      <use xlink:href="#DejaVuSans-2d" x="561.572266"/>
      <use xlink:href="#DejaVuSans-20" x="597.65625"/>
      <use xlink:href="#DejaVuSans-6d" x="629.443359"/>
      <use xlink:href="#DejaVuSans-65" x="726.855469"/>
      <use xlink:href="#DejaVuSans-69" x="788.378906"/>
      <use xlink:href="#DejaVuSans-6f" x="816.162109"/>
     </g>
    </g>
    <g id="line2d_32">
     <path d="M 537.99375 53.216563 
L 547.99375 53.216563 
L 557.99375 53.216563 
" style="fill: none; stroke: #ff7f0e; stroke-width: 1.5; stroke-linecap: square"/>
    </g>
    <g id="text_19">
     <!-- Magnitude recebida - meio -->
     <g transform="translate(565.99375 56.716563)scale(0.1 -0.1)">
      <defs>
       <path id="DejaVuSans-62" d="M 3116 1747 
Q 3116 2381 2855 2742 
Q 2594 3103 2138 3103 
Q 1681 3103 1420 2742 
Q 1159 2381 1159 1747 
Q 1159 1113 1420 752 
Q 1681 391 2138 391 
Q 2594 391 2855 752 
Q 3116 1113 3116 1747 
z
M 1159 2969 
Q 1341 3281 1617 3432 
Q 1894 3584 2278 3584 
Q 2916 3584 3314 3078 
Q 3713 2572 3713 1747 
Q 3713 922 3314 415 
Q 2916 -91 2278 -91 
Q 1894 -91 1617 61 
Q 1341 213 1159 525 
L 1159 0 
L 581 0 
L 581 4863 
L 1159 4863 
L 1159 2969 
z
" transform="scale(0.015625)"/>
      </defs>
      <use xlink:href="#DejaVuSans-4d"/>
      <use xlink:href="#DejaVuSans-61" x="86.279297"/>
      <use xlink:href="#DejaVuSans-67" x="147.558594"/>
      <use xlink:href="#DejaVuSans-6e" x="211.035156"/>
      <use xlink:href="#DejaVuSans-69" x="274.414062"/>
      <use xlink:href="#DejaVuSans-74" x="302.197266"/>
      <use xlink:href="#DejaVuSans-75" x="341.40625"/>
      <use xlink:href="#DejaVuSans-64" x="404.785156"/>
      <use xlink:href="#DejaVuSans-65" x="468.261719"/>
      <use xlink:href="#DejaVuSans-20" x="529.785156"/>
      <use xlink:href="#DejaVuSans-72" x="561.572266"/>
      <use xlink:href="#DejaVuSans-65" x="600.435547"/>
      <use xlink:href="#DejaVuSans-63" x="661.958984"/>
      <use xlink:href="#DejaVuSans-65" x="716.939453"/>
      <use xlink:href="#DejaVuSans-62" x="778.462891"/>
      <use xlink:href="#DejaVuSans-69" x="841.939453"/>
      <use xlink:href="#DejaVuSans-64" x="869.722656"/>
      <use xlink:href="#DejaVuSans-61" x="933.199219"/>
      <use xlink:href="#DejaVuSans-20" x="994.478516"/>
      <use xlink:href="#DejaVuSans-2d" x="1026.265625"/>
      <use xlink:href="#DejaVuSans-20" x="1062.349609"/>
      <use xlink:href="#DejaVuSans-6d" x="1094.136719"/>
      <use xlink:href="#DejaVuSans-65" x="1191.548828"/>
      <use xlink:href="#DejaVuSans-69" x="1253.072266"/>
      <use xlink:href="#DejaVuSans-6f" x="1280.855469"/>
     </g>
    </g>
   </g>
  </g>
 </g>
 <defs>
  <clipPath id="p26d4166c27">
   <rect x="54.2" y="25.44" width="655" height="220.6"/>
  </clipPath>
 </defs>
</svg>
