<?xml version="1.0" encoding="utf-8" standalone="no"?>
<!DOCTYPE svg PUBLIC "-//W3C//DTD SVG 1.1//EN"
  "http://www.w3.org/Graphics/SVG/1.1/DTD/svg11.dtd">
<svg xmlns:xlink="http://www.w3.org/1999/xlink" width="864pt" height="432pt" viewBox="0 0 864 432" xmlns="http://www.w3.org/2000/svg" version="1.1">
 <metadata>
  <rdf:RDF xmlns:dc="http://purl.org/dc/elements/1.1/" xmlns:cc="http://creativecommons.org/ns#" xmlns:rdf="http://www.w3.org/1999/02/22-rdf-syntax-ns#">
   <cc:Work>
    <dc:type rdf:resource="http://purl.org/dc/dcmitype/StillImage"/>
    <dc:date>2025-06-12T10:16:44.022912</dc:date>
    <dc:format>image/svg+xml</dc:format>
    <dc:creator>
     <cc:Agent>
      <dc:title>Matplotlib v3.5.1, https://matplotlib.org/</dc:title>
     </cc:Agent>
    </dc:creator>
   </cc:Work>
  </rdf:RDF>
 </metadata>
 <defs>
  <style type="text/css">*{stroke-linejoin: round; stroke-linecap: butt}</style>
 </defs>
 <g id="figure_1">
  <g id="patch_1">
   <path d="M 0 432 
L 864 432 
L 864 0 
L 0 0 
z
" style="fill: #ffffff"/>
  </g>
  <g id="axes_1">
   <g id="patch_2">
    <path d="M 60.59 390.04 
L 853.2 390.04 
L 853.2 25.44 
L 60.59 25.44 
z
" style="fill: #ffffff"/>
   </g>
   <g id="matplotlib.axis_1">
    <g id="xtick_1">
     <g id="line2d_1">
      <path d="M 96.617727 390.04 
L 96.617727 25.44 
" clip-path="url(#p2acccbbdd8)" style="fill: none; stroke: #b0b0b0; stroke-width: 0.8; stroke-linecap: square"/>
     </g>
     <g id="line2d_2">
      <defs>
       <path id="m0c4f71dfad" d="M 0 0 
L 0 3.5 
" style="stroke: #000000; stroke-width: 0.8"/>
      </defs>
      <g>
       <use xlink:href="#m0c4f71dfad" x="96.617727" y="390.04" style="stroke: #000000; stroke-width: 0.8"/>
      </g>
     </g>
     <g id="text_1">
      <!-- 0 -->
      <g transform="translate(93.436477 404.638438)scale(0.1 -0.1)">
       <defs>
        <path id="DejaVuSans-30" d="M 2034 4250 
Q 1547 4250 1301 3770 
Q 1056 3291 1056 2328 
Q 1056 1369 1301 889 
Q 1547 409 2034 409 
Q 2525 409 2770 889 
Q 3016 1369 3016 2328 
Q 3016 3291 2770 3770 
Q 2525 4250 2034 4250 
z
M 2034 4750 
Q 2819 4750 3233 4129 
Q 3647 3509 3647 2328 
Q 3647 1150 3233 529 
Q 2819 -91 2034 -91 
Q 1250 -91 836 529 
Q 422 1150 422 2328 
Q 422 3509 836 4129 
Q 1250 4750 2034 4750 
z
" transform="scale(0.015625)"/>
       </defs>
       <use xlink:href="#DejaVuSans-30"/>
      </g>
     </g>
    </g>
    <g id="xtick_2">
     <g id="line2d_3">
      <path d="M 243.669675 390.04 
L 243.669675 25.44 
" clip-path="url(#p2acccbbdd8)" style="fill: none; stroke: #b0b0b0; stroke-width: 0.8; stroke-linecap: square"/>
     </g>
     <g id="line2d_4">
      <g>
       <use xlink:href="#m0c4f71dfad" x="243.669675" y="390.04" style="stroke: #000000; stroke-width: 0.8"/>
      </g>
     </g>
     <g id="text_2">
      <!-- 20 -->
      <g transform="translate(237.307175 404.638438)scale(0.1 -0.1)">
       <defs>
        <path id="DejaVuSans-32" d="M 1228 531 
L 3431 531 
L 3431 0 
L 469 0 
L 469 531 
Q 828 903 1448 1529 
Q 2069 2156 2228 2338 
Q 2531 2678 2651 2914 
Q 2772 3150 2772 3378 
Q 2772 3750 2511 3984 
Q 2250 4219 1831 4219 
Q 1534 4219 1204 4116 
Q 875 4013 500 3803 
L 500 4441 
Q 881 4594 1212 4672 
Q 1544 4750 1819 4750 
Q 2544 4750 2975 4387 
Q 3406 4025 3406 3419 
Q 3406 3131 3298 2873 
Q 3191 2616 2906 2266 
Q 2828 2175 2409 1742 
Q 1991 1309 1228 531 
z
" transform="scale(0.015625)"/>
       </defs>
       <use xlink:href="#DejaVuSans-32"/>
       <use xlink:href="#DejaVuSans-30" x="63.623047"/>
      </g>
     </g>
    </g>
    <g id="xtick_3">
     <g id="line2d_5">
      <path d="M 390.721623 390.04 
L 390.721623 25.44 
" clip-path="url(#p2acccbbdd8)" style="fill: none; stroke: #b0b0b0; stroke-width: 0.8; stroke-linecap: square"/>
     </g>
     <g id="line2d_6">
      <g>
       <use xlink:href="#m0c4f71dfad" x="390.721623" y="390.04" style="stroke: #000000; stroke-width: 0.8"/>
      </g>
     </g>
     <g id="text_3">
      <!-- 40 -->
      <g transform="translate(384.359123 404.638438)scale(0.1 -0.1)">
       <defs>
        <path id="DejaVuSans-34" d="M 2419 4116 
L 825 1625 
L 2419 1625 
L 2419 4116 
z
M 2253 4666 
L 3047 4666 
L 3047 1625 
L 3713 1625 
L 3713 1100 
L 3047 1100 
L 3047 0 
L 2419 0 
L 2419 1100 
L 313 1100 
L 313 1709 
L 2253 4666 
z
" transform="scale(0.015625)"/>
       </defs>
       <use xlink:href="#DejaVuSans-34"/>
       <use xlink:href="#DejaVuSans-30" x="63.623047"/>
      </g>
     </g>
    </g>
    <g id="xtick_4">
     <g id="line2d_7">
      <path d="M 537.773571 390.04 
L 537.773571 25.44 
" clip-path="url(#p2acccbbdd8)" style="fill: none; stroke: #b0b0b0; stroke-width: 0.8; stroke-linecap: square"/>
     </g>
     <g id="line2d_8">
      <g>
       <use xlink:href="#m0c4f71dfad" x="537.773571" y="390.04" style="stroke: #000000; stroke-width: 0.8"/>
      </g>
     </g>
     <g id="text_4">
      <!-- 60 -->
      <g transform="translate(531.411071 404.638438)scale(0.1 -0.1)">
       <defs>
        <path id="DejaVuSans-36" d="M 2113 2584 
Q 1688 2584 1439 2293 
Q 1191 2003 1191 1497 
Q 1191 994 1439 701 
Q 1688 409 2113 409 
Q 2538 409 2786 701 
Q 3034 994 3034 1497 
Q 3034 2003 2786 2293 
Q 2538 2584 2113 2584 
z
M 3366 4563 
L 3366 3988 
Q 3128 4100 2886 4159 
Q 2644 4219 2406 4219 
Q 1781 4219 1451 3797 
Q 1122 3375 1075 2522 
Q 1259 2794 1537 2939 
Q 1816 3084 2150 3084 
Q 2853 3084 3261 2657 
Q 3669 2231 3669 1497 
Q 3669 778 3244 343 
Q 2819 -91 2113 -91 
Q 1303 -91 875 529 
Q 447 1150 447 2328 
Q 447 3434 972 4092 
Q 1497 4750 2381 4750 
Q 2619 4750 2861 4703 
Q 3103 4656 3366 4563 
z
" transform="scale(0.015625)"/>
       </defs>
       <use xlink:href="#DejaVuSans-36"/>
       <use xlink:href="#DejaVuSans-30" x="63.623047"/>
      </g>
     </g>
    </g>
    <g id="xtick_5">
     <g id="line2d_9">
      <path d="M 684.825519 390.04 
L 684.825519 25.44 
" clip-path="url(#p2acccbbdd8)" style="fill: none; stroke: #b0b0b0; stroke-width: 0.8; stroke-linecap: square"/>
     </g>
     <g id="line2d_10">
      <g>
       <use xlink:href="#m0c4f71dfad" x="684.825519" y="390.04" style="stroke: #000000; stroke-width: 0.8"/>
      </g>
     </g>
     <g id="text_5">
      <!-- 80 -->
      <g transform="translate(678.463019 404.638438)scale(0.1 -0.1)">
       <defs>
        <path id="DejaVuSans-38" d="M 2034 2216 
Q 1584 2216 1326 1975 
Q 1069 1734 1069 1313 
Q 1069 891 1326 650 
Q 1584 409 2034 409 
Q 2484 409 2743 651 
Q 3003 894 3003 1313 
Q 3003 1734 2745 1975 
Q 2488 2216 2034 2216 
z
M 1403 2484 
Q 997 2584 770 2862 
Q 544 3141 544 3541 
Q 544 4100 942 4425 
Q 1341 4750 2034 4750 
Q 2731 4750 3128 4425 
Q 3525 4100 3525 3541 
Q 3525 3141 3298 2862 
Q 3072 2584 2669 2484 
Q 3125 2378 3379 2068 
Q 3634 1759 3634 1313 
Q 3634 634 3220 271 
Q 2806 -91 2034 -91 
Q 1263 -91 848 271 
Q 434 634 434 1313 
Q 434 1759 690 2068 
Q 947 2378 1403 2484 
z
M 1172 3481 
Q 1172 3119 1398 2916 
Q 1625 2713 2034 2713 
Q 2441 2713 2670 2916 
Q 2900 3119 2900 3481 
Q 2900 3844 2670 4047 
Q 2441 4250 2034 4250 
Q 1625 4250 1398 4047 
Q 1172 3844 1172 3481 
z
" transform="scale(0.015625)"/>
       </defs>
       <use xlink:href="#DejaVuSans-38"/>
       <use xlink:href="#DejaVuSans-30" x="63.623047"/>
      </g>
     </g>
    </g>
    <g id="xtick_6">
     <g id="line2d_11">
      <path d="M 831.877468 390.04 
L 831.877468 25.44 
" clip-path="url(#p2acccbbdd8)" style="fill: none; stroke: #b0b0b0; stroke-width: 0.8; stroke-linecap: square"/>
     </g>
     <g id="line2d_12">
      <g>
       <use xlink:href="#m0c4f71dfad" x="831.877468" y="390.04" style="stroke: #000000; stroke-width: 0.8"/>
      </g>
     </g>
     <g id="text_6">
      <!-- 100 -->
      <g transform="translate(822.333718 404.638438)scale(0.1 -0.1)">
       <defs>
        <path id="DejaVuSans-31" d="M 794 531 
L 1825 531 
L 1825 4091 
L 703 3866 
L 703 4441 
L 1819 4666 
L 2450 4666 
L 2450 531 
L 3481 531 
L 3481 0 
L 794 0 
L 794 531 
z
" transform="scale(0.015625)"/>
       </defs>
       <use xlink:href="#DejaVuSans-31"/>
       <use xlink:href="#DejaVuSans-30" x="63.623047"/>
       <use xlink:href="#DejaVuSans-30" x="127.246094"/>
      </g>
     </g>
    </g>
    <g id="text_7">
     <!-- Window Index -->
     <g transform="translate(421.827812 418.316562)scale(0.1 -0.1)">
      <defs>
       <path id="DejaVuSans-57" d="M 213 4666 
L 850 4666 
L 1831 722 
L 2809 4666 
L 3519 4666 
L 4500 722 
L 5478 4666 
L 6119 4666 
L 4947 0 
L 4153 0 
L 3169 4050 
L 2175 0 
L 1381 0 
L 213 4666 
z
" transform="scale(0.015625)"/>
       <path id="DejaVuSans-69" d="M 603 3500 
L 1178 3500 
L 1178 0 
L 603 0 
L 603 3500 
z
M 603 4863 
L 1178 4863 
L 1178 4134 
L 603 4134 
L 603 4863 
z
" transform="scale(0.015625)"/>
       <path id="DejaVuSans-6e" d="M 3513 2113 
L 3513 0 
L 2938 0 
L 2938 2094 
Q 2938 2591 2744 2837 
Q 2550 3084 2163 3084 
Q 1697 3084 1428 2787 
Q 1159 2491 1159 1978 
L 1159 0 
L 581 0 
L 581 3500 
L 1159 3500 
L 1159 2956 
Q 1366 3272 1645 3428 
Q 1925 3584 2291 3584 
Q 2894 3584 3203 3211 
Q 3513 2838 3513 2113 
z
" transform="scale(0.015625)"/>
       <path id="DejaVuSans-64" d="M 2906 2969 
L 2906 4863 
L 3481 4863 
L 3481 0 
L 2906 0 
L 2906 525 
Q 2725 213 2448 61 
Q 2172 -91 1784 -91 
Q 1150 -91 751 415 
Q 353 922 353 1747 
Q 353 2572 751 3078 
Q 1150 3584 1784 3584 
Q 2172 3584 2448 3432 
Q 2725 3281 2906 2969 
z
M 947 1747 
Q 947 1113 1208 752 
Q 1469 391 1925 391 
Q 2381 391 2643 752 
Q 2906 1113 2906 1747 
Q 2906 2381 2643 2742 
Q 2381 3103 1925 3103 
Q 1469 3103 1208 2742 
Q 947 2381 947 1747 
z
" transform="scale(0.015625)"/>
       <path id="DejaVuSans-6f" d="M 1959 3097 
Q 1497 3097 1228 2736 
Q 959 2375 959 1747 
Q 959 1119 1226 758 
Q 1494 397 1959 397 
Q 2419 397 2687 759 
Q 2956 1122 2956 1747 
Q 2956 2369 2687 2733 
Q 2419 3097 1959 3097 
z
M 1959 3584 
Q 2709 3584 3137 3096 
Q 3566 2609 3566 1747 
Q 3566 888 3137 398 
Q 2709 -91 1959 -91 
Q 1206 -91 779 398 
Q 353 888 353 1747 
Q 353 2609 779 3096 
Q 1206 3584 1959 3584 
z
" transform="scale(0.015625)"/>
       <path id="DejaVuSans-77" d="M 269 3500 
L 844 3500 
L 1563 769 
L 2278 3500 
L 2956 3500 
L 3675 769 
L 4391 3500 
L 4966 3500 
L 4050 0 
L 3372 0 
L 2619 2869 
L 1863 0 
L 1184 0 
L 269 3500 
z
" transform="scale(0.015625)"/>
       <path id="DejaVuSans-20" transform="scale(0.015625)"/>
       <path id="DejaVuSans-49" d="M 628 4666 
L 1259 4666 
L 1259 0 
L 628 0 
L 628 4666 
z
" transform="scale(0.015625)"/>
       <path id="DejaVuSans-65" d="M 3597 1894 
L 3597 1613 
L 953 1613 
Q 991 1019 1311 708 
Q 1631 397 2203 397 
Q 2534 397 2845 478 
Q 3156 559 3463 722 
L 3463 178 
Q 3153 47 2828 -22 
Q 2503 -91 2169 -91 
Q 1331 -91 842 396 
Q 353 884 353 1716 
Q 353 2575 817 3079 
Q 1281 3584 2069 3584 
Q 2775 3584 3186 3129 
Q 3597 2675 3597 1894 
z
M 3022 2063 
Q 3016 2534 2758 2815 
Q 2500 3097 2075 3097 
Q 1594 3097 1305 2825 
Q 1016 2553 972 2059 
L 3022 2063 
z
" transform="scale(0.015625)"/>
       <path id="DejaVuSans-78" d="M 3513 3500 
L 2247 1797 
L 3578 0 
L 2900 0 
L 1881 1375 
L 863 0 
L 184 0 
L 1544 1831 
L 300 3500 
L 978 3500 
L 1906 2253 
L 2834 3500 
L 3513 3500 
z
" transform="scale(0.015625)"/>
      </defs>
      <use xlink:href="#DejaVuSans-57"/>
      <use xlink:href="#DejaVuSans-69" x="96.626953"/>
      <use xlink:href="#DejaVuSans-6e" x="124.410156"/>
      <use xlink:href="#DejaVuSans-64" x="187.789062"/>
      <use xlink:href="#DejaVuSans-6f" x="251.265625"/>
      <use xlink:href="#DejaVuSans-77" x="312.447266"/>
      <use xlink:href="#DejaVuSans-20" x="394.234375"/>
      <use xlink:href="#DejaVuSans-49" x="426.021484"/>
      <use xlink:href="#DejaVuSans-6e" x="455.513672"/>
      <use xlink:href="#DejaVuSans-64" x="518.892578"/>
      <use xlink:href="#DejaVuSans-65" x="582.369141"/>
      <use xlink:href="#DejaVuSans-78" x="642.142578"/>
     </g>
    </g>
   </g>
   <g id="matplotlib.axis_2">
    <g id="ytick_1">
     <g id="line2d_13">
      <path d="M 60.59 354.920934 
L 853.2 354.920934 
" clip-path="url(#p2acccbbdd8)" style="fill: none; stroke: #b0b0b0; stroke-width: 0.8; stroke-linecap: square"/>
     </g>
     <g id="line2d_14">
      <defs>
       <path id="m76f1227ad8" d="M 0 0 
L -3.5 0 
" style="stroke: #000000; stroke-width: 0.8"/>
      </defs>
      <g>
       <use xlink:href="#m76f1227ad8" x="60.59" y="354.920934" style="stroke: #000000; stroke-width: 0.8"/>
      </g>
     </g>
     <g id="text_8">
      <!-- 18.85 -->
      <g transform="translate(24.961875 358.720152)scale(0.1 -0.1)">
       <defs>
        <path id="DejaVuSans-2e" d="M 684 794 
L 1344 794 
L 1344 0 
L 684 0 
L 684 794 
z
" transform="scale(0.015625)"/>
        <path id="DejaVuSans-35" d="M 691 4666 
L 3169 4666 
L 3169 4134 
L 1269 4134 
L 1269 2991 
Q 1406 3038 1543 3061 
Q 1681 3084 1819 3084 
Q 2600 3084 3056 2656 
Q 3513 2228 3513 1497 
Q 3513 744 3044 326 
Q 2575 -91 1722 -91 
Q 1428 -91 1123 -41 
Q 819 9 494 109 
L 494 744 
Q 775 591 1075 516 
Q 1375 441 1709 441 
Q 2250 441 2565 725 
Q 2881 1009 2881 1497 
Q 2881 1984 2565 2268 
Q 2250 2553 1709 2553 
Q 1456 2553 1204 2497 
Q 953 2441 691 2322 
L 691 4666 
z
" transform="scale(0.015625)"/>
       </defs>
       <use xlink:href="#DejaVuSans-31"/>
       <use xlink:href="#DejaVuSans-38" x="63.623047"/>
       <use xlink:href="#DejaVuSans-2e" x="127.246094"/>
       <use xlink:href="#DejaVuSans-38" x="159.033203"/>
       <use xlink:href="#DejaVuSans-35" x="222.65625"/>
      </g>
     </g>
    </g>
    <g id="ytick_2">
     <g id="line2d_15">
      <path d="M 60.59 300.918918 
L 853.2 300.918918 
" clip-path="url(#p2acccbbdd8)" style="fill: none; stroke: #b0b0b0; stroke-width: 0.8; stroke-linecap: square"/>
     </g>
     <g id="line2d_16">
      <g>
       <use xlink:href="#m76f1227ad8" x="60.59" y="300.918918" style="stroke: #000000; stroke-width: 0.8"/>
      </g>
     </g>
     <g id="text_9">
      <!-- 18.90 -->
      <g transform="translate(24.961875 304.718137)scale(0.1 -0.1)">
       <defs>
        <path id="DejaVuSans-39" d="M 703 97 
L 703 672 
Q 941 559 1184 500 
Q 1428 441 1663 441 
Q 2288 441 2617 861 
Q 2947 1281 2994 2138 
Q 2813 1869 2534 1725 
Q 2256 1581 1919 1581 
Q 1219 1581 811 2004 
Q 403 2428 403 3163 
Q 403 3881 828 4315 
Q 1253 4750 1959 4750 
Q 2769 4750 3195 4129 
Q 3622 3509 3622 2328 
Q 3622 1225 3098 567 
Q 2575 -91 1691 -91 
Q 1453 -91 1209 -44 
Q 966 3 703 97 
z
M 1959 2075 
Q 2384 2075 2632 2365 
Q 2881 2656 2881 3163 
Q 2881 3666 2632 3958 
Q 2384 4250 1959 4250 
Q 1534 4250 1286 3958 
Q 1038 3666 1038 3163 
Q 1038 2656 1286 2365 
Q 1534 2075 1959 2075 
z
" transform="scale(0.015625)"/>
       </defs>
       <use xlink:href="#DejaVuSans-31"/>
       <use xlink:href="#DejaVuSans-38" x="63.623047"/>
       <use xlink:href="#DejaVuSans-2e" x="127.246094"/>
       <use xlink:href="#DejaVuSans-39" x="159.033203"/>
       <use xlink:href="#DejaVuSans-30" x="222.65625"/>
      </g>
     </g>
    </g>
    <g id="ytick_3">
     <g id="line2d_17">
      <path d="M 60.59 246.916903 
L 853.2 246.916903 
" clip-path="url(#p2acccbbdd8)" style="fill: none; stroke: #b0b0b0; stroke-width: 0.8; stroke-linecap: square"/>
     </g>
     <g id="line2d_18">
      <g>
       <use xlink:href="#m76f1227ad8" x="60.59" y="246.916903" style="stroke: #000000; stroke-width: 0.8"/>
      </g>
     </g>
     <g id="text_10">
      <!-- 18.95 -->
      <g transform="translate(24.961875 250.716122)scale(0.1 -0.1)">
       <use xlink:href="#DejaVuSans-31"/>
       <use xlink:href="#DejaVuSans-38" x="63.623047"/>
       <use xlink:href="#DejaVuSans-2e" x="127.246094"/>
       <use xlink:href="#DejaVuSans-39" x="159.033203"/>
       <use xlink:href="#DejaVuSans-35" x="222.65625"/>
      </g>
     </g>
    </g>
    <g id="ytick_4">
     <g id="line2d_19">
      <path d="M 60.59 192.914888 
L 853.2 192.914888 
" clip-path="url(#p2acccbbdd8)" style="fill: none; stroke: #b0b0b0; stroke-width: 0.8; stroke-linecap: square"/>
     </g>
     <g id="line2d_20">
      <g>
       <use xlink:href="#m76f1227ad8" x="60.59" y="192.914888" style="stroke: #000000; stroke-width: 0.8"/>
      </g>
     </g>
     <g id="text_11">
      <!-- 19.00 -->
      <g transform="translate(24.961875 196.714107)scale(0.1 -0.1)">
       <use xlink:href="#DejaVuSans-31"/>
       <use xlink:href="#DejaVuSans-39" x="63.623047"/>
       <use xlink:href="#DejaVuSans-2e" x="127.246094"/>
       <use xlink:href="#DejaVuSans-30" x="159.033203"/>
       <use xlink:href="#DejaVuSans-30" x="222.65625"/>
      </g>
     </g>
    </g>
    <g id="ytick_5">
     <g id="line2d_21">
      <path d="M 60.59 138.912873 
L 853.2 138.912873 
" clip-path="url(#p2acccbbdd8)" style="fill: none; stroke: #b0b0b0; stroke-width: 0.8; stroke-linecap: square"/>
     </g>
     <g id="line2d_22">
      <g>
       <use xlink:href="#m76f1227ad8" x="60.59" y="138.912873" style="stroke: #000000; stroke-width: 0.8"/>
      </g>
     </g>
     <g id="text_12">
      <!-- 19.05 -->
      <g transform="translate(24.961875 142.712092)scale(0.1 -0.1)">
       <use xlink:href="#DejaVuSans-31"/>
       <use xlink:href="#DejaVuSans-39" x="63.623047"/>
       <use xlink:href="#DejaVuSans-2e" x="127.246094"/>
       <use xlink:href="#DejaVuSans-30" x="159.033203"/>
       <use xlink:href="#DejaVuSans-35" x="222.65625"/>
      </g>
     </g>
    </g>
    <g id="ytick_6">
     <g id="line2d_23">
      <path d="M 60.59 84.910858 
L 853.2 84.910858 
" clip-path="url(#p2acccbbdd8)" style="fill: none; stroke: #b0b0b0; stroke-width: 0.8; stroke-linecap: square"/>
     </g>
     <g id="line2d_24">
      <g>
       <use xlink:href="#m76f1227ad8" x="60.59" y="84.910858" style="stroke: #000000; stroke-width: 0.8"/>
      </g>
     </g>
     <g id="text_13">
      <!-- 19.10 -->
      <g transform="translate(24.961875 88.710077)scale(0.1 -0.1)">
       <use xlink:href="#DejaVuSans-31"/>
       <use xlink:href="#DejaVuSans-39" x="63.623047"/>
       <use xlink:href="#DejaVuSans-2e" x="127.246094"/>
       <use xlink:href="#DejaVuSans-31" x="159.033203"/>
       <use xlink:href="#DejaVuSans-30" x="222.65625"/>
      </g>
     </g>
    </g>
    <g id="ytick_7">
     <g id="line2d_25">
      <path d="M 60.59 30.908843 
L 853.2 30.908843 
" clip-path="url(#p2acccbbdd8)" style="fill: none; stroke: #b0b0b0; stroke-width: 0.8; stroke-linecap: square"/>
     </g>
     <g id="line2d_26">
      <g>
       <use xlink:href="#m76f1227ad8" x="60.59" y="30.908843" style="stroke: #000000; stroke-width: 0.8"/>
      </g>
     </g>
     <g id="text_14">
      <!-- 19.15 -->
      <g transform="translate(24.961875 34.708062)scale(0.1 -0.1)">
       <use xlink:href="#DejaVuSans-31"/>
       <use xlink:href="#DejaVuSans-39" x="63.623047"/>
       <use xlink:href="#DejaVuSans-2e" x="127.246094"/>
       <use xlink:href="#DejaVuSans-31" x="159.033203"/>
       <use xlink:href="#DejaVuSans-35" x="222.65625"/>
      </g>
     </g>
    </g>
    <g id="text_15">
     <!-- EVM (%) -->
     <g transform="translate(18.882187 228.875156)rotate(-90)scale(0.1 -0.1)">
      <defs>
       <path id="DejaVuSans-45" d="M 628 4666 
L 3578 4666 
L 3578 4134 
L 1259 4134 
L 1259 2753 
L 3481 2753 
L 3481 2222 
L 1259 2222 
L 1259 531 
L 3634 531 
L 3634 0 
L 628 0 
L 628 4666 
z
" transform="scale(0.015625)"/>
       <path id="DejaVuSans-56" d="M 1831 0 
L 50 4666 
L 709 4666 
L 2188 738 
L 3669 4666 
L 4325 4666 
L 2547 0 
L 1831 0 
z
" transform="scale(0.015625)"/>
       <path id="DejaVuSans-4d" d="M 628 4666 
L 1569 4666 
L 2759 1491 
L 3956 4666 
L 4897 4666 
L 4897 0 
L 4281 0 
L 4281 4097 
L 3078 897 
L 2444 897 
L 1241 4097 
L 1241 0 
L 628 0 
L 628 4666 
z
" transform="scale(0.015625)"/>
       <path id="DejaVuSans-28" d="M 1984 4856 
Q 1566 4138 1362 3434 
Q 1159 2731 1159 2009 
Q 1159 1288 1364 580 
Q 1569 -128 1984 -844 
L 1484 -844 
Q 1016 -109 783 600 
Q 550 1309 550 2009 
Q 550 2706 781 3412 
Q 1013 4119 1484 4856 
L 1984 4856 
z
" transform="scale(0.015625)"/>
       <path id="DejaVuSans-25" d="M 4653 2053 
Q 4381 2053 4226 1822 
Q 4072 1591 4072 1178 
Q 4072 772 4226 539 
Q 4381 306 4653 306 
Q 4919 306 5073 539 
Q 5228 772 5228 1178 
Q 5228 1588 5073 1820 
Q 4919 2053 4653 2053 
z
M 4653 2450 
Q 5147 2450 5437 2106 
Q 5728 1763 5728 1178 
Q 5728 594 5436 251 
Q 5144 -91 4653 -91 
Q 4153 -91 3862 251 
Q 3572 594 3572 1178 
Q 3572 1766 3864 2108 
Q 4156 2450 4653 2450 
z
M 1428 4353 
Q 1159 4353 1004 4120 
Q 850 3888 850 3481 
Q 850 3069 1003 2837 
Q 1156 2606 1428 2606 
Q 1700 2606 1854 2837 
Q 2009 3069 2009 3481 
Q 2009 3884 1853 4118 
Q 1697 4353 1428 4353 
z
M 4250 4750 
L 4750 4750 
L 1831 -91 
L 1331 -91 
L 4250 4750 
z
M 1428 4750 
Q 1922 4750 2215 4408 
Q 2509 4066 2509 3481 
Q 2509 2891 2217 2550 
Q 1925 2209 1428 2209 
Q 931 2209 642 2551 
Q 353 2894 353 3481 
Q 353 4063 643 4406 
Q 934 4750 1428 4750 
z
" transform="scale(0.015625)"/>
       <path id="DejaVuSans-29" d="M 513 4856 
L 1013 4856 
Q 1481 4119 1714 3412 
Q 1947 2706 1947 2009 
Q 1947 1309 1714 600 
Q 1481 -109 1013 -844 
L 513 -844 
Q 928 -128 1133 580 
Q 1338 1288 1338 2009 
Q 1338 2731 1133 3434 
Q 928 4138 513 4856 
z
" transform="scale(0.015625)"/>
      </defs>
      <use xlink:href="#DejaVuSans-45"/>
      <use xlink:href="#DejaVuSans-56" x="63.183594"/>
      <use xlink:href="#DejaVuSans-4d" x="131.591797"/>
      <use xlink:href="#DejaVuSans-20" x="217.871094"/>
      <use xlink:href="#DejaVuSans-28" x="249.658203"/>
      <use xlink:href="#DejaVuSans-25" x="288.671875"/>
      <use xlink:href="#DejaVuSans-29" x="383.691406"/>
     </g>
    </g>
   </g>
   <g id="line2d_27">
    <path d="M 96.617727 244.943359 
L 103.970325 278.756548 
L 111.322922 274.280847 
L 118.675519 280.311214 
L 126.028117 241.512149 
L 133.380714 367.92294 
L 140.733312 317.949912 
L 148.085909 278.215794 
L 155.438506 328.750498 
L 162.791104 290.562999 
L 170.143701 263.282306 
L 177.496299 196.219214 
L 184.848896 286.639318 
L 192.201494 204.602503 
L 199.554091 216.085468 
L 206.906688 200.352116 
L 214.259286 246.679886 
L 221.611883 373.467273 
L 228.964481 207.930712 
L 236.317078 278.977033 
L 243.669675 192.952162 
L 251.022273 225.043308 
L 258.37487 302.981018 
L 265.727468 274.218081 
L 273.080065 259.809253 
L 280.432662 213.006714 
L 287.78526 346.642036 
L 295.137857 166.123706 
L 302.490455 278.505483 
L 309.843052 182.972362 
L 317.195649 285.549764 
L 324.548247 189.413123 
L 331.900844 136.041073 
L 339.253442 273.271762 
L 346.606039 316.552965 
L 353.958636 116.345414 
L 361.311234 298.52141 
L 368.663831 271.688127 
L 376.016429 257.517488 
L 383.369026 193.343242 
L 390.721623 235.211405 
L 398.074221 236.2736 
L 405.426818 239.899545 
L 412.779416 210.515385 
L 420.132013 163.62433 
L 427.48461 179.869467 
L 434.837208 244.917609 
L 442.189805 232.718467 
L 449.542403 119.108728 
L 456.895 164.887698 
L 464.247597 230.259326 
L 471.600195 242.32167 
L 478.952792 278.894955 
L 486.30539 189.834782 
L 493.657987 209.87485 
L 501.010584 182.980409 
L 508.363182 188.461976 
L 515.715779 168.468581 
L 523.068377 153.100559 
L 530.420974 135.896228 
L 537.773571 139.840832 
L 545.126169 194.872159 
L 552.478766 65.343988 
L 559.831364 189.353576 
L 567.183961 244.05015 
L 574.536558 192.559472 
L 581.889156 63.631602 
L 589.241753 176.521945 
L 596.594351 42.012727 
L 603.946948 133.155445 
L 611.299545 42.138259 
L 618.652143 145.549322 
L 626.00474 209.462847 
L 633.357338 104.843136 
L 640.709935 173.959804 
L 648.062532 194.481078 
L 655.41513 132.849662 
L 662.767727 159.008613 
L 670.120325 215.673466 
L 677.472922 170.922893 
L 684.825519 107.957297 
L 692.178117 181.989028 
L 699.530714 168.792067 
L 706.883312 84.255877 
L 714.235909 93.299014 
L 721.588506 115.101359 
L 728.941104 162.753653 
L 736.293701 112.220559 
L 743.646299 52.956548 
L 750.998896 143.762904 
L 758.351494 190.196894 
L 765.704091 147.51921 
L 773.056688 136.332372 
L 780.409286 165.452592 
L 787.761883 116.137803 
L 795.114481 83.211386 
L 802.467078 142.683007 
L 809.819675 234.38579 
L 817.172273 93.381092 
" clip-path="url(#p2acccbbdd8)" style="fill: none; stroke: #1f77b4; stroke-width: 1.5; stroke-linecap: square"/>
    <defs>
     <path id="m9772893081" d="M 0 3 
C 0.795609 3 1.55874 2.683901 2.12132 2.12132 
C 2.683901 1.55874 3 0.795609 3 0 
C 3 -0.795609 2.683901 -1.55874 2.12132 -2.12132 
C 1.55874 -2.683901 0.795609 -3 0 -3 
C -0.795609 -3 -1.55874 -2.683901 -2.12132 -2.12132 
C -2.683901 -1.55874 -3 -0.795609 -3 0 
C -3 0.795609 -2.683901 1.55874 -2.12132 2.12132 
C -1.55874 2.683901 -0.795609 3 0 3 
z
" style="stroke: #1f77b4"/>
    </defs>
    <g clip-path="url(#p2acccbbdd8)">
     <use xlink:href="#m9772893081" x="96.617727" y="244.943359" style="fill: #1f77b4; stroke: #1f77b4"/>
     <use xlink:href="#m9772893081" x="103.970325" y="278.756548" style="fill: #1f77b4; stroke: #1f77b4"/>
     <use xlink:href="#m9772893081" x="111.322922" y="274.280847" style="fill: #1f77b4; stroke: #1f77b4"/>
     <use xlink:href="#m9772893081" x="118.675519" y="280.311214" style="fill: #1f77b4; stroke: #1f77b4"/>
     <use xlink:href="#m9772893081" x="126.028117" y="241.512149" style="fill: #1f77b4; stroke: #1f77b4"/>
     <use xlink:href="#m9772893081" x="133.380714" y="367.92294" style="fill: #1f77b4; stroke: #1f77b4"/>
     <use xlink:href="#m9772893081" x="140.733312" y="317.949912" style="fill: #1f77b4; stroke: #1f77b4"/>
     <use xlink:href="#m9772893081" x="148.085909" y="278.215794" style="fill: #1f77b4; stroke: #1f77b4"/>
     <use xlink:href="#m9772893081" x="155.438506" y="328.750498" style="fill: #1f77b4; stroke: #1f77b4"/>
     <use xlink:href="#m9772893081" x="162.791104" y="290.562999" style="fill: #1f77b4; stroke: #1f77b4"/>
     <use xlink:href="#m9772893081" x="170.143701" y="263.282306" style="fill: #1f77b4; stroke: #1f77b4"/>
     <use xlink:href="#m9772893081" x="177.496299" y="196.219214" style="fill: #1f77b4; stroke: #1f77b4"/>
     <use xlink:href="#m9772893081" x="184.848896" y="286.639318" style="fill: #1f77b4; stroke: #1f77b4"/>
     <use xlink:href="#m9772893081" x="192.201494" y="204.602503" style="fill: #1f77b4; stroke: #1f77b4"/>
     <use xlink:href="#m9772893081" x="199.554091" y="216.085468" style="fill: #1f77b4; stroke: #1f77b4"/>
     <use xlink:href="#m9772893081" x="206.906688" y="200.352116" style="fill: #1f77b4; stroke: #1f77b4"/>
     <use xlink:href="#m9772893081" x="214.259286" y="246.679886" style="fill: #1f77b4; stroke: #1f77b4"/>
     <use xlink:href="#m9772893081" x="221.611883" y="373.467273" style="fill: #1f77b4; stroke: #1f77b4"/>
     <use xlink:href="#m9772893081" x="228.964481" y="207.930712" style="fill: #1f77b4; stroke: #1f77b4"/>
     <use xlink:href="#m9772893081" x="236.317078" y="278.977033" style="fill: #1f77b4; stroke: #1f77b4"/>
     <use xlink:href="#m9772893081" x="243.669675" y="192.952162" style="fill: #1f77b4; stroke: #1f77b4"/>
     <use xlink:href="#m9772893081" x="251.022273" y="225.043308" style="fill: #1f77b4; stroke: #1f77b4"/>
     <use xlink:href="#m9772893081" x="258.37487" y="302.981018" style="fill: #1f77b4; stroke: #1f77b4"/>
     <use xlink:href="#m9772893081" x="265.727468" y="274.218081" style="fill: #1f77b4; stroke: #1f77b4"/>
     <use xlink:href="#m9772893081" x="273.080065" y="259.809253" style="fill: #1f77b4; stroke: #1f77b4"/>
     <use xlink:href="#m9772893081" x="280.432662" y="213.006714" style="fill: #1f77b4; stroke: #1f77b4"/>
     <use xlink:href="#m9772893081" x="287.78526" y="346.642036" style="fill: #1f77b4; stroke: #1f77b4"/>
     <use xlink:href="#m9772893081" x="295.137857" y="166.123706" style="fill: #1f77b4; stroke: #1f77b4"/>
     <use xlink:href="#m9772893081" x="302.490455" y="278.505483" style="fill: #1f77b4; stroke: #1f77b4"/>
     <use xlink:href="#m9772893081" x="309.843052" y="182.972362" style="fill: #1f77b4; stroke: #1f77b4"/>
     <use xlink:href="#m9772893081" x="317.195649" y="285.549764" style="fill: #1f77b4; stroke: #1f77b4"/>
     <use xlink:href="#m9772893081" x="324.548247" y="189.413123" style="fill: #1f77b4; stroke: #1f77b4"/>
     <use xlink:href="#m9772893081" x="331.900844" y="136.041073" style="fill: #1f77b4; stroke: #1f77b4"/>
     <use xlink:href="#m9772893081" x="339.253442" y="273.271762" style="fill: #1f77b4; stroke: #1f77b4"/>
     <use xlink:href="#m9772893081" x="346.606039" y="316.552965" style="fill: #1f77b4; stroke: #1f77b4"/>
     <use xlink:href="#m9772893081" x="353.958636" y="116.345414" style="fill: #1f77b4; stroke: #1f77b4"/>
     <use xlink:href="#m9772893081" x="361.311234" y="298.52141" style="fill: #1f77b4; stroke: #1f77b4"/>
     <use xlink:href="#m9772893081" x="368.663831" y="271.688127" style="fill: #1f77b4; stroke: #1f77b4"/>
     <use xlink:href="#m9772893081" x="376.016429" y="257.517488" style="fill: #1f77b4; stroke: #1f77b4"/>
     <use xlink:href="#m9772893081" x="383.369026" y="193.343242" style="fill: #1f77b4; stroke: #1f77b4"/>
     <use xlink:href="#m9772893081" x="390.721623" y="235.211405" style="fill: #1f77b4; stroke: #1f77b4"/>
     <use xlink:href="#m9772893081" x="398.074221" y="236.2736" style="fill: #1f77b4; stroke: #1f77b4"/>
     <use xlink:href="#m9772893081" x="405.426818" y="239.899545" style="fill: #1f77b4; stroke: #1f77b4"/>
     <use xlink:href="#m9772893081" x="412.779416" y="210.515385" style="fill: #1f77b4; stroke: #1f77b4"/>
     <use xlink:href="#m9772893081" x="420.132013" y="163.62433" style="fill: #1f77b4; stroke: #1f77b4"/>
     <use xlink:href="#m9772893081" x="427.48461" y="179.869467" style="fill: #1f77b4; stroke: #1f77b4"/>
     <use xlink:href="#m9772893081" x="434.837208" y="244.917609" style="fill: #1f77b4; stroke: #1f77b4"/>
     <use xlink:href="#m9772893081" x="442.189805" y="232.718467" style="fill: #1f77b4; stroke: #1f77b4"/>
     <use xlink:href="#m9772893081" x="449.542403" y="119.108728" style="fill: #1f77b4; stroke: #1f77b4"/>
     <use xlink:href="#m9772893081" x="456.895" y="164.887698" style="fill: #1f77b4; stroke: #1f77b4"/>
     <use xlink:href="#m9772893081" x="464.247597" y="230.259326" style="fill: #1f77b4; stroke: #1f77b4"/>
     <use xlink:href="#m9772893081" x="471.600195" y="242.32167" style="fill: #1f77b4; stroke: #1f77b4"/>
     <use xlink:href="#m9772893081" x="478.952792" y="278.894955" style="fill: #1f77b4; stroke: #1f77b4"/>
     <use xlink:href="#m9772893081" x="486.30539" y="189.834782" style="fill: #1f77b4; stroke: #1f77b4"/>
     <use xlink:href="#m9772893081" x="493.657987" y="209.87485" style="fill: #1f77b4; stroke: #1f77b4"/>
     <use xlink:href="#m9772893081" x="501.010584" y="182.980409" style="fill: #1f77b4; stroke: #1f77b4"/>
     <use xlink:href="#m9772893081" x="508.363182" y="188.461976" style="fill: #1f77b4; stroke: #1f77b4"/>
     <use xlink:href="#m9772893081" x="515.715779" y="168.468581" style="fill: #1f77b4; stroke: #1f77b4"/>
     <use xlink:href="#m9772893081" x="523.068377" y="153.100559" style="fill: #1f77b4; stroke: #1f77b4"/>
     <use xlink:href="#m9772893081" x="530.420974" y="135.896228" style="fill: #1f77b4; stroke: #1f77b4"/>
     <use xlink:href="#m9772893081" x="537.773571" y="139.840832" style="fill: #1f77b4; stroke: #1f77b4"/>
     <use xlink:href="#m9772893081" x="545.126169" y="194.872159" style="fill: #1f77b4; stroke: #1f77b4"/>
     <use xlink:href="#m9772893081" x="552.478766" y="65.343988" style="fill: #1f77b4; stroke: #1f77b4"/>
     <use xlink:href="#m9772893081" x="559.831364" y="189.353576" style="fill: #1f77b4; stroke: #1f77b4"/>
     <use xlink:href="#m9772893081" x="567.183961" y="244.05015" style="fill: #1f77b4; stroke: #1f77b4"/>
     <use xlink:href="#m9772893081" x="574.536558" y="192.559472" style="fill: #1f77b4; stroke: #1f77b4"/>
     <use xlink:href="#m9772893081" x="581.889156" y="63.631602" style="fill: #1f77b4; stroke: #1f77b4"/>
     <use xlink:href="#m9772893081" x="589.241753" y="176.521945" style="fill: #1f77b4; stroke: #1f77b4"/>
     <use xlink:href="#m9772893081" x="596.594351" y="42.012727" style="fill: #1f77b4; stroke: #1f77b4"/>
     <use xlink:href="#m9772893081" x="603.946948" y="133.155445" style="fill: #1f77b4; stroke: #1f77b4"/>
     <use xlink:href="#m9772893081" x="611.299545" y="42.138259" style="fill: #1f77b4; stroke: #1f77b4"/>
     <use xlink:href="#m9772893081" x="618.652143" y="145.549322" style="fill: #1f77b4; stroke: #1f77b4"/>
     <use xlink:href="#m9772893081" x="626.00474" y="209.462847" style="fill: #1f77b4; stroke: #1f77b4"/>
     <use xlink:href="#m9772893081" x="633.357338" y="104.843136" style="fill: #1f77b4; stroke: #1f77b4"/>
     <use xlink:href="#m9772893081" x="640.709935" y="173.959804" style="fill: #1f77b4; stroke: #1f77b4"/>
     <use xlink:href="#m9772893081" x="648.062532" y="194.481078" style="fill: #1f77b4; stroke: #1f77b4"/>
     <use xlink:href="#m9772893081" x="655.41513" y="132.849662" style="fill: #1f77b4; stroke: #1f77b4"/>
     <use xlink:href="#m9772893081" x="662.767727" y="159.008613" style="fill: #1f77b4; stroke: #1f77b4"/>
     <use xlink:href="#m9772893081" x="670.120325" y="215.673466" style="fill: #1f77b4; stroke: #1f77b4"/>
     <use xlink:href="#m9772893081" x="677.472922" y="170.922893" style="fill: #1f77b4; stroke: #1f77b4"/>
     <use xlink:href="#m9772893081" x="684.825519" y="107.957297" style="fill: #1f77b4; stroke: #1f77b4"/>
     <use xlink:href="#m9772893081" x="692.178117" y="181.989028" style="fill: #1f77b4; stroke: #1f77b4"/>
     <use xlink:href="#m9772893081" x="699.530714" y="168.792067" style="fill: #1f77b4; stroke: #1f77b4"/>
     <use xlink:href="#m9772893081" x="706.883312" y="84.255877" style="fill: #1f77b4; stroke: #1f77b4"/>
     <use xlink:href="#m9772893081" x="714.235909" y="93.299014" style="fill: #1f77b4; stroke: #1f77b4"/>
     <use xlink:href="#m9772893081" x="721.588506" y="115.101359" style="fill: #1f77b4; stroke: #1f77b4"/>
     <use xlink:href="#m9772893081" x="728.941104" y="162.753653" style="fill: #1f77b4; stroke: #1f77b4"/>
     <use xlink:href="#m9772893081" x="736.293701" y="112.220559" style="fill: #1f77b4; stroke: #1f77b4"/>
     <use xlink:href="#m9772893081" x="743.646299" y="52.956548" style="fill: #1f77b4; stroke: #1f77b4"/>
     <use xlink:href="#m9772893081" x="750.998896" y="143.762904" style="fill: #1f77b4; stroke: #1f77b4"/>
     <use xlink:href="#m9772893081" x="758.351494" y="190.196894" style="fill: #1f77b4; stroke: #1f77b4"/>
     <use xlink:href="#m9772893081" x="765.704091" y="147.51921" style="fill: #1f77b4; stroke: #1f77b4"/>
     <use xlink:href="#m9772893081" x="773.056688" y="136.332372" style="fill: #1f77b4; stroke: #1f77b4"/>
     <use xlink:href="#m9772893081" x="780.409286" y="165.452592" style="fill: #1f77b4; stroke: #1f77b4"/>
     <use xlink:href="#m9772893081" x="787.761883" y="116.137803" style="fill: #1f77b4; stroke: #1f77b4"/>
     <use xlink:href="#m9772893081" x="795.114481" y="83.211386" style="fill: #1f77b4; stroke: #1f77b4"/>
     <use xlink:href="#m9772893081" x="802.467078" y="142.683007" style="fill: #1f77b4; stroke: #1f77b4"/>
     <use xlink:href="#m9772893081" x="809.819675" y="234.38579" style="fill: #1f77b4; stroke: #1f77b4"/>
     <use xlink:href="#m9772893081" x="817.172273" y="93.381092" style="fill: #1f77b4; stroke: #1f77b4"/>
    </g>
   </g>
   <g id="line2d_28">
    <path d="M 60.59 139.831176 
L 853.2 139.831176 
" clip-path="url(#p2acccbbdd8)" style="fill: none; stroke-dasharray: 5.55,2.4; stroke-dashoffset: 0; stroke: #ff0000; stroke-width: 1.5"/>
   </g>
   <g id="patch_3">
    <path d="M 60.59 390.04 
L 60.59 25.44 
" style="fill: none; stroke: #000000; stroke-width: 0.8; stroke-linejoin: miter; stroke-linecap: square"/>
   </g>
   <g id="patch_4">
    <path d="M 853.2 390.04 
L 853.2 25.44 
" style="fill: none; stroke: #000000; stroke-width: 0.8; stroke-linejoin: miter; stroke-linecap: square"/>
   </g>
   <g id="patch_5">
    <path d="M 60.59 390.04 
L 853.2 390.04 
" style="fill: none; stroke: #000000; stroke-width: 0.8; stroke-linejoin: miter; stroke-linecap: square"/>
   </g>
   <g id="patch_6">
    <path d="M 60.59 25.44 
L 853.2 25.44 
" style="fill: none; stroke: #000000; stroke-width: 0.8; stroke-linejoin: miter; stroke-linecap: square"/>
   </g>
   <g id="text_16">
    <!-- EVM over Windows (Window Size: 45000) - Dataset -->
    <g transform="translate(302.891875 19.44)scale(0.12 -0.12)">
     <defs>
      <path id="DejaVuSans-76" d="M 191 3500 
L 800 3500 
L 1894 563 
L 2988 3500 
L 3597 3500 
L 2284 0 
L 1503 0 
L 191 3500 
z
" transform="scale(0.015625)"/>
      <path id="DejaVuSans-72" d="M 2631 2963 
Q 2534 3019 2420 3045 
Q 2306 3072 2169 3072 
Q 1681 3072 1420 2755 
Q 1159 2438 1159 1844 
L 1159 0 
L 581 0 
L 581 3500 
L 1159 3500 
L 1159 2956 
Q 1341 3275 1631 3429 
Q 1922 3584 2338 3584 
Q 2397 3584 2469 3576 
Q 2541 3569 2628 3553 
L 2631 2963 
z
" transform="scale(0.015625)"/>
      <path id="DejaVuSans-73" d="M 2834 3397 
L 2834 2853 
Q 2591 2978 2328 3040 
Q 2066 3103 1784 3103 
Q 1356 3103 1142 2972 
Q 928 2841 928 2578 
Q 928 2378 1081 2264 
Q 1234 2150 1697 2047 
L 1894 2003 
Q 2506 1872 2764 1633 
Q 3022 1394 3022 966 
Q 3022 478 2636 193 
Q 2250 -91 1575 -91 
Q 1294 -91 989 -36 
Q 684 19 347 128 
L 347 722 
Q 666 556 975 473 
Q 1284 391 1588 391 
Q 1994 391 2212 530 
Q 2431 669 2431 922 
Q 2431 1156 2273 1281 
Q 2116 1406 1581 1522 
L 1381 1569 
Q 847 1681 609 1914 
Q 372 2147 372 2553 
Q 372 3047 722 3315 
Q 1072 3584 1716 3584 
Q 2034 3584 2315 3537 
Q 2597 3491 2834 3397 
z
" transform="scale(0.015625)"/>
      <path id="DejaVuSans-53" d="M 3425 4513 
L 3425 3897 
Q 3066 4069 2747 4153 
Q 2428 4238 2131 4238 
Q 1616 4238 1336 4038 
Q 1056 3838 1056 3469 
Q 1056 3159 1242 3001 
Q 1428 2844 1947 2747 
L 2328 2669 
Q 3034 2534 3370 2195 
Q 3706 1856 3706 1288 
Q 3706 609 3251 259 
Q 2797 -91 1919 -91 
Q 1588 -91 1214 -16 
Q 841 59 441 206 
L 441 856 
Q 825 641 1194 531 
Q 1563 422 1919 422 
Q 2459 422 2753 634 
Q 3047 847 3047 1241 
Q 3047 1584 2836 1778 
Q 2625 1972 2144 2069 
L 1759 2144 
Q 1053 2284 737 2584 
Q 422 2884 422 3419 
Q 422 4038 858 4394 
Q 1294 4750 2059 4750 
Q 2388 4750 2728 4690 
Q 3069 4631 3425 4513 
z
" transform="scale(0.015625)"/>
      <path id="DejaVuSans-7a" d="M 353 3500 
L 3084 3500 
L 3084 2975 
L 922 459 
L 3084 459 
L 3084 0 
L 275 0 
L 275 525 
L 2438 3041 
L 353 3041 
L 353 3500 
z
" transform="scale(0.015625)"/>
      <path id="DejaVuSans-3a" d="M 750 794 
L 1409 794 
L 1409 0 
L 750 0 
L 750 794 
z
M 750 3309 
L 1409 3309 
L 1409 2516 
L 750 2516 
L 750 3309 
z
" transform="scale(0.015625)"/>
      <path id="DejaVuSans-2d" d="M 313 2009 
L 1997 2009 
L 1997 1497 
L 313 1497 
L 313 2009 
z
" transform="scale(0.015625)"/>
      <path id="DejaVuSans-44" d="M 1259 4147 
L 1259 519 
L 2022 519 
Q 2988 519 3436 956 
Q 3884 1394 3884 2338 
Q 3884 3275 3436 3711 
Q 2988 4147 2022 4147 
L 1259 4147 
z
M 628 4666 
L 1925 4666 
Q 3281 4666 3915 4102 
Q 4550 3538 4550 2338 
Q 4550 1131 3912 565 
Q 3275 0 1925 0 
L 628 0 
L 628 4666 
z
" transform="scale(0.015625)"/>
      <path id="DejaVuSans-61" d="M 2194 1759 
Q 1497 1759 1228 1600 
Q 959 1441 959 1056 
Q 959 750 1161 570 
Q 1363 391 1709 391 
Q 2188 391 2477 730 
Q 2766 1069 2766 1631 
L 2766 1759 
L 2194 1759 
z
M 3341 1997 
L 3341 0 
L 2766 0 
L 2766 531 
Q 2569 213 2275 61 
Q 1981 -91 1556 -91 
Q 1019 -91 701 211 
Q 384 513 384 1019 
Q 384 1609 779 1909 
Q 1175 2209 1959 2209 
L 2766 2209 
L 2766 2266 
Q 2766 2663 2505 2880 
Q 2244 3097 1772 3097 
Q 1472 3097 1187 3025 
Q 903 2953 641 2809 
L 641 3341 
Q 956 3463 1253 3523 
Q 1550 3584 1831 3584 
Q 2591 3584 2966 3190 
Q 3341 2797 3341 1997 
z
" transform="scale(0.015625)"/>
      <path id="DejaVuSans-74" d="M 1172 4494 
L 1172 3500 
L 2356 3500 
L 2356 3053 
L 1172 3053 
L 1172 1153 
Q 1172 725 1289 603 
Q 1406 481 1766 481 
L 2356 481 
L 2356 0 
L 1766 0 
Q 1100 0 847 248 
Q 594 497 594 1153 
L 594 3053 
L 172 3053 
L 172 3500 
L 594 3500 
L 594 4494 
L 1172 4494 
z
" transform="scale(0.015625)"/>
     </defs>
     <use xlink:href="#DejaVuSans-45"/>
     <use xlink:href="#DejaVuSans-56" x="63.183594"/>
     <use xlink:href="#DejaVuSans-4d" x="131.591797"/>
     <use xlink:href="#DejaVuSans-20" x="217.871094"/>
     <use xlink:href="#DejaVuSans-6f" x="249.658203"/>
     <use xlink:href="#DejaVuSans-76" x="310.839844"/>
     <use xlink:href="#DejaVuSans-65" x="370.019531"/>
     <use xlink:href="#DejaVuSans-72" x="431.542969"/>
     <use xlink:href="#DejaVuSans-20" x="472.65625"/>
     <use xlink:href="#DejaVuSans-57" x="504.443359"/>
     <use xlink:href="#DejaVuSans-69" x="601.070312"/>
     <use xlink:href="#DejaVuSans-6e" x="628.853516"/>
     <use xlink:href="#DejaVuSans-64" x="692.232422"/>
     <use xlink:href="#DejaVuSans-6f" x="755.708984"/>
     <use xlink:href="#DejaVuSans-77" x="816.890625"/>
     <use xlink:href="#DejaVuSans-73" x="898.677734"/>
     <use xlink:href="#DejaVuSans-20" x="950.777344"/>
     <use xlink:href="#DejaVuSans-28" x="982.564453"/>
     <use xlink:href="#DejaVuSans-57" x="1021.578125"/>
     <use xlink:href="#DejaVuSans-69" x="1118.205078"/>
     <use xlink:href="#DejaVuSans-6e" x="1145.988281"/>
     <use xlink:href="#DejaVuSans-64" x="1209.367188"/>
     <use xlink:href="#DejaVuSans-6f" x="1272.84375"/>
     <use xlink:href="#DejaVuSans-77" x="1334.025391"/>
     <use xlink:href="#DejaVuSans-20" x="1415.8125"/>
     <use xlink:href="#DejaVuSans-53" x="1447.599609"/>
     <use xlink:href="#DejaVuSans-69" x="1511.076172"/>
     <use xlink:href="#DejaVuSans-7a" x="1538.859375"/>
     <use xlink:href="#DejaVuSans-65" x="1591.349609"/>
     <use xlink:href="#DejaVuSans-3a" x="1652.873047"/>
     <use xlink:href="#DejaVuSans-20" x="1686.564453"/>
     <use xlink:href="#DejaVuSans-34" x="1718.351562"/>
     <use xlink:href="#DejaVuSans-35" x="1781.974609"/>
     <use xlink:href="#DejaVuSans-30" x="1845.597656"/>
     <use xlink:href="#DejaVuSans-30" x="1909.220703"/>
     <use xlink:href="#DejaVuSans-30" x="1972.84375"/>
     <use xlink:href="#DejaVuSans-29" x="2036.466797"/>
     <use xlink:href="#DejaVuSans-20" x="2075.480469"/>
     <use xlink:href="#DejaVuSans-2d" x="2107.267578"/>
     <use xlink:href="#DejaVuSans-20" x="2143.351562"/>
     <use xlink:href="#DejaVuSans-44" x="2175.138672"/>
     <use xlink:href="#DejaVuSans-61" x="2252.140625"/>
     <use xlink:href="#DejaVuSans-74" x="2313.419922"/>
     <use xlink:href="#DejaVuSans-61" x="2352.628906"/>
     <use xlink:href="#DejaVuSans-73" x="2413.908203"/>
     <use xlink:href="#DejaVuSans-65" x="2466.007812"/>
     <use xlink:href="#DejaVuSans-74" x="2527.53125"/>
    </g>
   </g>
   <g id="legend_1">
    <g id="patch_7">
     <path d="M 732.307813 62.79625 
L 846.2 62.79625 
Q 848.2 62.79625 848.2 60.79625 
L 848.2 32.44 
Q 848.2 30.44 846.2 30.44 
L 732.307813 30.44 
Q 730.307813 30.44 730.307813 32.44 
L 730.307813 60.79625 
Q 730.307813 62.79625 732.307813 62.79625 
z
" style="fill: #ffffff; opacity: 0.8; stroke: #cccccc; stroke-linejoin: miter"/>
    </g>
    <g id="line2d_29">
     <path d="M 734.307813 38.538437 
L 744.307813 38.538437 
L 754.307813 38.538437 
" style="fill: none; stroke: #1f77b4; stroke-width: 1.5; stroke-linecap: square"/>
     <g>
      <use xlink:href="#m9772893081" x="744.307813" y="38.538437" style="fill: #1f77b4; stroke: #1f77b4"/>
     </g>
    </g>
    <g id="text_17">
     <!-- EVM in Windows -->
     <g transform="translate(762.307813 42.038437)scale(0.1 -0.1)">
      <use xlink:href="#DejaVuSans-45"/>
      <use xlink:href="#DejaVuSans-56" x="63.183594"/>
      <use xlink:href="#DejaVuSans-4d" x="131.591797"/>
      <use xlink:href="#DejaVuSans-20" x="217.871094"/>
      <use xlink:href="#DejaVuSans-69" x="249.658203"/>
      <use xlink:href="#DejaVuSans-6e" x="277.441406"/>
      <use xlink:href="#DejaVuSans-20" x="340.820312"/>
      <use xlink:href="#DejaVuSans-57" x="372.607422"/>
      <use xlink:href="#DejaVuSans-69" x="469.234375"/>
      <use xlink:href="#DejaVuSans-6e" x="497.017578"/>
      <use xlink:href="#DejaVuSans-64" x="560.396484"/>
      <use xlink:href="#DejaVuSans-6f" x="623.873047"/>
      <use xlink:href="#DejaVuSans-77" x="685.054688"/>
      <use xlink:href="#DejaVuSans-73" x="766.841797"/>
     </g>
    </g>
    <g id="line2d_30">
     <path d="M 734.307813 53.216563 
L 744.307813 53.216563 
L 754.307813 53.216563 
" style="fill: none; stroke-dasharray: 5.55,2.4; stroke-dashoffset: 0; stroke: #ff0000; stroke-width: 1.5"/>
    </g>
    <g id="text_18">
     <!-- Total EVM -->
     <g transform="translate(762.307813 56.716563)scale(0.1 -0.1)">
      <defs>
       <path id="DejaVuSans-54" d="M -19 4666 
L 3928 4666 
L 3928 4134 
L 2272 4134 
L 2272 0 
L 1638 0 
L 1638 4134 
L -19 4134 
L -19 4666 
z
" transform="scale(0.015625)"/>
       <path id="DejaVuSans-6c" d="M 603 4863 
L 1178 4863 
L 1178 0 
L 603 0 
L 603 4863 
z
" transform="scale(0.015625)"/>
      </defs>
      <use xlink:href="#DejaVuSans-54"/>
      <use xlink:href="#DejaVuSans-6f" x="44.083984"/>
      <use xlink:href="#DejaVuSans-74" x="105.265625"/>
      <use xlink:href="#DejaVuSans-61" x="144.474609"/>
      <use xlink:href="#DejaVuSans-6c" x="205.753906"/>
      <use xlink:href="#DejaVuSans-20" x="233.537109"/>
      <use xlink:href="#DejaVuSans-45" x="265.324219"/>
      <use xlink:href="#DejaVuSans-56" x="328.507812"/>
      <use xlink:href="#DejaVuSans-4d" x="396.916016"/>
     </g>
    </g>
   </g>
  </g>
  <g id="text_19">
   <g id="patch_8">
    <path d="M 124.6 71.879687 
L 282.717188 71.879687 
L 282.717188 41.00375 
L 124.6 41.00375 
z
" style="fill: #ffa500; opacity: 0.5; stroke: #000000; stroke-linejoin: miter"/>
   </g>
   <!-- Delta EVM: 0.31%, -50.26 dB  -->
   <g transform="translate(129.6 53.602188)scale(0.1 -0.1)">
    <defs>
     <path id="DejaVuSans-33" d="M 2597 2516 
Q 3050 2419 3304 2112 
Q 3559 1806 3559 1356 
Q 3559 666 3084 287 
Q 2609 -91 1734 -91 
Q 1441 -91 1130 -33 
Q 819 25 488 141 
L 488 750 
Q 750 597 1062 519 
Q 1375 441 1716 441 
Q 2309 441 2620 675 
Q 2931 909 2931 1356 
Q 2931 1769 2642 2001 
Q 2353 2234 1838 2234 
L 1294 2234 
L 1294 2753 
L 1863 2753 
Q 2328 2753 2575 2939 
Q 2822 3125 2822 3475 
Q 2822 3834 2567 4026 
Q 2313 4219 1838 4219 
Q 1578 4219 1281 4162 
Q 984 4106 628 3988 
L 628 4550 
Q 988 4650 1302 4700 
Q 1616 4750 1894 4750 
Q 2613 4750 3031 4423 
Q 3450 4097 3450 3541 
Q 3450 3153 3228 2886 
Q 3006 2619 2597 2516 
z
" transform="scale(0.015625)"/>
     <path id="DejaVuSans-2c" d="M 750 794 
L 1409 794 
L 1409 256 
L 897 -744 
L 494 -744 
L 750 256 
L 750 794 
z
" transform="scale(0.015625)"/>
     <path id="DejaVuSans-42" d="M 1259 2228 
L 1259 519 
L 2272 519 
Q 2781 519 3026 730 
Q 3272 941 3272 1375 
Q 3272 1813 3026 2020 
Q 2781 2228 2272 2228 
L 1259 2228 
z
M 1259 4147 
L 1259 2741 
L 2194 2741 
Q 2656 2741 2882 2914 
Q 3109 3088 3109 3444 
Q 3109 3797 2882 3972 
Q 2656 4147 2194 4147 
L 1259 4147 
z
M 628 4666 
L 2241 4666 
Q 2963 4666 3353 4366 
Q 3744 4066 3744 3513 
Q 3744 3084 3544 2831 
Q 3344 2578 2956 2516 
Q 3422 2416 3680 2098 
Q 3938 1781 3938 1306 
Q 3938 681 3513 340 
Q 3088 0 2303 0 
L 628 0 
L 628 4666 
z
" transform="scale(0.015625)"/>
    </defs>
    <use xlink:href="#DejaVuSans-44"/>
    <use xlink:href="#DejaVuSans-65" x="77.001953"/>
    <use xlink:href="#DejaVuSans-6c" x="138.525391"/>
    <use xlink:href="#DejaVuSans-74" x="166.308594"/>
    <use xlink:href="#DejaVuSans-61" x="205.517578"/>
    <use xlink:href="#DejaVuSans-20" x="266.796875"/>
    <use xlink:href="#DejaVuSans-45" x="298.583984"/>
    <use xlink:href="#DejaVuSans-56" x="361.767578"/>
    <use xlink:href="#DejaVuSans-4d" x="430.175781"/>
    <use xlink:href="#DejaVuSans-3a" x="516.455078"/>
    <use xlink:href="#DejaVuSans-20" x="550.146484"/>
    <use xlink:href="#DejaVuSans-30" x="581.933594"/>
    <use xlink:href="#DejaVuSans-2e" x="645.556641"/>
    <use xlink:href="#DejaVuSans-33" x="677.34375"/>
    <use xlink:href="#DejaVuSans-31" x="740.966797"/>
    <use xlink:href="#DejaVuSans-25" x="804.589844"/>
    <use xlink:href="#DejaVuSans-2c" x="899.609375"/>
    <use xlink:href="#DejaVuSans-20" x="931.396484"/>
    <use xlink:href="#DejaVuSans-2d" x="963.183594"/>
    <use xlink:href="#DejaVuSans-35" x="999.267578"/>
    <use xlink:href="#DejaVuSans-30" x="1062.890625"/>
    <use xlink:href="#DejaVuSans-2e" x="1126.513672"/>
    <use xlink:href="#DejaVuSans-32" x="1158.300781"/>
    <use xlink:href="#DejaVuSans-36" x="1221.923828"/>
    <use xlink:href="#DejaVuSans-20" x="1285.546875"/>
    <use xlink:href="#DejaVuSans-64" x="1317.333984"/>
    <use xlink:href="#DejaVuSans-42" x="1380.810547"/>
    <use xlink:href="#DejaVuSans-20" x="1449.414062"/>
   </g>
   <!-- Total EVM: 19.05% -->
   <g transform="translate(129.6 64.8)scale(0.1 -0.1)">
    <use xlink:href="#DejaVuSans-54"/>
    <use xlink:href="#DejaVuSans-6f" x="44.083984"/>
    <use xlink:href="#DejaVuSans-74" x="105.265625"/>
    <use xlink:href="#DejaVuSans-61" x="144.474609"/>
    <use xlink:href="#DejaVuSans-6c" x="205.753906"/>
    <use xlink:href="#DejaVuSans-20" x="233.537109"/>
    <use xlink:href="#DejaVuSans-45" x="265.324219"/>
    <use xlink:href="#DejaVuSans-56" x="328.507812"/>
    <use xlink:href="#DejaVuSans-4d" x="396.916016"/>
    <use xlink:href="#DejaVuSans-3a" x="483.195312"/>
    <use xlink:href="#DejaVuSans-20" x="516.886719"/>
    <use xlink:href="#DejaVuSans-31" x="548.673828"/>
    <use xlink:href="#DejaVuSans-39" x="612.296875"/>
    <use xlink:href="#DejaVuSans-2e" x="675.919922"/>
    <use xlink:href="#DejaVuSans-30" x="707.707031"/>
    <use xlink:href="#DejaVuSans-35" x="771.330078"/>
    <use xlink:href="#DejaVuSans-25" x="834.953125"/>
   </g>
  </g>
 </g>
 <defs>
  <clipPath id="p2acccbbdd8">
   <rect x="60.59" y="25.44" width="792.61" height="364.6"/>
  </clipPath>
 </defs>
</svg>
