<?xml version="1.0" encoding="utf-8" standalone="no"?>
<!DOCTYPE svg PUBLIC "-//W3C//DTD SVG 1.1//EN"
  "http://www.w3.org/Graphics/SVG/1.1/DTD/svg11.dtd">
<svg xmlns:xlink="http://www.w3.org/1999/xlink" width="864pt" height="432pt" viewBox="0 0 864 432" xmlns="http://www.w3.org/2000/svg" version="1.1">
 <metadata>
  <rdf:RDF xmlns:dc="http://purl.org/dc/elements/1.1/" xmlns:cc="http://creativecommons.org/ns#" xmlns:rdf="http://www.w3.org/1999/02/22-rdf-syntax-ns#">
   <cc:Work>
    <dc:type rdf:resource="http://purl.org/dc/dcmitype/StillImage"/>
    <dc:date>2025-06-11T16:59:23.439536</dc:date>
    <dc:format>image/svg+xml</dc:format>
    <dc:creator>
     <cc:Agent>
      <dc:title>Matplotlib v3.5.1, https://matplotlib.org/</dc:title>
     </cc:Agent>
    </dc:creator>
   </cc:Work>
  </rdf:RDF>
 </metadata>
 <defs>
  <style type="text/css">*{stroke-linejoin: round; stroke-linecap: butt}</style>
 </defs>
 <g id="figure_1">
  <g id="patch_1">
   <path d="M 0 432 
L 864 432 
L 864 0 
L 0 0 
z
" style="fill: #ffffff"/>
  </g>
  <g id="axes_1">
   <g id="patch_2">
    <path d="M 54.2 390.04 
L 853.2 390.04 
L 853.2 25.44 
L 54.2 25.44 
z
" style="fill: #ffffff"/>
   </g>
   <g id="matplotlib.axis_1">
    <g id="xtick_1">
     <g id="line2d_1">
      <path d="M 90.518182 390.04 
L 90.518182 25.44 
" clip-path="url(#pe41b84ddc5)" style="fill: none; stroke: #b0b0b0; stroke-width: 0.8; stroke-linecap: square"/>
     </g>
     <g id="line2d_2">
      <defs>
       <path id="m6bc540bc1a" d="M 0 0 
L 0 3.5 
" style="stroke: #000000; stroke-width: 0.8"/>
      </defs>
      <g>
       <use xlink:href="#m6bc540bc1a" x="90.518182" y="390.04" style="stroke: #000000; stroke-width: 0.8"/>
      </g>
     </g>
     <g id="text_1">
      <!-- 0 -->
      <g transform="translate(87.336932 404.638438)scale(0.1 -0.1)">
       <defs>
        <path id="DejaVuSans-30" d="M 2034 4250 
Q 1547 4250 1301 3770 
Q 1056 3291 1056 2328 
Q 1056 1369 1301 889 
Q 1547 409 2034 409 
Q 2525 409 2770 889 
Q 3016 1369 3016 2328 
Q 3016 3291 2770 3770 
Q 2525 4250 2034 4250 
z
M 2034 4750 
Q 2819 4750 3233 4129 
Q 3647 3509 3647 2328 
Q 3647 1150 3233 529 
Q 2819 -91 2034 -91 
Q 1250 -91 836 529 
Q 422 1150 422 2328 
Q 422 3509 836 4129 
Q 1250 4750 2034 4750 
z
" transform="scale(0.015625)"/>
       </defs>
       <use xlink:href="#DejaVuSans-30"/>
      </g>
     </g>
    </g>
    <g id="xtick_2">
     <g id="line2d_3">
      <path d="M 238.755659 390.04 
L 238.755659 25.44 
" clip-path="url(#pe41b84ddc5)" style="fill: none; stroke: #b0b0b0; stroke-width: 0.8; stroke-linecap: square"/>
     </g>
     <g id="line2d_4">
      <g>
       <use xlink:href="#m6bc540bc1a" x="238.755659" y="390.04" style="stroke: #000000; stroke-width: 0.8"/>
      </g>
     </g>
     <g id="text_2">
      <!-- 20 -->
      <g transform="translate(232.393159 404.638438)scale(0.1 -0.1)">
       <defs>
        <path id="DejaVuSans-32" d="M 1228 531 
L 3431 531 
L 3431 0 
L 469 0 
L 469 531 
Q 828 903 1448 1529 
Q 2069 2156 2228 2338 
Q 2531 2678 2651 2914 
Q 2772 3150 2772 3378 
Q 2772 3750 2511 3984 
Q 2250 4219 1831 4219 
Q 1534 4219 1204 4116 
Q 875 4013 500 3803 
L 500 4441 
Q 881 4594 1212 4672 
Q 1544 4750 1819 4750 
Q 2544 4750 2975 4387 
Q 3406 4025 3406 3419 
Q 3406 3131 3298 2873 
Q 3191 2616 2906 2266 
Q 2828 2175 2409 1742 
Q 1991 1309 1228 531 
z
" transform="scale(0.015625)"/>
       </defs>
       <use xlink:href="#DejaVuSans-32"/>
       <use xlink:href="#DejaVuSans-30" x="63.623047"/>
      </g>
     </g>
    </g>
    <g id="xtick_3">
     <g id="line2d_5">
      <path d="M 386.993135 390.04 
L 386.993135 25.44 
" clip-path="url(#pe41b84ddc5)" style="fill: none; stroke: #b0b0b0; stroke-width: 0.8; stroke-linecap: square"/>
     </g>
     <g id="line2d_6">
      <g>
       <use xlink:href="#m6bc540bc1a" x="386.993135" y="390.04" style="stroke: #000000; stroke-width: 0.8"/>
      </g>
     </g>
     <g id="text_3">
      <!-- 40 -->
      <g transform="translate(380.630635 404.638438)scale(0.1 -0.1)">
       <defs>
        <path id="DejaVuSans-34" d="M 2419 4116 
L 825 1625 
L 2419 1625 
L 2419 4116 
z
M 2253 4666 
L 3047 4666 
L 3047 1625 
L 3713 1625 
L 3713 1100 
L 3047 1100 
L 3047 0 
L 2419 0 
L 2419 1100 
L 313 1100 
L 313 1709 
L 2253 4666 
z
" transform="scale(0.015625)"/>
       </defs>
       <use xlink:href="#DejaVuSans-34"/>
       <use xlink:href="#DejaVuSans-30" x="63.623047"/>
      </g>
     </g>
    </g>
    <g id="xtick_4">
     <g id="line2d_7">
      <path d="M 535.230612 390.04 
L 535.230612 25.44 
" clip-path="url(#pe41b84ddc5)" style="fill: none; stroke: #b0b0b0; stroke-width: 0.8; stroke-linecap: square"/>
     </g>
     <g id="line2d_8">
      <g>
       <use xlink:href="#m6bc540bc1a" x="535.230612" y="390.04" style="stroke: #000000; stroke-width: 0.8"/>
      </g>
     </g>
     <g id="text_4">
      <!-- 60 -->
      <g transform="translate(528.868112 404.638438)scale(0.1 -0.1)">
       <defs>
        <path id="DejaVuSans-36" d="M 2113 2584 
Q 1688 2584 1439 2293 
Q 1191 2003 1191 1497 
Q 1191 994 1439 701 
Q 1688 409 2113 409 
Q 2538 409 2786 701 
Q 3034 994 3034 1497 
Q 3034 2003 2786 2293 
Q 2538 2584 2113 2584 
z
M 3366 4563 
L 3366 3988 
Q 3128 4100 2886 4159 
Q 2644 4219 2406 4219 
Q 1781 4219 1451 3797 
Q 1122 3375 1075 2522 
Q 1259 2794 1537 2939 
Q 1816 3084 2150 3084 
Q 2853 3084 3261 2657 
Q 3669 2231 3669 1497 
Q 3669 778 3244 343 
Q 2819 -91 2113 -91 
Q 1303 -91 875 529 
Q 447 1150 447 2328 
Q 447 3434 972 4092 
Q 1497 4750 2381 4750 
Q 2619 4750 2861 4703 
Q 3103 4656 3366 4563 
z
" transform="scale(0.015625)"/>
       </defs>
       <use xlink:href="#DejaVuSans-36"/>
       <use xlink:href="#DejaVuSans-30" x="63.623047"/>
      </g>
     </g>
    </g>
    <g id="xtick_5">
     <g id="line2d_9">
      <path d="M 683.468089 390.04 
L 683.468089 25.44 
" clip-path="url(#pe41b84ddc5)" style="fill: none; stroke: #b0b0b0; stroke-width: 0.8; stroke-linecap: square"/>
     </g>
     <g id="line2d_10">
      <g>
       <use xlink:href="#m6bc540bc1a" x="683.468089" y="390.04" style="stroke: #000000; stroke-width: 0.8"/>
      </g>
     </g>
     <g id="text_5">
      <!-- 80 -->
      <g transform="translate(677.105589 404.638438)scale(0.1 -0.1)">
       <defs>
        <path id="DejaVuSans-38" d="M 2034 2216 
Q 1584 2216 1326 1975 
Q 1069 1734 1069 1313 
Q 1069 891 1326 650 
Q 1584 409 2034 409 
Q 2484 409 2743 651 
Q 3003 894 3003 1313 
Q 3003 1734 2745 1975 
Q 2488 2216 2034 2216 
z
M 1403 2484 
Q 997 2584 770 2862 
Q 544 3141 544 3541 
Q 544 4100 942 4425 
Q 1341 4750 2034 4750 
Q 2731 4750 3128 4425 
Q 3525 4100 3525 3541 
Q 3525 3141 3298 2862 
Q 3072 2584 2669 2484 
Q 3125 2378 3379 2068 
Q 3634 1759 3634 1313 
Q 3634 634 3220 271 
Q 2806 -91 2034 -91 
Q 1263 -91 848 271 
Q 434 634 434 1313 
Q 434 1759 690 2068 
Q 947 2378 1403 2484 
z
M 1172 3481 
Q 1172 3119 1398 2916 
Q 1625 2713 2034 2713 
Q 2441 2713 2670 2916 
Q 2900 3119 2900 3481 
Q 2900 3844 2670 4047 
Q 2441 4250 2034 4250 
Q 1625 4250 1398 4047 
Q 1172 3844 1172 3481 
z
" transform="scale(0.015625)"/>
       </defs>
       <use xlink:href="#DejaVuSans-38"/>
       <use xlink:href="#DejaVuSans-30" x="63.623047"/>
      </g>
     </g>
    </g>
    <g id="xtick_6">
     <g id="line2d_11">
      <path d="M 831.705566 390.04 
L 831.705566 25.44 
" clip-path="url(#pe41b84ddc5)" style="fill: none; stroke: #b0b0b0; stroke-width: 0.8; stroke-linecap: square"/>
     </g>
     <g id="line2d_12">
      <g>
       <use xlink:href="#m6bc540bc1a" x="831.705566" y="390.04" style="stroke: #000000; stroke-width: 0.8"/>
      </g>
     </g>
     <g id="text_6">
      <!-- 100 -->
      <g transform="translate(822.161816 404.638438)scale(0.1 -0.1)">
       <defs>
        <path id="DejaVuSans-31" d="M 794 531 
L 1825 531 
L 1825 4091 
L 703 3866 
L 703 4441 
L 1819 4666 
L 2450 4666 
L 2450 531 
L 3481 531 
L 3481 0 
L 794 0 
L 794 531 
z
" transform="scale(0.015625)"/>
       </defs>
       <use xlink:href="#DejaVuSans-31"/>
       <use xlink:href="#DejaVuSans-30" x="63.623047"/>
       <use xlink:href="#DejaVuSans-30" x="127.246094"/>
      </g>
     </g>
    </g>
    <g id="text_7">
     <!-- Window Index -->
     <g transform="translate(418.632812 418.316562)scale(0.1 -0.1)">
      <defs>
       <path id="DejaVuSans-57" d="M 213 4666 
L 850 4666 
L 1831 722 
L 2809 4666 
L 3519 4666 
L 4500 722 
L 5478 4666 
L 6119 4666 
L 4947 0 
L 4153 0 
L 3169 4050 
L 2175 0 
L 1381 0 
L 213 4666 
z
" transform="scale(0.015625)"/>
       <path id="DejaVuSans-69" d="M 603 3500 
L 1178 3500 
L 1178 0 
L 603 0 
L 603 3500 
z
M 603 4863 
L 1178 4863 
L 1178 4134 
L 603 4134 
L 603 4863 
z
" transform="scale(0.015625)"/>
       <path id="DejaVuSans-6e" d="M 3513 2113 
L 3513 0 
L 2938 0 
L 2938 2094 
Q 2938 2591 2744 2837 
Q 2550 3084 2163 3084 
Q 1697 3084 1428 2787 
Q 1159 2491 1159 1978 
L 1159 0 
L 581 0 
L 581 3500 
L 1159 3500 
L 1159 2956 
Q 1366 3272 1645 3428 
Q 1925 3584 2291 3584 
Q 2894 3584 3203 3211 
Q 3513 2838 3513 2113 
z
" transform="scale(0.015625)"/>
       <path id="DejaVuSans-64" d="M 2906 2969 
L 2906 4863 
L 3481 4863 
L 3481 0 
L 2906 0 
L 2906 525 
Q 2725 213 2448 61 
Q 2172 -91 1784 -91 
Q 1150 -91 751 415 
Q 353 922 353 1747 
Q 353 2572 751 3078 
Q 1150 3584 1784 3584 
Q 2172 3584 2448 3432 
Q 2725 3281 2906 2969 
z
M 947 1747 
Q 947 1113 1208 752 
Q 1469 391 1925 391 
Q 2381 391 2643 752 
Q 2906 1113 2906 1747 
Q 2906 2381 2643 2742 
Q 2381 3103 1925 3103 
Q 1469 3103 1208 2742 
Q 947 2381 947 1747 
z
" transform="scale(0.015625)"/>
       <path id="DejaVuSans-6f" d="M 1959 3097 
Q 1497 3097 1228 2736 
Q 959 2375 959 1747 
Q 959 1119 1226 758 
Q 1494 397 1959 397 
Q 2419 397 2687 759 
Q 2956 1122 2956 1747 
Q 2956 2369 2687 2733 
Q 2419 3097 1959 3097 
z
M 1959 3584 
Q 2709 3584 3137 3096 
Q 3566 2609 3566 1747 
Q 3566 888 3137 398 
Q 2709 -91 1959 -91 
Q 1206 -91 779 398 
Q 353 888 353 1747 
Q 353 2609 779 3096 
Q 1206 3584 1959 3584 
z
" transform="scale(0.015625)"/>
       <path id="DejaVuSans-77" d="M 269 3500 
L 844 3500 
L 1563 769 
L 2278 3500 
L 2956 3500 
L 3675 769 
L 4391 3500 
L 4966 3500 
L 4050 0 
L 3372 0 
L 2619 2869 
L 1863 0 
L 1184 0 
L 269 3500 
z
" transform="scale(0.015625)"/>
       <path id="DejaVuSans-20" transform="scale(0.015625)"/>
       <path id="DejaVuSans-49" d="M 628 4666 
L 1259 4666 
L 1259 0 
L 628 0 
L 628 4666 
z
" transform="scale(0.015625)"/>
       <path id="DejaVuSans-65" d="M 3597 1894 
L 3597 1613 
L 953 1613 
Q 991 1019 1311 708 
Q 1631 397 2203 397 
Q 2534 397 2845 478 
Q 3156 559 3463 722 
L 3463 178 
Q 3153 47 2828 -22 
Q 2503 -91 2169 -91 
Q 1331 -91 842 396 
Q 353 884 353 1716 
Q 353 2575 817 3079 
Q 1281 3584 2069 3584 
Q 2775 3584 3186 3129 
Q 3597 2675 3597 1894 
z
M 3022 2063 
Q 3016 2534 2758 2815 
Q 2500 3097 2075 3097 
Q 1594 3097 1305 2825 
Q 1016 2553 972 2059 
L 3022 2063 
z
" transform="scale(0.015625)"/>
       <path id="DejaVuSans-78" d="M 3513 3500 
L 2247 1797 
L 3578 0 
L 2900 0 
L 1881 1375 
L 863 0 
L 184 0 
L 1544 1831 
L 300 3500 
L 978 3500 
L 1906 2253 
L 2834 3500 
L 3513 3500 
z
" transform="scale(0.015625)"/>
      </defs>
      <use xlink:href="#DejaVuSans-57"/>
      <use xlink:href="#DejaVuSans-69" x="96.626953"/>
      <use xlink:href="#DejaVuSans-6e" x="124.410156"/>
      <use xlink:href="#DejaVuSans-64" x="187.789062"/>
      <use xlink:href="#DejaVuSans-6f" x="251.265625"/>
      <use xlink:href="#DejaVuSans-77" x="312.447266"/>
      <use xlink:href="#DejaVuSans-20" x="394.234375"/>
      <use xlink:href="#DejaVuSans-49" x="426.021484"/>
      <use xlink:href="#DejaVuSans-6e" x="455.513672"/>
      <use xlink:href="#DejaVuSans-64" x="518.892578"/>
      <use xlink:href="#DejaVuSans-65" x="582.369141"/>
      <use xlink:href="#DejaVuSans-78" x="642.142578"/>
     </g>
    </g>
   </g>
   <g id="matplotlib.axis_2">
    <g id="ytick_1">
     <g id="line2d_13">
      <path d="M 54.2 345.146163 
L 853.2 345.146163 
" clip-path="url(#pe41b84ddc5)" style="fill: none; stroke: #b0b0b0; stroke-width: 0.8; stroke-linecap: square"/>
     </g>
     <g id="line2d_14">
      <defs>
       <path id="ma1fc09441c" d="M 0 0 
L -3.5 0 
" style="stroke: #000000; stroke-width: 0.8"/>
      </defs>
      <g>
       <use xlink:href="#ma1fc09441c" x="54.2" y="345.146163" style="stroke: #000000; stroke-width: 0.8"/>
      </g>
     </g>
     <g id="text_8">
      <!-- 12.3 -->
      <g transform="translate(24.934375 348.945382)scale(0.1 -0.1)">
       <defs>
        <path id="DejaVuSans-2e" d="M 684 794 
L 1344 794 
L 1344 0 
L 684 0 
L 684 794 
z
" transform="scale(0.015625)"/>
        <path id="DejaVuSans-33" d="M 2597 2516 
Q 3050 2419 3304 2112 
Q 3559 1806 3559 1356 
Q 3559 666 3084 287 
Q 2609 -91 1734 -91 
Q 1441 -91 1130 -33 
Q 819 25 488 141 
L 488 750 
Q 750 597 1062 519 
Q 1375 441 1716 441 
Q 2309 441 2620 675 
Q 2931 909 2931 1356 
Q 2931 1769 2642 2001 
Q 2353 2234 1838 2234 
L 1294 2234 
L 1294 2753 
L 1863 2753 
Q 2328 2753 2575 2939 
Q 2822 3125 2822 3475 
Q 2822 3834 2567 4026 
Q 2313 4219 1838 4219 
Q 1578 4219 1281 4162 
Q 984 4106 628 3988 
L 628 4550 
Q 988 4650 1302 4700 
Q 1616 4750 1894 4750 
Q 2613 4750 3031 4423 
Q 3450 4097 3450 3541 
Q 3450 3153 3228 2886 
Q 3006 2619 2597 2516 
z
" transform="scale(0.015625)"/>
       </defs>
       <use xlink:href="#DejaVuSans-31"/>
       <use xlink:href="#DejaVuSans-32" x="63.623047"/>
       <use xlink:href="#DejaVuSans-2e" x="127.246094"/>
       <use xlink:href="#DejaVuSans-33" x="159.033203"/>
      </g>
     </g>
    </g>
    <g id="ytick_2">
     <g id="line2d_15">
      <path d="M 54.2 293.438049 
L 853.2 293.438049 
" clip-path="url(#pe41b84ddc5)" style="fill: none; stroke: #b0b0b0; stroke-width: 0.8; stroke-linecap: square"/>
     </g>
     <g id="line2d_16">
      <g>
       <use xlink:href="#ma1fc09441c" x="54.2" y="293.438049" style="stroke: #000000; stroke-width: 0.8"/>
      </g>
     </g>
     <g id="text_9">
      <!-- 12.4 -->
      <g transform="translate(24.934375 297.237267)scale(0.1 -0.1)">
       <use xlink:href="#DejaVuSans-31"/>
       <use xlink:href="#DejaVuSans-32" x="63.623047"/>
       <use xlink:href="#DejaVuSans-2e" x="127.246094"/>
       <use xlink:href="#DejaVuSans-34" x="159.033203"/>
      </g>
     </g>
    </g>
    <g id="ytick_3">
     <g id="line2d_17">
      <path d="M 54.2 241.729935 
L 853.2 241.729935 
" clip-path="url(#pe41b84ddc5)" style="fill: none; stroke: #b0b0b0; stroke-width: 0.8; stroke-linecap: square"/>
     </g>
     <g id="line2d_18">
      <g>
       <use xlink:href="#ma1fc09441c" x="54.2" y="241.729935" style="stroke: #000000; stroke-width: 0.8"/>
      </g>
     </g>
     <g id="text_10">
      <!-- 12.5 -->
      <g transform="translate(24.934375 245.529153)scale(0.1 -0.1)">
       <defs>
        <path id="DejaVuSans-35" d="M 691 4666 
L 3169 4666 
L 3169 4134 
L 1269 4134 
L 1269 2991 
Q 1406 3038 1543 3061 
Q 1681 3084 1819 3084 
Q 2600 3084 3056 2656 
Q 3513 2228 3513 1497 
Q 3513 744 3044 326 
Q 2575 -91 1722 -91 
Q 1428 -91 1123 -41 
Q 819 9 494 109 
L 494 744 
Q 775 591 1075 516 
Q 1375 441 1709 441 
Q 2250 441 2565 725 
Q 2881 1009 2881 1497 
Q 2881 1984 2565 2268 
Q 2250 2553 1709 2553 
Q 1456 2553 1204 2497 
Q 953 2441 691 2322 
L 691 4666 
z
" transform="scale(0.015625)"/>
       </defs>
       <use xlink:href="#DejaVuSans-31"/>
       <use xlink:href="#DejaVuSans-32" x="63.623047"/>
       <use xlink:href="#DejaVuSans-2e" x="127.246094"/>
       <use xlink:href="#DejaVuSans-35" x="159.033203"/>
      </g>
     </g>
    </g>
    <g id="ytick_4">
     <g id="line2d_19">
      <path d="M 54.2 190.02182 
L 853.2 190.02182 
" clip-path="url(#pe41b84ddc5)" style="fill: none; stroke: #b0b0b0; stroke-width: 0.8; stroke-linecap: square"/>
     </g>
     <g id="line2d_20">
      <g>
       <use xlink:href="#ma1fc09441c" x="54.2" y="190.02182" style="stroke: #000000; stroke-width: 0.8"/>
      </g>
     </g>
     <g id="text_11">
      <!-- 12.6 -->
      <g transform="translate(24.934375 193.821039)scale(0.1 -0.1)">
       <use xlink:href="#DejaVuSans-31"/>
       <use xlink:href="#DejaVuSans-32" x="63.623047"/>
       <use xlink:href="#DejaVuSans-2e" x="127.246094"/>
       <use xlink:href="#DejaVuSans-36" x="159.033203"/>
      </g>
     </g>
    </g>
    <g id="ytick_5">
     <g id="line2d_21">
      <path d="M 54.2 138.313706 
L 853.2 138.313706 
" clip-path="url(#pe41b84ddc5)" style="fill: none; stroke: #b0b0b0; stroke-width: 0.8; stroke-linecap: square"/>
     </g>
     <g id="line2d_22">
      <g>
       <use xlink:href="#ma1fc09441c" x="54.2" y="138.313706" style="stroke: #000000; stroke-width: 0.8"/>
      </g>
     </g>
     <g id="text_12">
      <!-- 12.7 -->
      <g transform="translate(24.934375 142.112925)scale(0.1 -0.1)">
       <defs>
        <path id="DejaVuSans-37" d="M 525 4666 
L 3525 4666 
L 3525 4397 
L 1831 0 
L 1172 0 
L 2766 4134 
L 525 4134 
L 525 4666 
z
" transform="scale(0.015625)"/>
       </defs>
       <use xlink:href="#DejaVuSans-31"/>
       <use xlink:href="#DejaVuSans-32" x="63.623047"/>
       <use xlink:href="#DejaVuSans-2e" x="127.246094"/>
       <use xlink:href="#DejaVuSans-37" x="159.033203"/>
      </g>
     </g>
    </g>
    <g id="ytick_6">
     <g id="line2d_23">
      <path d="M 54.2 86.605592 
L 853.2 86.605592 
" clip-path="url(#pe41b84ddc5)" style="fill: none; stroke: #b0b0b0; stroke-width: 0.8; stroke-linecap: square"/>
     </g>
     <g id="line2d_24">
      <g>
       <use xlink:href="#ma1fc09441c" x="54.2" y="86.605592" style="stroke: #000000; stroke-width: 0.8"/>
      </g>
     </g>
     <g id="text_13">
      <!-- 12.8 -->
      <g transform="translate(24.934375 90.404811)scale(0.1 -0.1)">
       <use xlink:href="#DejaVuSans-31"/>
       <use xlink:href="#DejaVuSans-32" x="63.623047"/>
       <use xlink:href="#DejaVuSans-2e" x="127.246094"/>
       <use xlink:href="#DejaVuSans-38" x="159.033203"/>
      </g>
     </g>
    </g>
    <g id="ytick_7">
     <g id="line2d_25">
      <path d="M 54.2 34.897478 
L 853.2 34.897478 
" clip-path="url(#pe41b84ddc5)" style="fill: none; stroke: #b0b0b0; stroke-width: 0.8; stroke-linecap: square"/>
     </g>
     <g id="line2d_26">
      <g>
       <use xlink:href="#ma1fc09441c" x="54.2" y="34.897478" style="stroke: #000000; stroke-width: 0.8"/>
      </g>
     </g>
     <g id="text_14">
      <!-- 12.9 -->
      <g transform="translate(24.934375 38.696697)scale(0.1 -0.1)">
       <defs>
        <path id="DejaVuSans-39" d="M 703 97 
L 703 672 
Q 941 559 1184 500 
Q 1428 441 1663 441 
Q 2288 441 2617 861 
Q 2947 1281 2994 2138 
Q 2813 1869 2534 1725 
Q 2256 1581 1919 1581 
Q 1219 1581 811 2004 
Q 403 2428 403 3163 
Q 403 3881 828 4315 
Q 1253 4750 1959 4750 
Q 2769 4750 3195 4129 
Q 3622 3509 3622 2328 
Q 3622 1225 3098 567 
Q 2575 -91 1691 -91 
Q 1453 -91 1209 -44 
Q 966 3 703 97 
z
M 1959 2075 
Q 2384 2075 2632 2365 
Q 2881 2656 2881 3163 
Q 2881 3666 2632 3958 
Q 2384 4250 1959 4250 
Q 1534 4250 1286 3958 
Q 1038 3666 1038 3163 
Q 1038 2656 1286 2365 
Q 1534 2075 1959 2075 
z
" transform="scale(0.015625)"/>
       </defs>
       <use xlink:href="#DejaVuSans-31"/>
       <use xlink:href="#DejaVuSans-32" x="63.623047"/>
       <use xlink:href="#DejaVuSans-2e" x="127.246094"/>
       <use xlink:href="#DejaVuSans-39" x="159.033203"/>
      </g>
     </g>
    </g>
    <g id="text_15">
     <!-- EVM (%) -->
     <g transform="translate(18.854688 228.875156)rotate(-90)scale(0.1 -0.1)">
      <defs>
       <path id="DejaVuSans-45" d="M 628 4666 
L 3578 4666 
L 3578 4134 
L 1259 4134 
L 1259 2753 
L 3481 2753 
L 3481 2222 
L 1259 2222 
L 1259 531 
L 3634 531 
L 3634 0 
L 628 0 
L 628 4666 
z
" transform="scale(0.015625)"/>
       <path id="DejaVuSans-56" d="M 1831 0 
L 50 4666 
L 709 4666 
L 2188 738 
L 3669 4666 
L 4325 4666 
L 2547 0 
L 1831 0 
z
" transform="scale(0.015625)"/>
       <path id="DejaVuSans-4d" d="M 628 4666 
L 1569 4666 
L 2759 1491 
L 3956 4666 
L 4897 4666 
L 4897 0 
L 4281 0 
L 4281 4097 
L 3078 897 
L 2444 897 
L 1241 4097 
L 1241 0 
L 628 0 
L 628 4666 
z
" transform="scale(0.015625)"/>
       <path id="DejaVuSans-28" d="M 1984 4856 
Q 1566 4138 1362 3434 
Q 1159 2731 1159 2009 
Q 1159 1288 1364 580 
Q 1569 -128 1984 -844 
L 1484 -844 
Q 1016 -109 783 600 
Q 550 1309 550 2009 
Q 550 2706 781 3412 
Q 1013 4119 1484 4856 
L 1984 4856 
z
" transform="scale(0.015625)"/>
       <path id="DejaVuSans-25" d="M 4653 2053 
Q 4381 2053 4226 1822 
Q 4072 1591 4072 1178 
Q 4072 772 4226 539 
Q 4381 306 4653 306 
Q 4919 306 5073 539 
Q 5228 772 5228 1178 
Q 5228 1588 5073 1820 
Q 4919 2053 4653 2053 
z
M 4653 2450 
Q 5147 2450 5437 2106 
Q 5728 1763 5728 1178 
Q 5728 594 5436 251 
Q 5144 -91 4653 -91 
Q 4153 -91 3862 251 
Q 3572 594 3572 1178 
Q 3572 1766 3864 2108 
Q 4156 2450 4653 2450 
z
M 1428 4353 
Q 1159 4353 1004 4120 
Q 850 3888 850 3481 
Q 850 3069 1003 2837 
Q 1156 2606 1428 2606 
Q 1700 2606 1854 2837 
Q 2009 3069 2009 3481 
Q 2009 3884 1853 4118 
Q 1697 4353 1428 4353 
z
M 4250 4750 
L 4750 4750 
L 1831 -91 
L 1331 -91 
L 4250 4750 
z
M 1428 4750 
Q 1922 4750 2215 4408 
Q 2509 4066 2509 3481 
Q 2509 2891 2217 2550 
Q 1925 2209 1428 2209 
Q 931 2209 642 2551 
Q 353 2894 353 3481 
Q 353 4063 643 4406 
Q 934 4750 1428 4750 
z
" transform="scale(0.015625)"/>
       <path id="DejaVuSans-29" d="M 513 4856 
L 1013 4856 
Q 1481 4119 1714 3412 
Q 1947 2706 1947 2009 
Q 1947 1309 1714 600 
Q 1481 -109 1013 -844 
L 513 -844 
Q 928 -128 1133 580 
Q 1338 1288 1338 2009 
Q 1338 2731 1133 3434 
Q 928 4138 513 4856 
z
" transform="scale(0.015625)"/>
      </defs>
      <use xlink:href="#DejaVuSans-45"/>
      <use xlink:href="#DejaVuSans-56" x="63.183594"/>
      <use xlink:href="#DejaVuSans-4d" x="131.591797"/>
      <use xlink:href="#DejaVuSans-20" x="217.871094"/>
      <use xlink:href="#DejaVuSans-28" x="249.658203"/>
      <use xlink:href="#DejaVuSans-25" x="288.671875"/>
      <use xlink:href="#DejaVuSans-29" x="383.691406"/>
     </g>
    </g>
   </g>
   <g id="line2d_27">
    <path d="M 90.518182 235.78082 
L 97.930056 301.678383 
L 105.341929 152.224301 
L 112.753803 270.647981 
L 120.165677 231.545321 
L 127.577551 252.637287 
L 134.989425 289.925394 
L 142.401299 173.605209 
L 149.813173 210.474929 
L 157.225046 230.065169 
L 164.63692 255.859564 
L 172.048794 312.887776 
L 179.460668 273.218791 
L 186.872542 270.817108 
L 194.284416 289.432652 
L 201.696289 293.818401 
L 209.108163 197.266059 
L 216.520037 263.022234 
L 223.931911 330.146451 
L 231.343785 273.948464 
L 238.755659 285.546195 
L 246.167532 328.783417 
L 253.579406 235.753081 
L 260.99128 326.977339 
L 268.403154 318.967493 
L 275.815028 253.303779 
L 283.226902 243.917415 
L 290.638776 261.552484 
L 298.050649 301.180633 
L 305.462523 239.147182 
L 312.874397 222.131989 
L 320.286271 250.216727 
L 327.698145 194.570812 
L 335.110019 277.132986 
L 342.521892 231.381973 
L 349.933766 211.431133 
L 357.34564 247.519169 
L 364.757514 160.723807 
L 372.169388 270.984309 
L 379.581262 257.574336 
L 386.993135 239.316694 
L 394.405009 274.786395 
L 401.816883 223.58209 
L 409.228757 245.644515 
L 416.640631 306.806904 
L 424.052505 249.553317 
L 431.464378 312.844627 
L 438.876252 239.815215 
L 446.288126 236.389523 
L 453.7 235.728425 
L 461.111874 265.70785 
L 468.523748 263.415965 
L 475.935622 213.274195 
L 483.347495 286.531293 
L 490.759369 246.668139 
L 498.171243 316.434053 
L 505.583117 293.654667 
L 512.994991 261.761293 
L 520.406865 275.53957 
L 527.818738 255.826818 
L 535.230612 252.400741 
L 542.642486 373.467273 
L 550.05436 207.246488 
L 557.466234 320.777423 
L 564.878108 208.057836 
L 572.289981 243.309097 
L 579.701855 272.100779 
L 587.113729 266.642094 
L 594.525603 280.715862 
L 601.937477 231.901297 
L 609.349351 292.683823 
L 616.761224 265.29293 
L 624.173098 259.740628 
L 631.584972 333.851067 
L 638.996846 327.52132 
L 646.40872 251.378658 
L 653.820594 324.681602 
L 661.232468 296.940126 
L 668.644341 270.826739 
L 676.056215 257.555074 
L 683.468089 315.159242 
L 690.879963 269.430188 
L 698.291837 249.011648 
L 705.703711 238.60166 
L 713.115584 271.206601 
L 720.527458 237.213199 
L 727.939332 194.633224 
L 735.351206 271.824551 
L 742.76308 337.404664 
L 750.174954 334.600774 
L 757.586827 253.936754 
L 764.998701 221.218163 
L 772.410575 260.204861 
L 779.822449 223.0697 
L 787.234323 287.181219 
L 794.646197 273.293915 
L 802.058071 298.234584 
L 809.469944 178.962572 
L 816.881818 233.976283 
" clip-path="url(#pe41b84ddc5)" style="fill: none; stroke: #1f77b4; stroke-width: 1.5; stroke-linecap: square"/>
    <defs>
     <path id="m3a592b1f49" d="M 0 3 
C 0.795609 3 1.55874 2.683901 2.12132 2.12132 
C 2.683901 1.55874 3 0.795609 3 0 
C 3 -0.795609 2.683901 -1.55874 2.12132 -2.12132 
C 1.55874 -2.683901 0.795609 -3 0 -3 
C -0.795609 -3 -1.55874 -2.683901 -2.12132 -2.12132 
C -2.683901 -1.55874 -3 -0.795609 -3 0 
C -3 0.795609 -2.683901 1.55874 -2.12132 2.12132 
C -1.55874 2.683901 -0.795609 3 0 3 
z
" style="stroke: #1f77b4"/>
    </defs>
    <g clip-path="url(#pe41b84ddc5)">
     <use xlink:href="#m3a592b1f49" x="90.518182" y="235.78082" style="fill: #1f77b4; stroke: #1f77b4"/>
     <use xlink:href="#m3a592b1f49" x="97.930056" y="301.678383" style="fill: #1f77b4; stroke: #1f77b4"/>
     <use xlink:href="#m3a592b1f49" x="105.341929" y="152.224301" style="fill: #1f77b4; stroke: #1f77b4"/>
     <use xlink:href="#m3a592b1f49" x="112.753803" y="270.647981" style="fill: #1f77b4; stroke: #1f77b4"/>
     <use xlink:href="#m3a592b1f49" x="120.165677" y="231.545321" style="fill: #1f77b4; stroke: #1f77b4"/>
     <use xlink:href="#m3a592b1f49" x="127.577551" y="252.637287" style="fill: #1f77b4; stroke: #1f77b4"/>
     <use xlink:href="#m3a592b1f49" x="134.989425" y="289.925394" style="fill: #1f77b4; stroke: #1f77b4"/>
     <use xlink:href="#m3a592b1f49" x="142.401299" y="173.605209" style="fill: #1f77b4; stroke: #1f77b4"/>
     <use xlink:href="#m3a592b1f49" x="149.813173" y="210.474929" style="fill: #1f77b4; stroke: #1f77b4"/>
     <use xlink:href="#m3a592b1f49" x="157.225046" y="230.065169" style="fill: #1f77b4; stroke: #1f77b4"/>
     <use xlink:href="#m3a592b1f49" x="164.63692" y="255.859564" style="fill: #1f77b4; stroke: #1f77b4"/>
     <use xlink:href="#m3a592b1f49" x="172.048794" y="312.887776" style="fill: #1f77b4; stroke: #1f77b4"/>
     <use xlink:href="#m3a592b1f49" x="179.460668" y="273.218791" style="fill: #1f77b4; stroke: #1f77b4"/>
     <use xlink:href="#m3a592b1f49" x="186.872542" y="270.817108" style="fill: #1f77b4; stroke: #1f77b4"/>
     <use xlink:href="#m3a592b1f49" x="194.284416" y="289.432652" style="fill: #1f77b4; stroke: #1f77b4"/>
     <use xlink:href="#m3a592b1f49" x="201.696289" y="293.818401" style="fill: #1f77b4; stroke: #1f77b4"/>
     <use xlink:href="#m3a592b1f49" x="209.108163" y="197.266059" style="fill: #1f77b4; stroke: #1f77b4"/>
     <use xlink:href="#m3a592b1f49" x="216.520037" y="263.022234" style="fill: #1f77b4; stroke: #1f77b4"/>
     <use xlink:href="#m3a592b1f49" x="223.931911" y="330.146451" style="fill: #1f77b4; stroke: #1f77b4"/>
     <use xlink:href="#m3a592b1f49" x="231.343785" y="273.948464" style="fill: #1f77b4; stroke: #1f77b4"/>
     <use xlink:href="#m3a592b1f49" x="238.755659" y="285.546195" style="fill: #1f77b4; stroke: #1f77b4"/>
     <use xlink:href="#m3a592b1f49" x="246.167532" y="328.783417" style="fill: #1f77b4; stroke: #1f77b4"/>
     <use xlink:href="#m3a592b1f49" x="253.579406" y="235.753081" style="fill: #1f77b4; stroke: #1f77b4"/>
     <use xlink:href="#m3a592b1f49" x="260.99128" y="326.977339" style="fill: #1f77b4; stroke: #1f77b4"/>
     <use xlink:href="#m3a592b1f49" x="268.403154" y="318.967493" style="fill: #1f77b4; stroke: #1f77b4"/>
     <use xlink:href="#m3a592b1f49" x="275.815028" y="253.303779" style="fill: #1f77b4; stroke: #1f77b4"/>
     <use xlink:href="#m3a592b1f49" x="283.226902" y="243.917415" style="fill: #1f77b4; stroke: #1f77b4"/>
     <use xlink:href="#m3a592b1f49" x="290.638776" y="261.552484" style="fill: #1f77b4; stroke: #1f77b4"/>
     <use xlink:href="#m3a592b1f49" x="298.050649" y="301.180633" style="fill: #1f77b4; stroke: #1f77b4"/>
     <use xlink:href="#m3a592b1f49" x="305.462523" y="239.147182" style="fill: #1f77b4; stroke: #1f77b4"/>
     <use xlink:href="#m3a592b1f49" x="312.874397" y="222.131989" style="fill: #1f77b4; stroke: #1f77b4"/>
     <use xlink:href="#m3a592b1f49" x="320.286271" y="250.216727" style="fill: #1f77b4; stroke: #1f77b4"/>
     <use xlink:href="#m3a592b1f49" x="327.698145" y="194.570812" style="fill: #1f77b4; stroke: #1f77b4"/>
     <use xlink:href="#m3a592b1f49" x="335.110019" y="277.132986" style="fill: #1f77b4; stroke: #1f77b4"/>
     <use xlink:href="#m3a592b1f49" x="342.521892" y="231.381973" style="fill: #1f77b4; stroke: #1f77b4"/>
     <use xlink:href="#m3a592b1f49" x="349.933766" y="211.431133" style="fill: #1f77b4; stroke: #1f77b4"/>
     <use xlink:href="#m3a592b1f49" x="357.34564" y="247.519169" style="fill: #1f77b4; stroke: #1f77b4"/>
     <use xlink:href="#m3a592b1f49" x="364.757514" y="160.723807" style="fill: #1f77b4; stroke: #1f77b4"/>
     <use xlink:href="#m3a592b1f49" x="372.169388" y="270.984309" style="fill: #1f77b4; stroke: #1f77b4"/>
     <use xlink:href="#m3a592b1f49" x="379.581262" y="257.574336" style="fill: #1f77b4; stroke: #1f77b4"/>
     <use xlink:href="#m3a592b1f49" x="386.993135" y="239.316694" style="fill: #1f77b4; stroke: #1f77b4"/>
     <use xlink:href="#m3a592b1f49" x="394.405009" y="274.786395" style="fill: #1f77b4; stroke: #1f77b4"/>
     <use xlink:href="#m3a592b1f49" x="401.816883" y="223.58209" style="fill: #1f77b4; stroke: #1f77b4"/>
     <use xlink:href="#m3a592b1f49" x="409.228757" y="245.644515" style="fill: #1f77b4; stroke: #1f77b4"/>
     <use xlink:href="#m3a592b1f49" x="416.640631" y="306.806904" style="fill: #1f77b4; stroke: #1f77b4"/>
     <use xlink:href="#m3a592b1f49" x="424.052505" y="249.553317" style="fill: #1f77b4; stroke: #1f77b4"/>
     <use xlink:href="#m3a592b1f49" x="431.464378" y="312.844627" style="fill: #1f77b4; stroke: #1f77b4"/>
     <use xlink:href="#m3a592b1f49" x="438.876252" y="239.815215" style="fill: #1f77b4; stroke: #1f77b4"/>
     <use xlink:href="#m3a592b1f49" x="446.288126" y="236.389523" style="fill: #1f77b4; stroke: #1f77b4"/>
     <use xlink:href="#m3a592b1f49" x="453.7" y="235.728425" style="fill: #1f77b4; stroke: #1f77b4"/>
     <use xlink:href="#m3a592b1f49" x="461.111874" y="265.70785" style="fill: #1f77b4; stroke: #1f77b4"/>
     <use xlink:href="#m3a592b1f49" x="468.523748" y="263.415965" style="fill: #1f77b4; stroke: #1f77b4"/>
     <use xlink:href="#m3a592b1f49" x="475.935622" y="213.274195" style="fill: #1f77b4; stroke: #1f77b4"/>
     <use xlink:href="#m3a592b1f49" x="483.347495" y="286.531293" style="fill: #1f77b4; stroke: #1f77b4"/>
     <use xlink:href="#m3a592b1f49" x="490.759369" y="246.668139" style="fill: #1f77b4; stroke: #1f77b4"/>
     <use xlink:href="#m3a592b1f49" x="498.171243" y="316.434053" style="fill: #1f77b4; stroke: #1f77b4"/>
     <use xlink:href="#m3a592b1f49" x="505.583117" y="293.654667" style="fill: #1f77b4; stroke: #1f77b4"/>
     <use xlink:href="#m3a592b1f49" x="512.994991" y="261.761293" style="fill: #1f77b4; stroke: #1f77b4"/>
     <use xlink:href="#m3a592b1f49" x="520.406865" y="275.53957" style="fill: #1f77b4; stroke: #1f77b4"/>
     <use xlink:href="#m3a592b1f49" x="527.818738" y="255.826818" style="fill: #1f77b4; stroke: #1f77b4"/>
     <use xlink:href="#m3a592b1f49" x="535.230612" y="252.400741" style="fill: #1f77b4; stroke: #1f77b4"/>
     <use xlink:href="#m3a592b1f49" x="542.642486" y="373.467273" style="fill: #1f77b4; stroke: #1f77b4"/>
     <use xlink:href="#m3a592b1f49" x="550.05436" y="207.246488" style="fill: #1f77b4; stroke: #1f77b4"/>
     <use xlink:href="#m3a592b1f49" x="557.466234" y="320.777423" style="fill: #1f77b4; stroke: #1f77b4"/>
     <use xlink:href="#m3a592b1f49" x="564.878108" y="208.057836" style="fill: #1f77b4; stroke: #1f77b4"/>
     <use xlink:href="#m3a592b1f49" x="572.289981" y="243.309097" style="fill: #1f77b4; stroke: #1f77b4"/>
     <use xlink:href="#m3a592b1f49" x="579.701855" y="272.100779" style="fill: #1f77b4; stroke: #1f77b4"/>
     <use xlink:href="#m3a592b1f49" x="587.113729" y="266.642094" style="fill: #1f77b4; stroke: #1f77b4"/>
     <use xlink:href="#m3a592b1f49" x="594.525603" y="280.715862" style="fill: #1f77b4; stroke: #1f77b4"/>
     <use xlink:href="#m3a592b1f49" x="601.937477" y="231.901297" style="fill: #1f77b4; stroke: #1f77b4"/>
     <use xlink:href="#m3a592b1f49" x="609.349351" y="292.683823" style="fill: #1f77b4; stroke: #1f77b4"/>
     <use xlink:href="#m3a592b1f49" x="616.761224" y="265.29293" style="fill: #1f77b4; stroke: #1f77b4"/>
     <use xlink:href="#m3a592b1f49" x="624.173098" y="259.740628" style="fill: #1f77b4; stroke: #1f77b4"/>
     <use xlink:href="#m3a592b1f49" x="631.584972" y="333.851067" style="fill: #1f77b4; stroke: #1f77b4"/>
     <use xlink:href="#m3a592b1f49" x="638.996846" y="327.52132" style="fill: #1f77b4; stroke: #1f77b4"/>
     <use xlink:href="#m3a592b1f49" x="646.40872" y="251.378658" style="fill: #1f77b4; stroke: #1f77b4"/>
     <use xlink:href="#m3a592b1f49" x="653.820594" y="324.681602" style="fill: #1f77b4; stroke: #1f77b4"/>
     <use xlink:href="#m3a592b1f49" x="661.232468" y="296.940126" style="fill: #1f77b4; stroke: #1f77b4"/>
     <use xlink:href="#m3a592b1f49" x="668.644341" y="270.826739" style="fill: #1f77b4; stroke: #1f77b4"/>
     <use xlink:href="#m3a592b1f49" x="676.056215" y="257.555074" style="fill: #1f77b4; stroke: #1f77b4"/>
     <use xlink:href="#m3a592b1f49" x="683.468089" y="315.159242" style="fill: #1f77b4; stroke: #1f77b4"/>
     <use xlink:href="#m3a592b1f49" x="690.879963" y="269.430188" style="fill: #1f77b4; stroke: #1f77b4"/>
     <use xlink:href="#m3a592b1f49" x="698.291837" y="249.011648" style="fill: #1f77b4; stroke: #1f77b4"/>
     <use xlink:href="#m3a592b1f49" x="705.703711" y="238.60166" style="fill: #1f77b4; stroke: #1f77b4"/>
     <use xlink:href="#m3a592b1f49" x="713.115584" y="271.206601" style="fill: #1f77b4; stroke: #1f77b4"/>
     <use xlink:href="#m3a592b1f49" x="720.527458" y="237.213199" style="fill: #1f77b4; stroke: #1f77b4"/>
     <use xlink:href="#m3a592b1f49" x="727.939332" y="194.633224" style="fill: #1f77b4; stroke: #1f77b4"/>
     <use xlink:href="#m3a592b1f49" x="735.351206" y="271.824551" style="fill: #1f77b4; stroke: #1f77b4"/>
     <use xlink:href="#m3a592b1f49" x="742.76308" y="337.404664" style="fill: #1f77b4; stroke: #1f77b4"/>
     <use xlink:href="#m3a592b1f49" x="750.174954" y="334.600774" style="fill: #1f77b4; stroke: #1f77b4"/>
     <use xlink:href="#m3a592b1f49" x="757.586827" y="253.936754" style="fill: #1f77b4; stroke: #1f77b4"/>
     <use xlink:href="#m3a592b1f49" x="764.998701" y="221.218163" style="fill: #1f77b4; stroke: #1f77b4"/>
     <use xlink:href="#m3a592b1f49" x="772.410575" y="260.204861" style="fill: #1f77b4; stroke: #1f77b4"/>
     <use xlink:href="#m3a592b1f49" x="779.822449" y="223.0697" style="fill: #1f77b4; stroke: #1f77b4"/>
     <use xlink:href="#m3a592b1f49" x="787.234323" y="287.181219" style="fill: #1f77b4; stroke: #1f77b4"/>
     <use xlink:href="#m3a592b1f49" x="794.646197" y="273.293915" style="fill: #1f77b4; stroke: #1f77b4"/>
     <use xlink:href="#m3a592b1f49" x="802.058071" y="298.234584" style="fill: #1f77b4; stroke: #1f77b4"/>
     <use xlink:href="#m3a592b1f49" x="809.469944" y="178.962572" style="fill: #1f77b4; stroke: #1f77b4"/>
     <use xlink:href="#m3a592b1f49" x="816.881818" y="233.976283" style="fill: #1f77b4; stroke: #1f77b4"/>
    </g>
   </g>
   <g id="line2d_28">
    <path d="M 54.2 42.012727 
L 853.2 42.012727 
" clip-path="url(#pe41b84ddc5)" style="fill: none; stroke-dasharray: 5.55,2.4; stroke-dashoffset: 0; stroke: #ff0000; stroke-width: 1.5"/>
   </g>
   <g id="patch_3">
    <path d="M 54.2 390.04 
L 54.2 25.44 
" style="fill: none; stroke: #000000; stroke-width: 0.8; stroke-linejoin: miter; stroke-linecap: square"/>
   </g>
   <g id="patch_4">
    <path d="M 853.2 390.04 
L 853.2 25.44 
" style="fill: none; stroke: #000000; stroke-width: 0.8; stroke-linejoin: miter; stroke-linecap: square"/>
   </g>
   <g id="patch_5">
    <path d="M 54.2 390.04 
L 853.2 390.04 
" style="fill: none; stroke: #000000; stroke-width: 0.8; stroke-linejoin: miter; stroke-linecap: square"/>
   </g>
   <g id="patch_6">
    <path d="M 54.2 25.44 
L 853.2 25.44 
" style="fill: none; stroke: #000000; stroke-width: 0.8; stroke-linejoin: miter; stroke-linecap: square"/>
   </g>
   <g id="text_16">
    <!-- EVM over Windows (Window Size: 9000) - Dataset -->
    <g transform="translate(303.514375 19.44)scale(0.12 -0.12)">
     <defs>
      <path id="DejaVuSans-76" d="M 191 3500 
L 800 3500 
L 1894 563 
L 2988 3500 
L 3597 3500 
L 2284 0 
L 1503 0 
L 191 3500 
z
" transform="scale(0.015625)"/>
      <path id="DejaVuSans-72" d="M 2631 2963 
Q 2534 3019 2420 3045 
Q 2306 3072 2169 3072 
Q 1681 3072 1420 2755 
Q 1159 2438 1159 1844 
L 1159 0 
L 581 0 
L 581 3500 
L 1159 3500 
L 1159 2956 
Q 1341 3275 1631 3429 
Q 1922 3584 2338 3584 
Q 2397 3584 2469 3576 
Q 2541 3569 2628 3553 
L 2631 2963 
z
" transform="scale(0.015625)"/>
      <path id="DejaVuSans-73" d="M 2834 3397 
L 2834 2853 
Q 2591 2978 2328 3040 
Q 2066 3103 1784 3103 
Q 1356 3103 1142 2972 
Q 928 2841 928 2578 
Q 928 2378 1081 2264 
Q 1234 2150 1697 2047 
L 1894 2003 
Q 2506 1872 2764 1633 
Q 3022 1394 3022 966 
Q 3022 478 2636 193 
Q 2250 -91 1575 -91 
Q 1294 -91 989 -36 
Q 684 19 347 128 
L 347 722 
Q 666 556 975 473 
Q 1284 391 1588 391 
Q 1994 391 2212 530 
Q 2431 669 2431 922 
Q 2431 1156 2273 1281 
Q 2116 1406 1581 1522 
L 1381 1569 
Q 847 1681 609 1914 
Q 372 2147 372 2553 
Q 372 3047 722 3315 
Q 1072 3584 1716 3584 
Q 2034 3584 2315 3537 
Q 2597 3491 2834 3397 
z
" transform="scale(0.015625)"/>
      <path id="DejaVuSans-53" d="M 3425 4513 
L 3425 3897 
Q 3066 4069 2747 4153 
Q 2428 4238 2131 4238 
Q 1616 4238 1336 4038 
Q 1056 3838 1056 3469 
Q 1056 3159 1242 3001 
Q 1428 2844 1947 2747 
L 2328 2669 
Q 3034 2534 3370 2195 
Q 3706 1856 3706 1288 
Q 3706 609 3251 259 
Q 2797 -91 1919 -91 
Q 1588 -91 1214 -16 
Q 841 59 441 206 
L 441 856 
Q 825 641 1194 531 
Q 1563 422 1919 422 
Q 2459 422 2753 634 
Q 3047 847 3047 1241 
Q 3047 1584 2836 1778 
Q 2625 1972 2144 2069 
L 1759 2144 
Q 1053 2284 737 2584 
Q 422 2884 422 3419 
Q 422 4038 858 4394 
Q 1294 4750 2059 4750 
Q 2388 4750 2728 4690 
Q 3069 4631 3425 4513 
z
" transform="scale(0.015625)"/>
      <path id="DejaVuSans-7a" d="M 353 3500 
L 3084 3500 
L 3084 2975 
L 922 459 
L 3084 459 
L 3084 0 
L 275 0 
L 275 525 
L 2438 3041 
L 353 3041 
L 353 3500 
z
" transform="scale(0.015625)"/>
      <path id="DejaVuSans-3a" d="M 750 794 
L 1409 794 
L 1409 0 
L 750 0 
L 750 794 
z
M 750 3309 
L 1409 3309 
L 1409 2516 
L 750 2516 
L 750 3309 
z
" transform="scale(0.015625)"/>
      <path id="DejaVuSans-2d" d="M 313 2009 
L 1997 2009 
L 1997 1497 
L 313 1497 
L 313 2009 
z
" transform="scale(0.015625)"/>
      <path id="DejaVuSans-44" d="M 1259 4147 
L 1259 519 
L 2022 519 
Q 2988 519 3436 956 
Q 3884 1394 3884 2338 
Q 3884 3275 3436 3711 
Q 2988 4147 2022 4147 
L 1259 4147 
z
M 628 4666 
L 1925 4666 
Q 3281 4666 3915 4102 
Q 4550 3538 4550 2338 
Q 4550 1131 3912 565 
Q 3275 0 1925 0 
L 628 0 
L 628 4666 
z
" transform="scale(0.015625)"/>
      <path id="DejaVuSans-61" d="M 2194 1759 
Q 1497 1759 1228 1600 
Q 959 1441 959 1056 
Q 959 750 1161 570 
Q 1363 391 1709 391 
Q 2188 391 2477 730 
Q 2766 1069 2766 1631 
L 2766 1759 
L 2194 1759 
z
M 3341 1997 
L 3341 0 
L 2766 0 
L 2766 531 
Q 2569 213 2275 61 
Q 1981 -91 1556 -91 
Q 1019 -91 701 211 
Q 384 513 384 1019 
Q 384 1609 779 1909 
Q 1175 2209 1959 2209 
L 2766 2209 
L 2766 2266 
Q 2766 2663 2505 2880 
Q 2244 3097 1772 3097 
Q 1472 3097 1187 3025 
Q 903 2953 641 2809 
L 641 3341 
Q 956 3463 1253 3523 
Q 1550 3584 1831 3584 
Q 2591 3584 2966 3190 
Q 3341 2797 3341 1997 
z
" transform="scale(0.015625)"/>
      <path id="DejaVuSans-74" d="M 1172 4494 
L 1172 3500 
L 2356 3500 
L 2356 3053 
L 1172 3053 
L 1172 1153 
Q 1172 725 1289 603 
Q 1406 481 1766 481 
L 2356 481 
L 2356 0 
L 1766 0 
Q 1100 0 847 248 
Q 594 497 594 1153 
L 594 3053 
L 172 3053 
L 172 3500 
L 594 3500 
L 594 4494 
L 1172 4494 
z
" transform="scale(0.015625)"/>
     </defs>
     <use xlink:href="#DejaVuSans-45"/>
     <use xlink:href="#DejaVuSans-56" x="63.183594"/>
     <use xlink:href="#DejaVuSans-4d" x="131.591797"/>
     <use xlink:href="#DejaVuSans-20" x="217.871094"/>
     <use xlink:href="#DejaVuSans-6f" x="249.658203"/>
     <use xlink:href="#DejaVuSans-76" x="310.839844"/>
     <use xlink:href="#DejaVuSans-65" x="370.019531"/>
     <use xlink:href="#DejaVuSans-72" x="431.542969"/>
     <use xlink:href="#DejaVuSans-20" x="472.65625"/>
     <use xlink:href="#DejaVuSans-57" x="504.443359"/>
     <use xlink:href="#DejaVuSans-69" x="601.070312"/>
     <use xlink:href="#DejaVuSans-6e" x="628.853516"/>
     <use xlink:href="#DejaVuSans-64" x="692.232422"/>
     <use xlink:href="#DejaVuSans-6f" x="755.708984"/>
     <use xlink:href="#DejaVuSans-77" x="816.890625"/>
     <use xlink:href="#DejaVuSans-73" x="898.677734"/>
     <use xlink:href="#DejaVuSans-20" x="950.777344"/>
     <use xlink:href="#DejaVuSans-28" x="982.564453"/>
     <use xlink:href="#DejaVuSans-57" x="1021.578125"/>
     <use xlink:href="#DejaVuSans-69" x="1118.205078"/>
     <use xlink:href="#DejaVuSans-6e" x="1145.988281"/>
     <use xlink:href="#DejaVuSans-64" x="1209.367188"/>
     <use xlink:href="#DejaVuSans-6f" x="1272.84375"/>
     <use xlink:href="#DejaVuSans-77" x="1334.025391"/>
     <use xlink:href="#DejaVuSans-20" x="1415.8125"/>
     <use xlink:href="#DejaVuSans-53" x="1447.599609"/>
     <use xlink:href="#DejaVuSans-69" x="1511.076172"/>
     <use xlink:href="#DejaVuSans-7a" x="1538.859375"/>
     <use xlink:href="#DejaVuSans-65" x="1591.349609"/>
     <use xlink:href="#DejaVuSans-3a" x="1652.873047"/>
     <use xlink:href="#DejaVuSans-20" x="1686.564453"/>
     <use xlink:href="#DejaVuSans-39" x="1718.351562"/>
     <use xlink:href="#DejaVuSans-30" x="1781.974609"/>
     <use xlink:href="#DejaVuSans-30" x="1845.597656"/>
     <use xlink:href="#DejaVuSans-30" x="1909.220703"/>
     <use xlink:href="#DejaVuSans-29" x="1972.84375"/>
     <use xlink:href="#DejaVuSans-20" x="2011.857422"/>
     <use xlink:href="#DejaVuSans-2d" x="2043.644531"/>
     <use xlink:href="#DejaVuSans-20" x="2079.728516"/>
     <use xlink:href="#DejaVuSans-44" x="2111.515625"/>
     <use xlink:href="#DejaVuSans-61" x="2188.517578"/>
     <use xlink:href="#DejaVuSans-74" x="2249.796875"/>
     <use xlink:href="#DejaVuSans-61" x="2289.005859"/>
     <use xlink:href="#DejaVuSans-73" x="2350.285156"/>
     <use xlink:href="#DejaVuSans-65" x="2402.384766"/>
     <use xlink:href="#DejaVuSans-74" x="2463.908203"/>
    </g>
   </g>
   <g id="legend_1">
    <g id="patch_7">
     <path d="M 732.307813 62.79625 
L 846.2 62.79625 
Q 848.2 62.79625 848.2 60.79625 
L 848.2 32.44 
Q 848.2 30.44 846.2 30.44 
L 732.307813 30.44 
Q 730.307813 30.44 730.307813 32.44 
L 730.307813 60.79625 
Q 730.307813 62.79625 732.307813 62.79625 
z
" style="fill: #ffffff; opacity: 0.8; stroke: #cccccc; stroke-linejoin: miter"/>
    </g>
    <g id="line2d_29">
     <path d="M 734.307813 38.538437 
L 744.307813 38.538437 
L 754.307813 38.538437 
" style="fill: none; stroke: #1f77b4; stroke-width: 1.5; stroke-linecap: square"/>
     <g>
      <use xlink:href="#m3a592b1f49" x="744.307813" y="38.538437" style="fill: #1f77b4; stroke: #1f77b4"/>
     </g>
    </g>
    <g id="text_17">
     <!-- EVM in Windows -->
     <g transform="translate(762.307813 42.038437)scale(0.1 -0.1)">
      <use xlink:href="#DejaVuSans-45"/>
      <use xlink:href="#DejaVuSans-56" x="63.183594"/>
      <use xlink:href="#DejaVuSans-4d" x="131.591797"/>
      <use xlink:href="#DejaVuSans-20" x="217.871094"/>
      <use xlink:href="#DejaVuSans-69" x="249.658203"/>
      <use xlink:href="#DejaVuSans-6e" x="277.441406"/>
      <use xlink:href="#DejaVuSans-20" x="340.820312"/>
      <use xlink:href="#DejaVuSans-57" x="372.607422"/>
      <use xlink:href="#DejaVuSans-69" x="469.234375"/>
      <use xlink:href="#DejaVuSans-6e" x="497.017578"/>
      <use xlink:href="#DejaVuSans-64" x="560.396484"/>
      <use xlink:href="#DejaVuSans-6f" x="623.873047"/>
      <use xlink:href="#DejaVuSans-77" x="685.054688"/>
      <use xlink:href="#DejaVuSans-73" x="766.841797"/>
     </g>
    </g>
    <g id="line2d_30">
     <path d="M 734.307813 53.216563 
L 744.307813 53.216563 
L 754.307813 53.216563 
" style="fill: none; stroke-dasharray: 5.55,2.4; stroke-dashoffset: 0; stroke: #ff0000; stroke-width: 1.5"/>
    </g>
    <g id="text_18">
     <!-- Total EVM -->
     <g transform="translate(762.307813 56.716563)scale(0.1 -0.1)">
      <defs>
       <path id="DejaVuSans-54" d="M -19 4666 
L 3928 4666 
L 3928 4134 
L 2272 4134 
L 2272 0 
L 1638 0 
L 1638 4134 
L -19 4134 
L -19 4666 
z
" transform="scale(0.015625)"/>
       <path id="DejaVuSans-6c" d="M 603 4863 
L 1178 4863 
L 1178 0 
L 603 0 
L 603 4863 
z
" transform="scale(0.015625)"/>
      </defs>
      <use xlink:href="#DejaVuSans-54"/>
      <use xlink:href="#DejaVuSans-6f" x="44.083984"/>
      <use xlink:href="#DejaVuSans-74" x="105.265625"/>
      <use xlink:href="#DejaVuSans-61" x="144.474609"/>
      <use xlink:href="#DejaVuSans-6c" x="205.753906"/>
      <use xlink:href="#DejaVuSans-20" x="233.537109"/>
      <use xlink:href="#DejaVuSans-45" x="265.324219"/>
      <use xlink:href="#DejaVuSans-56" x="328.507812"/>
      <use xlink:href="#DejaVuSans-4d" x="396.916016"/>
     </g>
    </g>
   </g>
  </g>
  <g id="text_19">
   <g id="patch_8">
    <path d="M 124.6 71.879687 
L 282.717188 71.879687 
L 282.717188 41.00375 
L 124.6 41.00375 
z
" style="fill: #ffa500; opacity: 0.5; stroke: #000000; stroke-linejoin: miter"/>
   </g>
   <!-- Delta EVM: 0.43%, -47.37 dB  -->
   <g transform="translate(129.6 53.602188)scale(0.1 -0.1)">
    <defs>
     <path id="DejaVuSans-2c" d="M 750 794 
L 1409 794 
L 1409 256 
L 897 -744 
L 494 -744 
L 750 256 
L 750 794 
z
" transform="scale(0.015625)"/>
     <path id="DejaVuSans-42" d="M 1259 2228 
L 1259 519 
L 2272 519 
Q 2781 519 3026 730 
Q 3272 941 3272 1375 
Q 3272 1813 3026 2020 
Q 2781 2228 2272 2228 
L 1259 2228 
z
M 1259 4147 
L 1259 2741 
L 2194 2741 
Q 2656 2741 2882 2914 
Q 3109 3088 3109 3444 
Q 3109 3797 2882 3972 
Q 2656 4147 2194 4147 
L 1259 4147 
z
M 628 4666 
L 2241 4666 
Q 2963 4666 3353 4366 
Q 3744 4066 3744 3513 
Q 3744 3084 3544 2831 
Q 3344 2578 2956 2516 
Q 3422 2416 3680 2098 
Q 3938 1781 3938 1306 
Q 3938 681 3513 340 
Q 3088 0 2303 0 
L 628 0 
L 628 4666 
z
" transform="scale(0.015625)"/>
    </defs>
    <use xlink:href="#DejaVuSans-44"/>
    <use xlink:href="#DejaVuSans-65" x="77.001953"/>
    <use xlink:href="#DejaVuSans-6c" x="138.525391"/>
    <use xlink:href="#DejaVuSans-74" x="166.308594"/>
    <use xlink:href="#DejaVuSans-61" x="205.517578"/>
    <use xlink:href="#DejaVuSans-20" x="266.796875"/>
    <use xlink:href="#DejaVuSans-45" x="298.583984"/>
    <use xlink:href="#DejaVuSans-56" x="361.767578"/>
    <use xlink:href="#DejaVuSans-4d" x="430.175781"/>
    <use xlink:href="#DejaVuSans-3a" x="516.455078"/>
    <use xlink:href="#DejaVuSans-20" x="550.146484"/>
    <use xlink:href="#DejaVuSans-30" x="581.933594"/>
    <use xlink:href="#DejaVuSans-2e" x="645.556641"/>
    <use xlink:href="#DejaVuSans-34" x="677.34375"/>
    <use xlink:href="#DejaVuSans-33" x="740.966797"/>
    <use xlink:href="#DejaVuSans-25" x="804.589844"/>
    <use xlink:href="#DejaVuSans-2c" x="899.609375"/>
    <use xlink:href="#DejaVuSans-20" x="931.396484"/>
    <use xlink:href="#DejaVuSans-2d" x="963.183594"/>
    <use xlink:href="#DejaVuSans-34" x="999.267578"/>
    <use xlink:href="#DejaVuSans-37" x="1062.890625"/>
    <use xlink:href="#DejaVuSans-2e" x="1126.513672"/>
    <use xlink:href="#DejaVuSans-33" x="1158.300781"/>
    <use xlink:href="#DejaVuSans-37" x="1221.923828"/>
    <use xlink:href="#DejaVuSans-20" x="1285.546875"/>
    <use xlink:href="#DejaVuSans-64" x="1317.333984"/>
    <use xlink:href="#DejaVuSans-42" x="1380.810547"/>
    <use xlink:href="#DejaVuSans-20" x="1449.414062"/>
   </g>
   <!-- Total EVM: 12.89% -->
   <g transform="translate(129.6 64.8)scale(0.1 -0.1)">
    <use xlink:href="#DejaVuSans-54"/>
    <use xlink:href="#DejaVuSans-6f" x="44.083984"/>
    <use xlink:href="#DejaVuSans-74" x="105.265625"/>
    <use xlink:href="#DejaVuSans-61" x="144.474609"/>
    <use xlink:href="#DejaVuSans-6c" x="205.753906"/>
    <use xlink:href="#DejaVuSans-20" x="233.537109"/>
    <use xlink:href="#DejaVuSans-45" x="265.324219"/>
    <use xlink:href="#DejaVuSans-56" x="328.507812"/>
    <use xlink:href="#DejaVuSans-4d" x="396.916016"/>
    <use xlink:href="#DejaVuSans-3a" x="483.195312"/>
    <use xlink:href="#DejaVuSans-20" x="516.886719"/>
    <use xlink:href="#DejaVuSans-31" x="548.673828"/>
    <use xlink:href="#DejaVuSans-32" x="612.296875"/>
    <use xlink:href="#DejaVuSans-2e" x="675.919922"/>
    <use xlink:href="#DejaVuSans-38" x="707.707031"/>
    <use xlink:href="#DejaVuSans-39" x="771.330078"/>
    <use xlink:href="#DejaVuSans-25" x="834.953125"/>
   </g>
  </g>
 </g>
 <defs>
  <clipPath id="pe41b84ddc5">
   <rect x="54.2" y="25.44" width="799" height="364.6"/>
  </clipPath>
 </defs>
</svg>
