<?xml version="1.0" encoding="utf-8" standalone="no"?>
<!DOCTYPE svg PUBLIC "-//W3C//DTD SVG 1.1//EN"
  "http://www.w3.org/Graphics/SVG/1.1/DTD/svg11.dtd">
<svg xmlns:xlink="http://www.w3.org/1999/xlink" width="720pt" height="288pt" viewBox="0 0 720 288" xmlns="http://www.w3.org/2000/svg" version="1.1">
 <metadata>
  <rdf:RDF xmlns:dc="http://purl.org/dc/elements/1.1/" xmlns:cc="http://creativecommons.org/ns#" xmlns:rdf="http://www.w3.org/1999/02/22-rdf-syntax-ns#">
   <cc:Work>
    <dc:type rdf:resource="http://purl.org/dc/dcmitype/StillImage"/>
    <dc:date>2025-06-02T16:04:08.987460</dc:date>
    <dc:format>image/svg+xml</dc:format>
    <dc:creator>
     <cc:Agent>
      <dc:title>Matplotlib v3.5.1, https://matplotlib.org/</dc:title>
     </cc:Agent>
    </dc:creator>
   </cc:Work>
  </rdf:RDF>
 </metadata>
 <defs>
  <style type="text/css">*{stroke-linejoin: round; stroke-linecap: butt}</style>
 </defs>
 <g id="figure_1">
  <g id="patch_1">
   <path d="M 0 288 
L 720 288 
L 720 0 
L 0 0 
z
" style="fill: #ffffff"/>
  </g>
  <g id="axes_1">
   <g id="patch_2">
    <path d="M 46.64 246.04 
L 709.2 246.04 
L 709.2 25.44 
L 46.64 25.44 
z
" style="fill: #ffffff"/>
   </g>
   <g id="matplotlib.axis_1">
    <g id="xtick_1">
     <g id="line2d_1">
      <path d="M 76.756364 246.04 
L 76.756364 25.44 
" clip-path="url(#p3ffa0125d6)" style="fill: none; stroke: #b0b0b0; stroke-width: 0.8; stroke-linecap: square"/>
     </g>
     <g id="line2d_2">
      <defs>
       <path id="m9ddf7d7c4d" d="M 0 0 
L 0 3.5 
" style="stroke: #000000; stroke-width: 0.8"/>
      </defs>
      <g>
       <use xlink:href="#m9ddf7d7c4d" x="76.756364" y="246.04" style="stroke: #000000; stroke-width: 0.8"/>
      </g>
     </g>
     <g id="text_1">
      <!-- 0 -->
      <g transform="translate(73.575114 260.638438)scale(0.1 -0.1)">
       <defs>
        <path id="DejaVuSans-30" d="M 2034 4250 
Q 1547 4250 1301 3770 
Q 1056 3291 1056 2328 
Q 1056 1369 1301 889 
Q 1547 409 2034 409 
Q 2525 409 2770 889 
Q 3016 1369 3016 2328 
Q 3016 3291 2770 3770 
Q 2525 4250 2034 4250 
z
M 2034 4750 
Q 2819 4750 3233 4129 
Q 3647 3509 3647 2328 
Q 3647 1150 3233 529 
Q 2819 -91 2034 -91 
Q 1250 -91 836 529 
Q 422 1150 422 2328 
Q 422 3509 836 4129 
Q 1250 4750 2034 4750 
z
" transform="scale(0.015625)"/>
       </defs>
       <use xlink:href="#DejaVuSans-30"/>
      </g>
     </g>
    </g>
    <g id="xtick_2">
     <g id="line2d_3">
      <path d="M 198.438641 246.04 
L 198.438641 25.44 
" clip-path="url(#p3ffa0125d6)" style="fill: none; stroke: #b0b0b0; stroke-width: 0.8; stroke-linecap: square"/>
     </g>
     <g id="line2d_4">
      <g>
       <use xlink:href="#m9ddf7d7c4d" x="198.438641" y="246.04" style="stroke: #000000; stroke-width: 0.8"/>
      </g>
     </g>
     <g id="text_2">
      <!-- 20 -->
      <g transform="translate(192.076141 260.638438)scale(0.1 -0.1)">
       <defs>
        <path id="DejaVuSans-32" d="M 1228 531 
L 3431 531 
L 3431 0 
L 469 0 
L 469 531 
Q 828 903 1448 1529 
Q 2069 2156 2228 2338 
Q 2531 2678 2651 2914 
Q 2772 3150 2772 3378 
Q 2772 3750 2511 3984 
Q 2250 4219 1831 4219 
Q 1534 4219 1204 4116 
Q 875 4013 500 3803 
L 500 4441 
Q 881 4594 1212 4672 
Q 1544 4750 1819 4750 
Q 2544 4750 2975 4387 
Q 3406 4025 3406 3419 
Q 3406 3131 3298 2873 
Q 3191 2616 2906 2266 
Q 2828 2175 2409 1742 
Q 1991 1309 1228 531 
z
" transform="scale(0.015625)"/>
       </defs>
       <use xlink:href="#DejaVuSans-32"/>
       <use xlink:href="#DejaVuSans-30" x="63.623047"/>
      </g>
     </g>
    </g>
    <g id="xtick_3">
     <g id="line2d_5">
      <path d="M 320.120918 246.04 
L 320.120918 25.44 
" clip-path="url(#p3ffa0125d6)" style="fill: none; stroke: #b0b0b0; stroke-width: 0.8; stroke-linecap: square"/>
     </g>
     <g id="line2d_6">
      <g>
       <use xlink:href="#m9ddf7d7c4d" x="320.120918" y="246.04" style="stroke: #000000; stroke-width: 0.8"/>
      </g>
     </g>
     <g id="text_3">
      <!-- 40 -->
      <g transform="translate(313.758418 260.638438)scale(0.1 -0.1)">
       <defs>
        <path id="DejaVuSans-34" d="M 2419 4116 
L 825 1625 
L 2419 1625 
L 2419 4116 
z
M 2253 4666 
L 3047 4666 
L 3047 1625 
L 3713 1625 
L 3713 1100 
L 3047 1100 
L 3047 0 
L 2419 0 
L 2419 1100 
L 313 1100 
L 313 1709 
L 2253 4666 
z
" transform="scale(0.015625)"/>
       </defs>
       <use xlink:href="#DejaVuSans-34"/>
       <use xlink:href="#DejaVuSans-30" x="63.623047"/>
      </g>
     </g>
    </g>
    <g id="xtick_4">
     <g id="line2d_7">
      <path d="M 441.803196 246.04 
L 441.803196 25.44 
" clip-path="url(#p3ffa0125d6)" style="fill: none; stroke: #b0b0b0; stroke-width: 0.8; stroke-linecap: square"/>
     </g>
     <g id="line2d_8">
      <g>
       <use xlink:href="#m9ddf7d7c4d" x="441.803196" y="246.04" style="stroke: #000000; stroke-width: 0.8"/>
      </g>
     </g>
     <g id="text_4">
      <!-- 60 -->
      <g transform="translate(435.440696 260.638438)scale(0.1 -0.1)">
       <defs>
        <path id="DejaVuSans-36" d="M 2113 2584 
Q 1688 2584 1439 2293 
Q 1191 2003 1191 1497 
Q 1191 994 1439 701 
Q 1688 409 2113 409 
Q 2538 409 2786 701 
Q 3034 994 3034 1497 
Q 3034 2003 2786 2293 
Q 2538 2584 2113 2584 
z
M 3366 4563 
L 3366 3988 
Q 3128 4100 2886 4159 
Q 2644 4219 2406 4219 
Q 1781 4219 1451 3797 
Q 1122 3375 1075 2522 
Q 1259 2794 1537 2939 
Q 1816 3084 2150 3084 
Q 2853 3084 3261 2657 
Q 3669 2231 3669 1497 
Q 3669 778 3244 343 
Q 2819 -91 2113 -91 
Q 1303 -91 875 529 
Q 447 1150 447 2328 
Q 447 3434 972 4092 
Q 1497 4750 2381 4750 
Q 2619 4750 2861 4703 
Q 3103 4656 3366 4563 
z
" transform="scale(0.015625)"/>
       </defs>
       <use xlink:href="#DejaVuSans-36"/>
       <use xlink:href="#DejaVuSans-30" x="63.623047"/>
      </g>
     </g>
    </g>
    <g id="xtick_5">
     <g id="line2d_9">
      <path d="M 563.485473 246.04 
L 563.485473 25.44 
" clip-path="url(#p3ffa0125d6)" style="fill: none; stroke: #b0b0b0; stroke-width: 0.8; stroke-linecap: square"/>
     </g>
     <g id="line2d_10">
      <g>
       <use xlink:href="#m9ddf7d7c4d" x="563.485473" y="246.04" style="stroke: #000000; stroke-width: 0.8"/>
      </g>
     </g>
     <g id="text_5">
      <!-- 80 -->
      <g transform="translate(557.122973 260.638438)scale(0.1 -0.1)">
       <defs>
        <path id="DejaVuSans-38" d="M 2034 2216 
Q 1584 2216 1326 1975 
Q 1069 1734 1069 1313 
Q 1069 891 1326 650 
Q 1584 409 2034 409 
Q 2484 409 2743 651 
Q 3003 894 3003 1313 
Q 3003 1734 2745 1975 
Q 2488 2216 2034 2216 
z
M 1403 2484 
Q 997 2584 770 2862 
Q 544 3141 544 3541 
Q 544 4100 942 4425 
Q 1341 4750 2034 4750 
Q 2731 4750 3128 4425 
Q 3525 4100 3525 3541 
Q 3525 3141 3298 2862 
Q 3072 2584 2669 2484 
Q 3125 2378 3379 2068 
Q 3634 1759 3634 1313 
Q 3634 634 3220 271 
Q 2806 -91 2034 -91 
Q 1263 -91 848 271 
Q 434 634 434 1313 
Q 434 1759 690 2068 
Q 947 2378 1403 2484 
z
M 1172 3481 
Q 1172 3119 1398 2916 
Q 1625 2713 2034 2713 
Q 2441 2713 2670 2916 
Q 2900 3119 2900 3481 
Q 2900 3844 2670 4047 
Q 2441 4250 2034 4250 
Q 1625 4250 1398 4047 
Q 1172 3844 1172 3481 
z
" transform="scale(0.015625)"/>
       </defs>
       <use xlink:href="#DejaVuSans-38"/>
       <use xlink:href="#DejaVuSans-30" x="63.623047"/>
      </g>
     </g>
    </g>
    <g id="xtick_6">
     <g id="line2d_11">
      <path d="M 685.16775 246.04 
L 685.16775 25.44 
" clip-path="url(#p3ffa0125d6)" style="fill: none; stroke: #b0b0b0; stroke-width: 0.8; stroke-linecap: square"/>
     </g>
     <g id="line2d_12">
      <g>
       <use xlink:href="#m9ddf7d7c4d" x="685.16775" y="246.04" style="stroke: #000000; stroke-width: 0.8"/>
      </g>
     </g>
     <g id="text_6">
      <!-- 100 -->
      <g transform="translate(675.624 260.638438)scale(0.1 -0.1)">
       <defs>
        <path id="DejaVuSans-31" d="M 794 531 
L 1825 531 
L 1825 4091 
L 703 3866 
L 703 4441 
L 1819 4666 
L 2450 4666 
L 2450 531 
L 3481 531 
L 3481 0 
L 794 0 
L 794 531 
z
" transform="scale(0.015625)"/>
       </defs>
       <use xlink:href="#DejaVuSans-31"/>
       <use xlink:href="#DejaVuSans-30" x="63.623047"/>
       <use xlink:href="#DejaVuSans-30" x="127.246094"/>
      </g>
     </g>
    </g>
    <g id="text_7">
     <!-- Índice -->
     <g transform="translate(362.887188 274.316562)scale(0.1 -0.1)">
      <defs>
       <path id="DejaVuSans-cd" d="M 628 4666 
L 1259 4666 
L 1259 0 
L 628 0 
L 628 4666 
z
M 1119 5935 
L 1697 5935 
L 984 5110 
L 506 5110 
L 1119 5935 
z
" transform="scale(0.015625)"/>
       <path id="DejaVuSans-6e" d="M 3513 2113 
L 3513 0 
L 2938 0 
L 2938 2094 
Q 2938 2591 2744 2837 
Q 2550 3084 2163 3084 
Q 1697 3084 1428 2787 
Q 1159 2491 1159 1978 
L 1159 0 
L 581 0 
L 581 3500 
L 1159 3500 
L 1159 2956 
Q 1366 3272 1645 3428 
Q 1925 3584 2291 3584 
Q 2894 3584 3203 3211 
Q 3513 2838 3513 2113 
z
" transform="scale(0.015625)"/>
       <path id="DejaVuSans-64" d="M 2906 2969 
L 2906 4863 
L 3481 4863 
L 3481 0 
L 2906 0 
L 2906 525 
Q 2725 213 2448 61 
Q 2172 -91 1784 -91 
Q 1150 -91 751 415 
Q 353 922 353 1747 
Q 353 2572 751 3078 
Q 1150 3584 1784 3584 
Q 2172 3584 2448 3432 
Q 2725 3281 2906 2969 
z
M 947 1747 
Q 947 1113 1208 752 
Q 1469 391 1925 391 
Q 2381 391 2643 752 
Q 2906 1113 2906 1747 
Q 2906 2381 2643 2742 
Q 2381 3103 1925 3103 
Q 1469 3103 1208 2742 
Q 947 2381 947 1747 
z
" transform="scale(0.015625)"/>
       <path id="DejaVuSans-69" d="M 603 3500 
L 1178 3500 
L 1178 0 
L 603 0 
L 603 3500 
z
M 603 4863 
L 1178 4863 
L 1178 4134 
L 603 4134 
L 603 4863 
z
" transform="scale(0.015625)"/>
       <path id="DejaVuSans-63" d="M 3122 3366 
L 3122 2828 
Q 2878 2963 2633 3030 
Q 2388 3097 2138 3097 
Q 1578 3097 1268 2742 
Q 959 2388 959 1747 
Q 959 1106 1268 751 
Q 1578 397 2138 397 
Q 2388 397 2633 464 
Q 2878 531 3122 666 
L 3122 134 
Q 2881 22 2623 -34 
Q 2366 -91 2075 -91 
Q 1284 -91 818 406 
Q 353 903 353 1747 
Q 353 2603 823 3093 
Q 1294 3584 2113 3584 
Q 2378 3584 2631 3529 
Q 2884 3475 3122 3366 
z
" transform="scale(0.015625)"/>
       <path id="DejaVuSans-65" d="M 3597 1894 
L 3597 1613 
L 953 1613 
Q 991 1019 1311 708 
Q 1631 397 2203 397 
Q 2534 397 2845 478 
Q 3156 559 3463 722 
L 3463 178 
Q 3153 47 2828 -22 
Q 2503 -91 2169 -91 
Q 1331 -91 842 396 
Q 353 884 353 1716 
Q 353 2575 817 3079 
Q 1281 3584 2069 3584 
Q 2775 3584 3186 3129 
Q 3597 2675 3597 1894 
z
M 3022 2063 
Q 3016 2534 2758 2815 
Q 2500 3097 2075 3097 
Q 1594 3097 1305 2825 
Q 1016 2553 972 2059 
L 3022 2063 
z
" transform="scale(0.015625)"/>
      </defs>
      <use xlink:href="#DejaVuSans-cd"/>
      <use xlink:href="#DejaVuSans-6e" x="29.492188"/>
      <use xlink:href="#DejaVuSans-64" x="92.871094"/>
      <use xlink:href="#DejaVuSans-69" x="156.347656"/>
      <use xlink:href="#DejaVuSans-63" x="184.130859"/>
      <use xlink:href="#DejaVuSans-65" x="239.111328"/>
     </g>
    </g>
   </g>
   <g id="matplotlib.axis_2">
    <g id="ytick_1">
     <g id="line2d_13">
      <path d="M 46.64 232.095055 
L 709.2 232.095055 
" clip-path="url(#p3ffa0125d6)" style="fill: none; stroke: #b0b0b0; stroke-width: 0.8; stroke-linecap: square"/>
     </g>
     <g id="line2d_14">
      <defs>
       <path id="me70b9c4625" d="M 0 0 
L -3.5 0 
" style="stroke: #000000; stroke-width: 0.8"/>
      </defs>
      <g>
       <use xlink:href="#me70b9c4625" x="46.64" y="232.095055" style="stroke: #000000; stroke-width: 0.8"/>
      </g>
     </g>
     <g id="text_8">
      <!-- −3 -->
      <g transform="translate(24.897813 235.894274)scale(0.1 -0.1)">
       <defs>
        <path id="DejaVuSans-2212" d="M 678 2272 
L 4684 2272 
L 4684 1741 
L 678 1741 
L 678 2272 
z
" transform="scale(0.015625)"/>
        <path id="DejaVuSans-33" d="M 2597 2516 
Q 3050 2419 3304 2112 
Q 3559 1806 3559 1356 
Q 3559 666 3084 287 
Q 2609 -91 1734 -91 
Q 1441 -91 1130 -33 
Q 819 25 488 141 
L 488 750 
Q 750 597 1062 519 
Q 1375 441 1716 441 
Q 2309 441 2620 675 
Q 2931 909 2931 1356 
Q 2931 1769 2642 2001 
Q 2353 2234 1838 2234 
L 1294 2234 
L 1294 2753 
L 1863 2753 
Q 2328 2753 2575 2939 
Q 2822 3125 2822 3475 
Q 2822 3834 2567 4026 
Q 2313 4219 1838 4219 
Q 1578 4219 1281 4162 
Q 984 4106 628 3988 
L 628 4550 
Q 988 4650 1302 4700 
Q 1616 4750 1894 4750 
Q 2613 4750 3031 4423 
Q 3450 4097 3450 3541 
Q 3450 3153 3228 2886 
Q 3006 2619 2597 2516 
z
" transform="scale(0.015625)"/>
       </defs>
       <use xlink:href="#DejaVuSans-2212"/>
       <use xlink:href="#DejaVuSans-33" x="83.789062"/>
      </g>
     </g>
    </g>
    <g id="ytick_2">
     <g id="line2d_15">
      <path d="M 46.64 199.991139 
L 709.2 199.991139 
" clip-path="url(#p3ffa0125d6)" style="fill: none; stroke: #b0b0b0; stroke-width: 0.8; stroke-linecap: square"/>
     </g>
     <g id="line2d_16">
      <g>
       <use xlink:href="#me70b9c4625" x="46.64" y="199.991139" style="stroke: #000000; stroke-width: 0.8"/>
      </g>
     </g>
     <g id="text_9">
      <!-- −2 -->
      <g transform="translate(24.897813 203.790358)scale(0.1 -0.1)">
       <use xlink:href="#DejaVuSans-2212"/>
       <use xlink:href="#DejaVuSans-32" x="83.789062"/>
      </g>
     </g>
    </g>
    <g id="ytick_3">
     <g id="line2d_17">
      <path d="M 46.64 167.887223 
L 709.2 167.887223 
" clip-path="url(#p3ffa0125d6)" style="fill: none; stroke: #b0b0b0; stroke-width: 0.8; stroke-linecap: square"/>
     </g>
     <g id="line2d_18">
      <g>
       <use xlink:href="#me70b9c4625" x="46.64" y="167.887223" style="stroke: #000000; stroke-width: 0.8"/>
      </g>
     </g>
     <g id="text_10">
      <!-- −1 -->
      <g transform="translate(24.897813 171.686442)scale(0.1 -0.1)">
       <use xlink:href="#DejaVuSans-2212"/>
       <use xlink:href="#DejaVuSans-31" x="83.789062"/>
      </g>
     </g>
    </g>
    <g id="ytick_4">
     <g id="line2d_19">
      <path d="M 46.64 135.783307 
L 709.2 135.783307 
" clip-path="url(#p3ffa0125d6)" style="fill: none; stroke: #b0b0b0; stroke-width: 0.8; stroke-linecap: square"/>
     </g>
     <g id="line2d_20">
      <g>
       <use xlink:href="#me70b9c4625" x="46.64" y="135.783307" style="stroke: #000000; stroke-width: 0.8"/>
      </g>
     </g>
     <g id="text_11">
      <!-- 0 -->
      <g transform="translate(33.2775 139.582526)scale(0.1 -0.1)">
       <use xlink:href="#DejaVuSans-30"/>
      </g>
     </g>
    </g>
    <g id="ytick_5">
     <g id="line2d_21">
      <path d="M 46.64 103.679391 
L 709.2 103.679391 
" clip-path="url(#p3ffa0125d6)" style="fill: none; stroke: #b0b0b0; stroke-width: 0.8; stroke-linecap: square"/>
     </g>
     <g id="line2d_22">
      <g>
       <use xlink:href="#me70b9c4625" x="46.64" y="103.679391" style="stroke: #000000; stroke-width: 0.8"/>
      </g>
     </g>
     <g id="text_12">
      <!-- 1 -->
      <g transform="translate(33.2775 107.47861)scale(0.1 -0.1)">
       <use xlink:href="#DejaVuSans-31"/>
      </g>
     </g>
    </g>
    <g id="ytick_6">
     <g id="line2d_23">
      <path d="M 46.64 71.575475 
L 709.2 71.575475 
" clip-path="url(#p3ffa0125d6)" style="fill: none; stroke: #b0b0b0; stroke-width: 0.8; stroke-linecap: square"/>
     </g>
     <g id="line2d_24">
      <g>
       <use xlink:href="#me70b9c4625" x="46.64" y="71.575475" style="stroke: #000000; stroke-width: 0.8"/>
      </g>
     </g>
     <g id="text_13">
      <!-- 2 -->
      <g transform="translate(33.2775 75.374694)scale(0.1 -0.1)">
       <use xlink:href="#DejaVuSans-32"/>
      </g>
     </g>
    </g>
    <g id="ytick_7">
     <g id="line2d_25">
      <path d="M 46.64 39.471559 
L 709.2 39.471559 
" clip-path="url(#p3ffa0125d6)" style="fill: none; stroke: #b0b0b0; stroke-width: 0.8; stroke-linecap: square"/>
     </g>
     <g id="line2d_26">
      <g>
       <use xlink:href="#me70b9c4625" x="46.64" y="39.471559" style="stroke: #000000; stroke-width: 0.8"/>
      </g>
     </g>
     <g id="text_14">
      <!-- 3 -->
      <g transform="translate(33.2775 43.270778)scale(0.1 -0.1)">
       <use xlink:href="#DejaVuSans-33"/>
      </g>
     </g>
    </g>
    <g id="text_15">
     <!-- Fase (rad) -->
     <g transform="translate(18.818125 160.689219)rotate(-90)scale(0.1 -0.1)">
      <defs>
       <path id="DejaVuSans-46" d="M 628 4666 
L 3309 4666 
L 3309 4134 
L 1259 4134 
L 1259 2759 
L 3109 2759 
L 3109 2228 
L 1259 2228 
L 1259 0 
L 628 0 
L 628 4666 
z
" transform="scale(0.015625)"/>
       <path id="DejaVuSans-61" d="M 2194 1759 
Q 1497 1759 1228 1600 
Q 959 1441 959 1056 
Q 959 750 1161 570 
Q 1363 391 1709 391 
Q 2188 391 2477 730 
Q 2766 1069 2766 1631 
L 2766 1759 
L 2194 1759 
z
M 3341 1997 
L 3341 0 
L 2766 0 
L 2766 531 
Q 2569 213 2275 61 
Q 1981 -91 1556 -91 
Q 1019 -91 701 211 
Q 384 513 384 1019 
Q 384 1609 779 1909 
Q 1175 2209 1959 2209 
L 2766 2209 
L 2766 2266 
Q 2766 2663 2505 2880 
Q 2244 3097 1772 3097 
Q 1472 3097 1187 3025 
Q 903 2953 641 2809 
L 641 3341 
Q 956 3463 1253 3523 
Q 1550 3584 1831 3584 
Q 2591 3584 2966 3190 
Q 3341 2797 3341 1997 
z
" transform="scale(0.015625)"/>
       <path id="DejaVuSans-73" d="M 2834 3397 
L 2834 2853 
Q 2591 2978 2328 3040 
Q 2066 3103 1784 3103 
Q 1356 3103 1142 2972 
Q 928 2841 928 2578 
Q 928 2378 1081 2264 
Q 1234 2150 1697 2047 
L 1894 2003 
Q 2506 1872 2764 1633 
Q 3022 1394 3022 966 
Q 3022 478 2636 193 
Q 2250 -91 1575 -91 
Q 1294 -91 989 -36 
Q 684 19 347 128 
L 347 722 
Q 666 556 975 473 
Q 1284 391 1588 391 
Q 1994 391 2212 530 
Q 2431 669 2431 922 
Q 2431 1156 2273 1281 
Q 2116 1406 1581 1522 
L 1381 1569 
Q 847 1681 609 1914 
Q 372 2147 372 2553 
Q 372 3047 722 3315 
Q 1072 3584 1716 3584 
Q 2034 3584 2315 3537 
Q 2597 3491 2834 3397 
z
" transform="scale(0.015625)"/>
       <path id="DejaVuSans-20" transform="scale(0.015625)"/>
       <path id="DejaVuSans-28" d="M 1984 4856 
Q 1566 4138 1362 3434 
Q 1159 2731 1159 2009 
Q 1159 1288 1364 580 
Q 1569 -128 1984 -844 
L 1484 -844 
Q 1016 -109 783 600 
Q 550 1309 550 2009 
Q 550 2706 781 3412 
Q 1013 4119 1484 4856 
L 1984 4856 
z
" transform="scale(0.015625)"/>
       <path id="DejaVuSans-72" d="M 2631 2963 
Q 2534 3019 2420 3045 
Q 2306 3072 2169 3072 
Q 1681 3072 1420 2755 
Q 1159 2438 1159 1844 
L 1159 0 
L 581 0 
L 581 3500 
L 1159 3500 
L 1159 2956 
Q 1341 3275 1631 3429 
Q 1922 3584 2338 3584 
Q 2397 3584 2469 3576 
Q 2541 3569 2628 3553 
L 2631 2963 
z
" transform="scale(0.015625)"/>
       <path id="DejaVuSans-29" d="M 513 4856 
L 1013 4856 
Q 1481 4119 1714 3412 
Q 1947 2706 1947 2009 
Q 1947 1309 1714 600 
Q 1481 -109 1013 -844 
L 513 -844 
Q 928 -128 1133 580 
Q 1338 1288 1338 2009 
Q 1338 2731 1133 3434 
Q 928 4138 513 4856 
z
" transform="scale(0.015625)"/>
      </defs>
      <use xlink:href="#DejaVuSans-46"/>
      <use xlink:href="#DejaVuSans-61" x="48.394531"/>
      <use xlink:href="#DejaVuSans-73" x="109.673828"/>
      <use xlink:href="#DejaVuSans-65" x="161.773438"/>
      <use xlink:href="#DejaVuSans-20" x="223.296875"/>
      <use xlink:href="#DejaVuSans-28" x="255.083984"/>
      <use xlink:href="#DejaVuSans-72" x="294.097656"/>
      <use xlink:href="#DejaVuSans-61" x="335.210938"/>
      <use xlink:href="#DejaVuSans-64" x="396.490234"/>
      <use xlink:href="#DejaVuSans-29" x="459.966797"/>
     </g>
    </g>
   </g>
   <g id="line2d_27">
    <path d="M 76.756364 71.518016 
L 82.840478 62.887977 
L 88.924591 78.439329 
L 95.008705 65.674034 
L 101.092819 44.979906 
L 107.176933 190.410713 
L 113.261047 196.517436 
L 119.345161 229.461806 
L 125.429275 146.968894 
L 131.513388 212.38321 
L 137.597502 226.612955 
L 143.681616 219.915319 
L 149.76573 179.736506 
L 155.849844 149.404069 
L 161.933958 227.340729 
L 168.018072 232.819874 
L 174.102185 127.593009 
L 180.186299 141.425833 
L 186.270413 60.185213 
L 192.354527 59.94054 
L 198.438641 163.732306 
L 204.522755 62.213568 
L 210.606869 201.994213 
L 216.690983 142.019424 
L 222.775096 181.212781 
L 228.85921 42.328279 
L 234.943324 185.493487 
L 241.027438 102.403254 
L 247.111552 95.661556 
L 253.195666 226.482589 
L 259.27978 212.213907 
L 265.363893 167.396736 
L 271.448007 35.467273 
L 277.532121 156.623519 
L 283.616235 91.822776 
L 289.700349 227.527376 
L 295.784463 69.332436 
L 301.868577 114.77107 
L 307.952691 104.329035 
L 314.036804 151.667788 
L 320.120918 56.145572 
L 326.205032 59.883187 
L 332.289146 79.167467 
L 338.37326 83.643116 
L 344.457374 150.075304 
L 350.541488 95.440933 
L 356.625601 50.62465 
L 362.709715 152.566839 
L 368.793829 210.373294 
L 374.877943 205.486527 
L 380.962057 204.260253 
L 387.046171 225.736782 
L 393.130285 153.843855 
L 399.214399 63.479078 
L 405.298512 61.929767 
L 411.382626 105.13345 
L 417.46674 219.104138 
L 423.550854 113.243472 
L 429.634968 112.5775 
L 435.719082 208.886808 
L 441.803196 211.511254 
L 447.887309 142.1651 
L 453.971423 168.241076 
L 460.055537 192.83382 
L 466.139651 149.672689 
L 472.223765 194.727833 
L 478.307879 61.57433 
L 484.391993 93.914791 
L 490.476107 77.4494 
L 496.56022 112.419407 
L 502.644334 219.161031 
L 508.728448 215.501649 
L 514.812562 50.968766 
L 520.896676 120.012453 
L 526.98079 99.982955 
L 533.064904 222.699944 
L 539.149017 194.313984 
L 545.233131 139.035247 
L 551.317245 214.665844 
L 557.401359 155.83901 
L 563.485473 120.993729 
L 569.569587 96.506305 
L 575.653701 214.579574 
L 581.737815 208.439858 
L 587.821928 164.16952 
L 593.906042 60.546436 
L 599.990156 93.101325 
L 606.07427 211.845795 
L 612.158384 68.716536 
L 618.242498 216.483465 
L 624.326612 147.621975 
L 630.410725 134.444065 
L 636.494839 161.95271 
L 642.578953 216.355181 
L 648.663067 82.638977 
L 654.747181 193.616463 
L 660.831295 217.342347 
L 666.915409 57.948068 
L 672.999522 50.307775 
L 679.083636 170.76769 
" clip-path="url(#p3ffa0125d6)" style="fill: none; stroke: #1f77b4; stroke-width: 1.5; stroke-linecap: square"/>
   </g>
   <g id="line2d_28">
    <path d="M 76.756364 72.044374 
L 82.840478 65.871634 
L 88.924591 77.803934 
L 95.008705 67.346057 
L 101.092819 50.12846 
L 107.176933 192.353012 
L 113.261047 192.445942 
L 119.345161 220.00958 
L 125.429275 148.929213 
L 131.513388 197.300488 
L 137.597502 215.815768 
L 143.681616 222.361148 
L 149.76573 184.196874 
L 155.849844 155.048899 
L 161.933958 229.393501 
L 168.018072 236.012727 
L 174.102185 128.986538 
L 180.186299 133.072211 
L 186.270413 51.886156 
L 192.354527 58.629564 
L 198.438641 167.589409 
L 204.522755 60.393085 
L 210.606869 205.474755 
L 216.690983 144.899282 
L 222.775096 179.749882 
L 228.85921 55.944007 
L 234.943324 188.669447 
L 241.027438 103.381315 
L 247.111552 92.019182 
L 253.195666 215.930642 
L 259.27978 228.105725 
L 265.363893 140.815082 
L 271.448007 40.289897 
L 277.532121 157.618645 
L 283.616235 93.707657 
L 289.700349 224.065578 
L 295.784463 69.498088 
L 301.868577 113.3239 
L 307.952691 104.551021 
L 314.036804 161.728219 
L 320.120918 43.118021 
L 326.205032 58.893174 
L 332.289146 76.298018 
L 338.37326 81.689294 
L 344.457374 147.464123 
L 350.541488 91.544225 
L 356.625601 52.812035 
L 362.709715 152.965159 
L 368.793829 201.85444 
L 374.877943 199.987683 
L 380.962057 189.085635 
L 387.046171 228.802951 
L 393.130285 148.669125 
L 399.214399 55.009035 
L 405.298512 58.743122 
L 411.382626 104.266147 
L 417.46674 220.363677 
L 423.550854 117.536528 
L 429.634968 120.172683 
L 435.719082 201.2496 
L 441.803196 210.672174 
L 447.887309 161.608414 
L 453.971423 171.56473 
L 460.055537 196.411544 
L 466.139651 156.815767 
L 472.223765 191.49594 
L 478.307879 54.138893 
L 484.391993 94.878033 
L 490.476107 86.128253 
L 496.56022 116.671346 
L 502.644334 216.300109 
L 508.728448 219.351138 
L 514.812562 48.690234 
L 520.896676 119.920805 
L 526.98079 96.816483 
L 533.064904 207.476144 
L 539.149017 183.774226 
L 545.233131 138.179358 
L 551.317245 205.099448 
L 557.401359 155.000056 
L 563.485473 122.472706 
L 569.569587 103.448488 
L 575.653701 216.364465 
L 581.737815 209.313099 
L 587.821928 167.742992 
L 593.906042 60.569192 
L 599.990156 95.022395 
L 606.07427 210.999106 
L 612.158384 67.060824 
L 618.242498 215.791474 
L 624.326612 154.649968 
L 630.410725 139.342163 
L 636.494839 168.231665 
L 642.578953 212.960962 
L 648.663067 89.49316 
L 654.747181 193.875151 
L 660.831295 37.557167 
L 666.915409 52.284089 
L 672.999522 45.626691 
L 679.083636 166.536842 
" clip-path="url(#p3ffa0125d6)" style="fill: none; stroke: #ff7f0e; stroke-width: 1.5; stroke-linecap: square"/>
   </g>
   <g id="patch_3">
    <path d="M 46.64 246.04 
L 46.64 25.44 
" style="fill: none; stroke: #000000; stroke-width: 0.8; stroke-linejoin: miter; stroke-linecap: square"/>
   </g>
   <g id="patch_4">
    <path d="M 709.2 246.04 
L 709.2 25.44 
" style="fill: none; stroke: #000000; stroke-width: 0.8; stroke-linejoin: miter; stroke-linecap: square"/>
   </g>
   <g id="patch_5">
    <path d="M 46.64 246.04 
L 709.2 246.04 
" style="fill: none; stroke: #000000; stroke-width: 0.8; stroke-linejoin: miter; stroke-linecap: square"/>
   </g>
   <g id="patch_6">
    <path d="M 46.64 25.44 
L 709.2 25.44 
" style="fill: none; stroke: #000000; stroke-width: 0.8; stroke-linejoin: miter; stroke-linecap: square"/>
   </g>
   <g id="text_16">
    <!-- Fases - amostras do meio -->
    <g transform="translate(301.310313 19.44)scale(0.12 -0.12)">
     <defs>
      <path id="DejaVuSans-2d" d="M 313 2009 
L 1997 2009 
L 1997 1497 
L 313 1497 
L 313 2009 
z
" transform="scale(0.015625)"/>
      <path id="DejaVuSans-6d" d="M 3328 2828 
Q 3544 3216 3844 3400 
Q 4144 3584 4550 3584 
Q 5097 3584 5394 3201 
Q 5691 2819 5691 2113 
L 5691 0 
L 5113 0 
L 5113 2094 
Q 5113 2597 4934 2840 
Q 4756 3084 4391 3084 
Q 3944 3084 3684 2787 
Q 3425 2491 3425 1978 
L 3425 0 
L 2847 0 
L 2847 2094 
Q 2847 2600 2669 2842 
Q 2491 3084 2119 3084 
Q 1678 3084 1418 2786 
Q 1159 2488 1159 1978 
L 1159 0 
L 581 0 
L 581 3500 
L 1159 3500 
L 1159 2956 
Q 1356 3278 1631 3431 
Q 1906 3584 2284 3584 
Q 2666 3584 2933 3390 
Q 3200 3197 3328 2828 
z
" transform="scale(0.015625)"/>
      <path id="DejaVuSans-6f" d="M 1959 3097 
Q 1497 3097 1228 2736 
Q 959 2375 959 1747 
Q 959 1119 1226 758 
Q 1494 397 1959 397 
Q 2419 397 2687 759 
Q 2956 1122 2956 1747 
Q 2956 2369 2687 2733 
Q 2419 3097 1959 3097 
z
M 1959 3584 
Q 2709 3584 3137 3096 
Q 3566 2609 3566 1747 
Q 3566 888 3137 398 
Q 2709 -91 1959 -91 
Q 1206 -91 779 398 
Q 353 888 353 1747 
Q 353 2609 779 3096 
Q 1206 3584 1959 3584 
z
" transform="scale(0.015625)"/>
      <path id="DejaVuSans-74" d="M 1172 4494 
L 1172 3500 
L 2356 3500 
L 2356 3053 
L 1172 3053 
L 1172 1153 
Q 1172 725 1289 603 
Q 1406 481 1766 481 
L 2356 481 
L 2356 0 
L 1766 0 
Q 1100 0 847 248 
Q 594 497 594 1153 
L 594 3053 
L 172 3053 
L 172 3500 
L 594 3500 
L 594 4494 
L 1172 4494 
z
" transform="scale(0.015625)"/>
     </defs>
     <use xlink:href="#DejaVuSans-46"/>
     <use xlink:href="#DejaVuSans-61" x="48.394531"/>
     <use xlink:href="#DejaVuSans-73" x="109.673828"/>
     <use xlink:href="#DejaVuSans-65" x="161.773438"/>
     <use xlink:href="#DejaVuSans-73" x="223.296875"/>
     <use xlink:href="#DejaVuSans-20" x="275.396484"/>
     <use xlink:href="#DejaVuSans-2d" x="307.183594"/>
     <use xlink:href="#DejaVuSans-20" x="343.267578"/>
     <use xlink:href="#DejaVuSans-61" x="375.054688"/>
     <use xlink:href="#DejaVuSans-6d" x="436.333984"/>
     <use xlink:href="#DejaVuSans-6f" x="533.746094"/>
     <use xlink:href="#DejaVuSans-73" x="594.927734"/>
     <use xlink:href="#DejaVuSans-74" x="647.027344"/>
     <use xlink:href="#DejaVuSans-72" x="686.236328"/>
     <use xlink:href="#DejaVuSans-61" x="727.349609"/>
     <use xlink:href="#DejaVuSans-73" x="788.628906"/>
     <use xlink:href="#DejaVuSans-20" x="840.728516"/>
     <use xlink:href="#DejaVuSans-64" x="872.515625"/>
     <use xlink:href="#DejaVuSans-6f" x="935.992188"/>
     <use xlink:href="#DejaVuSans-20" x="997.173828"/>
     <use xlink:href="#DejaVuSans-6d" x="1028.960938"/>
     <use xlink:href="#DejaVuSans-65" x="1126.373047"/>
     <use xlink:href="#DejaVuSans-69" x="1187.896484"/>
     <use xlink:href="#DejaVuSans-6f" x="1215.679688"/>
    </g>
   </g>
   <g id="legend_1">
    <g id="patch_7">
     <path d="M 566.64375 62.79625 
L 702.2 62.79625 
Q 704.2 62.79625 704.2 60.79625 
L 704.2 32.44 
Q 704.2 30.44 702.2 30.44 
L 566.64375 30.44 
Q 564.64375 30.44 564.64375 32.44 
L 564.64375 60.79625 
Q 564.64375 62.79625 566.64375 62.79625 
z
" style="fill: #ffffff; opacity: 0.8; stroke: #cccccc; stroke-linejoin: miter"/>
    </g>
    <g id="line2d_29">
     <path d="M 568.64375 38.538438 
L 578.64375 38.538438 
L 588.64375 38.538438 
" style="fill: none; stroke: #1f77b4; stroke-width: 1.5; stroke-linecap: square"/>
    </g>
    <g id="text_17">
     <!-- Fase - meio -->
     <g transform="translate(596.64375 42.038438)scale(0.1 -0.1)">
      <use xlink:href="#DejaVuSans-46"/>
      <use xlink:href="#DejaVuSans-61" x="48.394531"/>
      <use xlink:href="#DejaVuSans-73" x="109.673828"/>
      <use xlink:href="#DejaVuSans-65" x="161.773438"/>
      <use xlink:href="#DejaVuSans-20" x="223.296875"/>
      <use xlink:href="#DejaVuSans-2d" x="255.083984"/>
      <use xlink:href="#DejaVuSans-20" x="291.167969"/>
      <use xlink:href="#DejaVuSans-6d" x="322.955078"/>
      <use xlink:href="#DejaVuSans-65" x="420.367188"/>
      <use xlink:href="#DejaVuSans-69" x="481.890625"/>
      <use xlink:href="#DejaVuSans-6f" x="509.673828"/>
     </g>
    </g>
    <g id="line2d_30">
     <path d="M 568.64375 53.216563 
L 578.64375 53.216563 
L 588.64375 53.216563 
" style="fill: none; stroke: #ff7f0e; stroke-width: 1.5; stroke-linecap: square"/>
    </g>
    <g id="text_18">
     <!-- Fase recebida - meio -->
     <g transform="translate(596.64375 56.716563)scale(0.1 -0.1)">
      <defs>
       <path id="DejaVuSans-62" d="M 3116 1747 
Q 3116 2381 2855 2742 
Q 2594 3103 2138 3103 
Q 1681 3103 1420 2742 
Q 1159 2381 1159 1747 
Q 1159 1113 1420 752 
Q 1681 391 2138 391 
Q 2594 391 2855 752 
Q 3116 1113 3116 1747 
z
M 1159 2969 
Q 1341 3281 1617 3432 
Q 1894 3584 2278 3584 
Q 2916 3584 3314 3078 
Q 3713 2572 3713 1747 
Q 3713 922 3314 415 
Q 2916 -91 2278 -91 
Q 1894 -91 1617 61 
Q 1341 213 1159 525 
L 1159 0 
L 581 0 
L 581 4863 
L 1159 4863 
L 1159 2969 
z
" transform="scale(0.015625)"/>
      </defs>
      <use xlink:href="#DejaVuSans-46"/>
      <use xlink:href="#DejaVuSans-61" x="48.394531"/>
      <use xlink:href="#DejaVuSans-73" x="109.673828"/>
      <use xlink:href="#DejaVuSans-65" x="161.773438"/>
      <use xlink:href="#DejaVuSans-20" x="223.296875"/>
      <use xlink:href="#DejaVuSans-72" x="255.083984"/>
      <use xlink:href="#DejaVuSans-65" x="293.947266"/>
      <use xlink:href="#DejaVuSans-63" x="355.470703"/>
      <use xlink:href="#DejaVuSans-65" x="410.451172"/>
      <use xlink:href="#DejaVuSans-62" x="471.974609"/>
      <use xlink:href="#DejaVuSans-69" x="535.451172"/>
      <use xlink:href="#DejaVuSans-64" x="563.234375"/>
      <use xlink:href="#DejaVuSans-61" x="626.710938"/>
      <use xlink:href="#DejaVuSans-20" x="687.990234"/>
      <use xlink:href="#DejaVuSans-2d" x="719.777344"/>
      <use xlink:href="#DejaVuSans-20" x="755.861328"/>
      <use xlink:href="#DejaVuSans-6d" x="787.648438"/>
      <use xlink:href="#DejaVuSans-65" x="885.060547"/>
      <use xlink:href="#DejaVuSans-69" x="946.583984"/>
      <use xlink:href="#DejaVuSans-6f" x="974.367188"/>
     </g>
    </g>
   </g>
  </g>
 </g>
 <defs>
  <clipPath id="p3ffa0125d6">
   <rect x="46.64" y="25.44" width="662.56" height="220.6"/>
  </clipPath>
 </defs>
</svg>
